<mxfile host="Electron" agent="Mozilla/5.0 (Windows NT 10.0; Win64; x64) AppleWebKit/537.36 (KHTML, like Gecko) draw.io/26.0.4 Chrome/128.0.6613.186 Electron/32.2.5 Safari/537.36" version="26.0.4">
  <diagram name="第1頁" id="JYdDTv1vU1lHxpJpeLcQ">
    <mxGraphModel dx="1646" dy="478" grid="1" gridSize="10" guides="1" tooltips="1" connect="1" arrows="1" fold="1" page="1" pageScale="1" pageWidth="827" pageHeight="1169" math="0" shadow="0">
      <root>
        <mxCell id="0" />
        <mxCell id="1" parent="0" />
        <mxCell id="XK1UEKYqplXlc19tVnF5-50" value="" style="rounded=0;whiteSpace=wrap;html=1;dashed=1;fillColor=none;" vertex="1" parent="1">
          <mxGeometry x="491" y="1894" width="239" height="176" as="geometry" />
        </mxCell>
        <mxCell id="mSIeOa4f1mtL7Ge1Exie-46" value="" style="rounded=0;whiteSpace=wrap;html=1;fontFamily=Times New Roman;" parent="1" vertex="1">
          <mxGeometry x="2360.5" y="1380" width="100.5" height="180" as="geometry" />
        </mxCell>
        <mxCell id="mSIeOa4f1mtL7Ge1Exie-44" value="" style="rounded=0;whiteSpace=wrap;html=1;" parent="1" vertex="1">
          <mxGeometry x="2359.5" y="1070" width="100.5" height="180" as="geometry" />
        </mxCell>
        <mxCell id="RWDBVJnFx9APnkcbTvSb-65" value="" style="rounded=0;whiteSpace=wrap;html=1;fontFamily=Times New Roman;" parent="1" vertex="1">
          <mxGeometry x="1630" y="1347.5" width="210" height="120.5" as="geometry" />
        </mxCell>
        <mxCell id="RWDBVJnFx9APnkcbTvSb-55" value="" style="rounded=0;whiteSpace=wrap;html=1;fontFamily=Times New Roman;" parent="1" vertex="1">
          <mxGeometry x="1400" y="1339" width="210" height="130" as="geometry" />
        </mxCell>
        <mxCell id="22ZFTN6R8PeSXuva0Q0--10" value="" style="rounded=0;whiteSpace=wrap;html=1;fontFamily=Times New Roman;fillColor=#d5e8d4;strokeColor=#82b366;" parent="1" vertex="1">
          <mxGeometry x="1880" y="587" width="190" height="40" as="geometry" />
        </mxCell>
        <mxCell id="22ZFTN6R8PeSXuva0Q0--7" value="" style="rounded=0;whiteSpace=wrap;html=1;fontFamily=Times New Roman;fillColor=#dae8fc;strokeColor=#6c8ebf;" parent="1" vertex="1">
          <mxGeometry x="1880" y="547" width="190" height="40" as="geometry" />
        </mxCell>
        <mxCell id="ilkxFyWmU_mrPQ2yCtcB-3" style="edgeStyle=orthogonalEdgeStyle;rounded=0;orthogonalLoop=1;jettySize=auto;html=1;entryX=0;entryY=0.5;entryDx=0;entryDy=0;" parent="1" source="ilkxFyWmU_mrPQ2yCtcB-1" target="ilkxFyWmU_mrPQ2yCtcB-2" edge="1">
          <mxGeometry relative="1" as="geometry" />
        </mxCell>
        <mxCell id="ilkxFyWmU_mrPQ2yCtcB-4" value="java compiler" style="edgeLabel;html=1;align=center;verticalAlign=middle;resizable=0;points=[];" parent="ilkxFyWmU_mrPQ2yCtcB-3" vertex="1" connectable="0">
          <mxGeometry x="-0.213" y="1" relative="1" as="geometry">
            <mxPoint x="7" y="-9" as="offset" />
          </mxGeometry>
        </mxCell>
        <mxCell id="ilkxFyWmU_mrPQ2yCtcB-1" value="java source code" style="rounded=1;whiteSpace=wrap;html=1;" parent="1" vertex="1">
          <mxGeometry x="110" y="360" width="110" height="40" as="geometry" />
        </mxCell>
        <mxCell id="ilkxFyWmU_mrPQ2yCtcB-17" style="edgeStyle=orthogonalEdgeStyle;rounded=0;orthogonalLoop=1;jettySize=auto;html=1;exitX=0.5;exitY=1;exitDx=0;exitDy=0;" parent="1" source="ilkxFyWmU_mrPQ2yCtcB-2" target="ilkxFyWmU_mrPQ2yCtcB-5" edge="1">
          <mxGeometry relative="1" as="geometry" />
        </mxCell>
        <mxCell id="ilkxFyWmU_mrPQ2yCtcB-18" style="edgeStyle=orthogonalEdgeStyle;rounded=0;orthogonalLoop=1;jettySize=auto;html=1;" parent="1" source="ilkxFyWmU_mrPQ2yCtcB-2" target="ilkxFyWmU_mrPQ2yCtcB-6" edge="1">
          <mxGeometry relative="1" as="geometry" />
        </mxCell>
        <mxCell id="ilkxFyWmU_mrPQ2yCtcB-2" value="byte code(位元碼)" style="rounded=1;whiteSpace=wrap;html=1;" parent="1" vertex="1">
          <mxGeometry x="330" y="360" width="110" height="40" as="geometry" />
        </mxCell>
        <mxCell id="ilkxFyWmU_mrPQ2yCtcB-11" value="" style="edgeStyle=orthogonalEdgeStyle;rounded=0;orthogonalLoop=1;jettySize=auto;html=1;" parent="1" source="ilkxFyWmU_mrPQ2yCtcB-5" target="ilkxFyWmU_mrPQ2yCtcB-10" edge="1">
          <mxGeometry relative="1" as="geometry" />
        </mxCell>
        <mxCell id="ilkxFyWmU_mrPQ2yCtcB-12" value="" style="edgeStyle=orthogonalEdgeStyle;rounded=0;orthogonalLoop=1;jettySize=auto;html=1;" parent="1" source="ilkxFyWmU_mrPQ2yCtcB-5" target="ilkxFyWmU_mrPQ2yCtcB-10" edge="1">
          <mxGeometry relative="1" as="geometry" />
        </mxCell>
        <mxCell id="ilkxFyWmU_mrPQ2yCtcB-13" style="edgeStyle=orthogonalEdgeStyle;rounded=0;orthogonalLoop=1;jettySize=auto;html=1;" parent="1" source="ilkxFyWmU_mrPQ2yCtcB-5" target="ilkxFyWmU_mrPQ2yCtcB-9" edge="1">
          <mxGeometry relative="1" as="geometry" />
        </mxCell>
        <mxCell id="ilkxFyWmU_mrPQ2yCtcB-5" value="application" style="rounded=0;whiteSpace=wrap;html=1;" parent="1" vertex="1">
          <mxGeometry x="421" y="440" width="100" height="40" as="geometry" />
        </mxCell>
        <mxCell id="ilkxFyWmU_mrPQ2yCtcB-6" value="applet(網頁用)" style="rounded=0;whiteSpace=wrap;html=1;" parent="1" vertex="1">
          <mxGeometry x="270" y="440" width="100" height="40" as="geometry" />
        </mxCell>
        <mxCell id="ilkxFyWmU_mrPQ2yCtcB-7" value="inter" style="rounded=0;whiteSpace=wrap;html=1;" parent="1" vertex="1">
          <mxGeometry x="381" y="575" width="70" height="30" as="geometry" />
        </mxCell>
        <mxCell id="ilkxFyWmU_mrPQ2yCtcB-8" value="mac" style="rounded=0;whiteSpace=wrap;html=1;" parent="1" vertex="1">
          <mxGeometry x="491" y="575" width="70" height="30" as="geometry" />
        </mxCell>
        <mxCell id="ilkxFyWmU_mrPQ2yCtcB-14" value="" style="edgeStyle=orthogonalEdgeStyle;rounded=0;orthogonalLoop=1;jettySize=auto;html=1;" parent="1" source="ilkxFyWmU_mrPQ2yCtcB-9" target="ilkxFyWmU_mrPQ2yCtcB-7" edge="1">
          <mxGeometry relative="1" as="geometry" />
        </mxCell>
        <mxCell id="ilkxFyWmU_mrPQ2yCtcB-9" value="java&lt;div&gt;直譯器&lt;/div&gt;" style="rounded=0;whiteSpace=wrap;html=1;" parent="1" vertex="1">
          <mxGeometry x="381" y="525" width="70" height="30" as="geometry" />
        </mxCell>
        <mxCell id="ilkxFyWmU_mrPQ2yCtcB-15" value="" style="edgeStyle=orthogonalEdgeStyle;rounded=0;orthogonalLoop=1;jettySize=auto;html=1;" parent="1" source="ilkxFyWmU_mrPQ2yCtcB-10" target="ilkxFyWmU_mrPQ2yCtcB-8" edge="1">
          <mxGeometry relative="1" as="geometry" />
        </mxCell>
        <mxCell id="ilkxFyWmU_mrPQ2yCtcB-10" value="java&lt;div&gt;直譯器&lt;/div&gt;" style="rounded=0;whiteSpace=wrap;html=1;" parent="1" vertex="1">
          <mxGeometry x="491" y="525" width="70" height="30" as="geometry" />
        </mxCell>
        <mxCell id="ilkxFyWmU_mrPQ2yCtcB-24" style="edgeStyle=orthogonalEdgeStyle;rounded=0;orthogonalLoop=1;jettySize=auto;html=1;entryX=0.5;entryY=0;entryDx=0;entryDy=0;fontFamily=Times New Roman;" parent="1" source="ilkxFyWmU_mrPQ2yCtcB-19" target="ilkxFyWmU_mrPQ2yCtcB-22" edge="1">
          <mxGeometry relative="1" as="geometry" />
        </mxCell>
        <mxCell id="ilkxFyWmU_mrPQ2yCtcB-26" value="由long-term schedular決定" style="edgeLabel;html=1;align=center;verticalAlign=middle;resizable=0;points=[];fontFamily=Times New Roman;" parent="ilkxFyWmU_mrPQ2yCtcB-24" vertex="1" connectable="0">
          <mxGeometry x="-0.1657" y="2" relative="1" as="geometry">
            <mxPoint y="13" as="offset" />
          </mxGeometry>
        </mxCell>
        <mxCell id="ilkxFyWmU_mrPQ2yCtcB-19" value="initial" style="rounded=0;whiteSpace=wrap;html=1;fontFamily=Times New Roman;" parent="1" vertex="1">
          <mxGeometry x="310" y="680" width="90" height="30" as="geometry" />
        </mxCell>
        <mxCell id="ilkxFyWmU_mrPQ2yCtcB-20" value="&lt;ul&gt;&lt;li&gt;稱呼program為job&lt;/li&gt;&lt;li&gt;job queue&lt;/li&gt;&lt;/ul&gt;" style="text;html=1;align=left;verticalAlign=middle;resizable=0;points=[];autosize=1;strokeColor=none;fillColor=none;fontFamily=Times New Roman;" parent="1" vertex="1">
          <mxGeometry x="391" y="660" width="160" height="70" as="geometry" />
        </mxCell>
        <mxCell id="ilkxFyWmU_mrPQ2yCtcB-28" style="edgeStyle=orthogonalEdgeStyle;rounded=0;orthogonalLoop=1;jettySize=auto;html=1;entryX=1;entryY=0.5;entryDx=0;entryDy=0;exitX=0.5;exitY=1;exitDx=0;exitDy=0;fontFamily=Times New Roman;" parent="1" source="ilkxFyWmU_mrPQ2yCtcB-22" target="ilkxFyWmU_mrPQ2yCtcB-27" edge="1">
          <mxGeometry relative="1" as="geometry" />
        </mxCell>
        <mxCell id="ilkxFyWmU_mrPQ2yCtcB-29" value="由short-term schedular決定" style="edgeLabel;html=1;align=center;verticalAlign=middle;resizable=0;points=[];fontFamily=Times New Roman;" parent="ilkxFyWmU_mrPQ2yCtcB-28" vertex="1" connectable="0">
          <mxGeometry x="0.2557" y="-2" relative="1" as="geometry">
            <mxPoint x="33" y="-23" as="offset" />
          </mxGeometry>
        </mxCell>
        <mxCell id="ilkxFyWmU_mrPQ2yCtcB-22" value="ready" style="rounded=0;whiteSpace=wrap;html=1;fontFamily=Times New Roman;" parent="1" vertex="1">
          <mxGeometry x="310" y="780" width="90" height="30" as="geometry" />
        </mxCell>
        <mxCell id="ilkxFyWmU_mrPQ2yCtcB-23" value="&lt;ul&gt;&lt;li&gt;稱呼program為process&lt;/li&gt;&lt;li&gt;ready queue&lt;/li&gt;&lt;/ul&gt;" style="text;html=1;align=left;verticalAlign=middle;resizable=0;points=[];autosize=1;strokeColor=none;fillColor=none;fontFamily=Times New Roman;" parent="1" vertex="1">
          <mxGeometry x="400" y="760" width="180" height="70" as="geometry" />
        </mxCell>
        <mxCell id="ilkxFyWmU_mrPQ2yCtcB-31" style="edgeStyle=orthogonalEdgeStyle;rounded=0;orthogonalLoop=1;jettySize=auto;html=1;entryX=1;entryY=0.5;entryDx=0;entryDy=0;fontFamily=Times New Roman;" parent="1" source="ilkxFyWmU_mrPQ2yCtcB-27" target="ilkxFyWmU_mrPQ2yCtcB-30" edge="1">
          <mxGeometry relative="1" as="geometry" />
        </mxCell>
        <mxCell id="ilkxFyWmU_mrPQ2yCtcB-32" style="edgeStyle=orthogonalEdgeStyle;rounded=0;orthogonalLoop=1;jettySize=auto;html=1;entryX=0;entryY=0.5;entryDx=0;entryDy=0;exitX=0.435;exitY=0.019;exitDx=0;exitDy=0;exitPerimeter=0;fontFamily=Times New Roman;" parent="1" source="ilkxFyWmU_mrPQ2yCtcB-27" target="ilkxFyWmU_mrPQ2yCtcB-22" edge="1">
          <mxGeometry relative="1" as="geometry" />
        </mxCell>
        <mxCell id="ilkxFyWmU_mrPQ2yCtcB-33" value="由short-term schedular決定" style="edgeLabel;html=1;align=center;verticalAlign=middle;resizable=0;points=[];fontFamily=Times New Roman;" parent="ilkxFyWmU_mrPQ2yCtcB-32" vertex="1" connectable="0">
          <mxGeometry x="-0.061" y="-1" relative="1" as="geometry">
            <mxPoint x="-11" y="24" as="offset" />
          </mxGeometry>
        </mxCell>
        <mxCell id="ilkxFyWmU_mrPQ2yCtcB-35" style="edgeStyle=orthogonalEdgeStyle;rounded=0;orthogonalLoop=1;jettySize=auto;html=1;entryX=0.5;entryY=0;entryDx=0;entryDy=0;fontFamily=Times New Roman;" parent="1" source="ilkxFyWmU_mrPQ2yCtcB-27" target="ilkxFyWmU_mrPQ2yCtcB-34" edge="1">
          <mxGeometry relative="1" as="geometry" />
        </mxCell>
        <mxCell id="ilkxFyWmU_mrPQ2yCtcB-47" value="Text" style="edgeLabel;html=1;align=center;verticalAlign=middle;resizable=0;points=[];" parent="ilkxFyWmU_mrPQ2yCtcB-35" vertex="1" connectable="0">
          <mxGeometry x="-0.0248" relative="1" as="geometry">
            <mxPoint as="offset" />
          </mxGeometry>
        </mxCell>
        <mxCell id="ilkxFyWmU_mrPQ2yCtcB-48" value="&lt;span style=&quot;font-family: &amp;quot;Times New Roman&amp;quot;;&quot;&gt;由mediun-term schedular決定&lt;/span&gt;" style="edgeLabel;html=1;align=center;verticalAlign=middle;resizable=0;points=[];" parent="ilkxFyWmU_mrPQ2yCtcB-35" vertex="1" connectable="0">
          <mxGeometry x="0.0324" y="3" relative="1" as="geometry">
            <mxPoint as="offset" />
          </mxGeometry>
        </mxCell>
        <mxCell id="ilkxFyWmU_mrPQ2yCtcB-27" value="running" style="rounded=0;whiteSpace=wrap;html=1;fontFamily=Times New Roman;" parent="1" vertex="1">
          <mxGeometry x="140" y="850" width="90" height="30" as="geometry" />
        </mxCell>
        <mxCell id="ilkxFyWmU_mrPQ2yCtcB-30" value="terminate" style="rounded=0;whiteSpace=wrap;html=1;fontFamily=Times New Roman;" parent="1" vertex="1">
          <mxGeometry x="-30" y="850" width="90" height="30" as="geometry" />
        </mxCell>
        <mxCell id="ilkxFyWmU_mrPQ2yCtcB-34" value="block(wait)" style="rounded=0;whiteSpace=wrap;html=1;fontFamily=Times New Roman;" parent="1" vertex="1">
          <mxGeometry x="140" y="930" width="90" height="30" as="geometry" />
        </mxCell>
        <mxCell id="ilkxFyWmU_mrPQ2yCtcB-36" value="&lt;ul&gt;&lt;li&gt;不會與其他process或CPU搶資源&lt;/li&gt;&lt;li&gt;process還在memory中，但不在ready queue，所以不是CPU配置資源的對象&lt;/li&gt;&lt;li&gt;sleep in memory&lt;/li&gt;&lt;/ul&gt;" style="text;html=1;align=left;verticalAlign=middle;resizable=0;points=[];autosize=1;strokeColor=none;fillColor=none;fontFamily=Times New Roman;" parent="1" vertex="1">
          <mxGeometry x="225" y="905" width="450" height="80" as="geometry" />
        </mxCell>
        <mxCell id="ilkxFyWmU_mrPQ2yCtcB-39" value="&lt;font style=&quot;color: rgb(255, 0, 0);&quot;&gt;引入(產生)一個新program到PC&lt;/font&gt;" style="text;html=1;align=center;verticalAlign=middle;resizable=0;points=[];autosize=1;strokeColor=none;fillColor=none;fontFamily=Times New Roman;" parent="1" vertex="1">
          <mxGeometry x="275" y="720" width="180" height="30" as="geometry" />
        </mxCell>
        <mxCell id="ilkxFyWmU_mrPQ2yCtcB-40" value="&lt;font style=&quot;color: rgb(255, 0, 0);&quot;&gt;從memory中挑選process到CPU執行&lt;/font&gt;" style="text;html=1;align=center;verticalAlign=middle;resizable=0;points=[];autosize=1;strokeColor=none;fillColor=none;fontFamily=Times New Roman;" parent="1" vertex="1">
          <mxGeometry x="275" y="840" width="210" height="30" as="geometry" />
        </mxCell>
        <mxCell id="ilkxFyWmU_mrPQ2yCtcB-41" value="&lt;font style=&quot;color: rgb(255, 0, 0);&quot;&gt;做完工作&lt;/font&gt;" style="text;html=1;align=center;verticalAlign=middle;resizable=0;points=[];autosize=1;strokeColor=none;fillColor=none;fontFamily=Times New Roman;" parent="1" vertex="1">
          <mxGeometry x="70" y="840" width="70" height="30" as="geometry" />
        </mxCell>
        <mxCell id="ilkxFyWmU_mrPQ2yCtcB-42" value="&lt;font style=&quot;color: rgb(255, 0, 0);&quot;&gt;短暫終止&lt;/font&gt;&lt;div&gt;&lt;font style=&quot;color: rgb(255, 0, 0);&quot;&gt;&lt;font style=&quot;background-color: transparent;&quot;&gt;被&lt;/font&gt;&lt;span style=&quot;background-color: transparent;&quot;&gt;&lt;font&gt;High Priority插隊&lt;/font&gt;&lt;/span&gt;&lt;br&gt;&lt;span style=&quot;background-color: transparent;&quot;&gt;中斷(Interrupt)&lt;/span&gt;&lt;br&gt;&lt;span style=&quot;background-color: transparent;&quot;&gt;CPU time quanttum&lt;/span&gt;&lt;/font&gt;&lt;br&gt;&lt;/div&gt;" style="text;html=1;align=left;verticalAlign=middle;resizable=0;points=[];autosize=1;strokeColor=none;fillColor=none;fontFamily=Times New Roman;" parent="1" vertex="1">
          <mxGeometry x="30" y="690" width="120" height="70" as="geometry" />
        </mxCell>
        <mxCell id="ilkxFyWmU_mrPQ2yCtcB-43" value="" style="shape=flexArrow;endArrow=classic;html=1;rounded=0;entryX=0.729;entryY=1.008;entryDx=0;entryDy=0;entryPerimeter=0;fillColor=#fff2cc;strokeColor=#d6b656;fontFamily=Times New Roman;" parent="1" target="ilkxFyWmU_mrPQ2yCtcB-42" edge="1">
          <mxGeometry width="50" height="50" relative="1" as="geometry">
            <mxPoint x="160" y="800" as="sourcePoint" />
            <mxPoint x="210" y="750" as="targetPoint" />
          </mxGeometry>
        </mxCell>
        <mxCell id="ilkxFyWmU_mrPQ2yCtcB-44" value="" style="shape=flexArrow;endArrow=classic;html=1;rounded=0;fillColor=#fff2cc;strokeColor=#d6b656;fontFamily=Times New Roman;" parent="1" edge="1">
          <mxGeometry width="50" height="50" relative="1" as="geometry">
            <mxPoint x="215" y="969" as="sourcePoint" />
            <mxPoint x="240" y="1000" as="targetPoint" />
          </mxGeometry>
        </mxCell>
        <mxCell id="ilkxFyWmU_mrPQ2yCtcB-45" value="&lt;div&gt;&lt;font color=&quot;#ff0000&quot;&gt;較長時間終止&lt;/font&gt;&lt;/div&gt;&lt;div&gt;&lt;font color=&quot;#ff0000&quot;&gt;wait for IO device&lt;/font&gt;&lt;/div&gt;&lt;div&gt;&lt;font color=&quot;#ff0000&quot;&gt;wait for resource available&lt;/font&gt;&lt;/div&gt;" style="text;html=1;align=left;verticalAlign=middle;resizable=0;points=[];autosize=1;strokeColor=none;fillColor=none;fontFamily=Times New Roman;" parent="1" vertex="1">
          <mxGeometry x="253" y="970" width="150" height="60" as="geometry" />
        </mxCell>
        <mxCell id="ilkxFyWmU_mrPQ2yCtcB-55" style="rounded=0;orthogonalLoop=1;jettySize=auto;html=1;entryX=0.466;entryY=-0.005;entryDx=0;entryDy=0;entryPerimeter=0;fontFamily=Times New Roman;" parent="1" source="ilkxFyWmU_mrPQ2yCtcB-49" target="ilkxFyWmU_mrPQ2yCtcB-52" edge="1">
          <mxGeometry relative="1" as="geometry" />
        </mxCell>
        <mxCell id="ilkxFyWmU_mrPQ2yCtcB-49" value="OS" style="rounded=0;whiteSpace=wrap;html=1;fontFamily=Times New Roman;" parent="1" vertex="1">
          <mxGeometry x="880" y="700" width="70" height="30" as="geometry" />
        </mxCell>
        <mxCell id="ilkxFyWmU_mrPQ2yCtcB-50" value="register" style="rounded=0;whiteSpace=wrap;html=1;verticalAlign=top;fontFamily=Times New Roman;" parent="1" vertex="1">
          <mxGeometry x="810" y="770" width="90" height="70" as="geometry" />
        </mxCell>
        <mxCell id="ilkxFyWmU_mrPQ2yCtcB-51" value="process01" style="rounded=0;whiteSpace=wrap;html=1;fontFamily=Times New Roman;" parent="1" vertex="1">
          <mxGeometry x="820" y="796" width="70" height="30" as="geometry" />
        </mxCell>
        <mxCell id="ilkxFyWmU_mrPQ2yCtcB-52" value="register" style="rounded=0;whiteSpace=wrap;html=1;verticalAlign=top;fontFamily=Times New Roman;" parent="1" vertex="1">
          <mxGeometry x="930" y="770" width="90" height="70" as="geometry" />
        </mxCell>
        <mxCell id="ilkxFyWmU_mrPQ2yCtcB-53" value="process02" style="rounded=0;whiteSpace=wrap;html=1;fontFamily=Times New Roman;" parent="1" vertex="1">
          <mxGeometry x="940" y="796" width="70" height="30" as="geometry" />
        </mxCell>
        <mxCell id="ilkxFyWmU_mrPQ2yCtcB-54" style="rounded=0;orthogonalLoop=1;jettySize=auto;html=1;entryX=0.439;entryY=0.015;entryDx=0;entryDy=0;entryPerimeter=0;elbow=vertical;fontFamily=Times New Roman;" parent="1" source="ilkxFyWmU_mrPQ2yCtcB-49" target="ilkxFyWmU_mrPQ2yCtcB-50" edge="1">
          <mxGeometry relative="1" as="geometry" />
        </mxCell>
        <mxCell id="ilkxFyWmU_mrPQ2yCtcB-56" value="context switching" style="text;html=1;align=center;verticalAlign=middle;resizable=0;points=[];autosize=1;strokeColor=none;fillColor=none;fontFamily=Times New Roman;" parent="1" vertex="1">
          <mxGeometry x="860" y="730" width="110" height="30" as="geometry" />
        </mxCell>
        <mxCell id="ilkxFyWmU_mrPQ2yCtcB-57" value="舊process的PCB不用swap out到memory&lt;div&gt;也不用從moemory中取新&lt;span style=&quot;background-color: transparent; color: light-dark(rgb(0, 0, 0), rgb(255, 255, 255));&quot;&gt;process&lt;/span&gt;&lt;/div&gt;&lt;div&gt;&lt;span style=&quot;background-color: transparent;&quot;&gt;&lt;font style=&quot;color: light-dark(rgb(255, 0, 0), rgb(255, 255, 255));&quot;&gt;不會用到momory存取動作&lt;/font&gt;&lt;/span&gt;&lt;/div&gt;" style="text;html=1;align=center;verticalAlign=middle;resizable=0;points=[];autosize=1;strokeColor=none;fillColor=none;fontFamily=Times New Roman;" parent="1" vertex="1">
          <mxGeometry x="790" y="840" width="230" height="60" as="geometry" />
        </mxCell>
        <mxCell id="ilkxFyWmU_mrPQ2yCtcB-58" value="" style="endArrow=none;html=1;rounded=0;fontFamily=Times New Roman;" parent="1" edge="1">
          <mxGeometry width="50" height="50" relative="1" as="geometry">
            <mxPoint x="1200" y="810" as="sourcePoint" />
            <mxPoint x="1200" y="670" as="targetPoint" />
          </mxGeometry>
        </mxCell>
        <mxCell id="ilkxFyWmU_mrPQ2yCtcB-59" value="Event" style="text;html=1;align=center;verticalAlign=middle;resizable=0;points=[];autosize=1;strokeColor=none;fillColor=none;fontFamily=Times New Roman;" parent="1" vertex="1">
          <mxGeometry x="1170" y="638" width="50" height="30" as="geometry" />
        </mxCell>
        <mxCell id="ilkxFyWmU_mrPQ2yCtcB-60" value="" style="endArrow=none;html=1;rounded=0;fontFamily=Times New Roman;" parent="1" edge="1">
          <mxGeometry width="50" height="50" relative="1" as="geometry">
            <mxPoint x="1610" y="810" as="sourcePoint" />
            <mxPoint x="1610" y="680" as="targetPoint" />
          </mxGeometry>
        </mxCell>
        <mxCell id="ilkxFyWmU_mrPQ2yCtcB-61" value="Event" style="text;html=1;align=center;verticalAlign=middle;resizable=0;points=[];autosize=1;strokeColor=none;fillColor=none;fontFamily=Times New Roman;" parent="1" vertex="1">
          <mxGeometry x="1590" y="650" width="50" height="30" as="geometry" />
        </mxCell>
        <mxCell id="ilkxFyWmU_mrPQ2yCtcB-62" value="" style="endArrow=classic;startArrow=classic;html=1;rounded=0;fontFamily=Times New Roman;entryX=0.019;entryY=1.003;entryDx=0;entryDy=0;entryPerimeter=0;" parent="1" target="ilkxFyWmU_mrPQ2yCtcB-61" edge="1">
          <mxGeometry width="50" height="50" relative="1" as="geometry">
            <mxPoint x="1210" y="680" as="sourcePoint" />
            <mxPoint x="1460" y="680" as="targetPoint" />
          </mxGeometry>
        </mxCell>
        <mxCell id="ilkxFyWmU_mrPQ2yCtcB-63" value="response interval" style="edgeLabel;html=1;align=center;verticalAlign=middle;resizable=0;points=[];fontFamily=Times New Roman;" parent="ilkxFyWmU_mrPQ2yCtcB-62" vertex="1" connectable="0">
          <mxGeometry x="-0.1162" y="-1" relative="1" as="geometry">
            <mxPoint x="31" y="-11" as="offset" />
          </mxGeometry>
        </mxCell>
        <mxCell id="ilkxFyWmU_mrPQ2yCtcB-64" value="" style="endArrow=none;html=1;rounded=0;fontFamily=Times New Roman;" parent="1" edge="1">
          <mxGeometry width="50" height="50" relative="1" as="geometry">
            <mxPoint x="1300" y="810" as="sourcePoint" />
            <mxPoint x="1300" y="696" as="targetPoint" />
          </mxGeometry>
        </mxCell>
        <mxCell id="ilkxFyWmU_mrPQ2yCtcB-65" value="" style="endArrow=classic;startArrow=classic;html=1;rounded=0;fontFamily=Times New Roman;" parent="1" edge="1">
          <mxGeometry width="50" height="50" relative="1" as="geometry">
            <mxPoint x="1210" y="700" as="sourcePoint" />
            <mxPoint x="1290" y="700" as="targetPoint" />
          </mxGeometry>
        </mxCell>
        <mxCell id="ilkxFyWmU_mrPQ2yCtcB-66" value="inreppurt&lt;div&gt;processing&lt;/div&gt;" style="edgeLabel;html=1;align=center;verticalAlign=middle;resizable=0;points=[];fontFamily=Times New Roman;" parent="ilkxFyWmU_mrPQ2yCtcB-65" vertex="1" connectable="0">
          <mxGeometry x="-0.1162" y="-1" relative="1" as="geometry">
            <mxPoint as="offset" />
          </mxGeometry>
        </mxCell>
        <mxCell id="ilkxFyWmU_mrPQ2yCtcB-68" value="" style="endArrow=classic;startArrow=classic;html=1;rounded=0;fontFamily=Times New Roman;" parent="1" edge="1">
          <mxGeometry width="50" height="50" relative="1" as="geometry">
            <mxPoint x="1309" y="784.76" as="sourcePoint" />
            <mxPoint x="1379" y="784.76" as="targetPoint" />
          </mxGeometry>
        </mxCell>
        <mxCell id="ilkxFyWmU_mrPQ2yCtcB-69" value="conflct" style="edgeLabel;html=1;align=center;verticalAlign=middle;resizable=0;points=[];fontFamily=Times New Roman;" parent="ilkxFyWmU_mrPQ2yCtcB-68" vertex="1" connectable="0">
          <mxGeometry x="-0.1162" y="-1" relative="1" as="geometry">
            <mxPoint as="offset" />
          </mxGeometry>
        </mxCell>
        <mxCell id="ilkxFyWmU_mrPQ2yCtcB-70" value="" style="endArrow=none;html=1;rounded=0;fontFamily=Times New Roman;" parent="1" edge="1">
          <mxGeometry width="50" height="50" relative="1" as="geometry">
            <mxPoint x="1390" y="810" as="sourcePoint" />
            <mxPoint x="1390" y="740" as="targetPoint" />
          </mxGeometry>
        </mxCell>
        <mxCell id="ilkxFyWmU_mrPQ2yCtcB-71" value="" style="endArrow=classic;startArrow=classic;html=1;rounded=0;fontFamily=Times New Roman;" parent="1" edge="1">
          <mxGeometry width="50" height="50" relative="1" as="geometry">
            <mxPoint x="1400" y="785" as="sourcePoint" />
            <mxPoint x="1470" y="785" as="targetPoint" />
          </mxGeometry>
        </mxCell>
        <mxCell id="ilkxFyWmU_mrPQ2yCtcB-72" value="dispatch" style="edgeLabel;html=1;align=center;verticalAlign=middle;resizable=0;points=[];fontFamily=Times New Roman;" parent="ilkxFyWmU_mrPQ2yCtcB-71" vertex="1" connectable="0">
          <mxGeometry x="-0.1162" y="-1" relative="1" as="geometry">
            <mxPoint as="offset" />
          </mxGeometry>
        </mxCell>
        <mxCell id="ilkxFyWmU_mrPQ2yCtcB-73" value="" style="endArrow=classic;startArrow=classic;html=1;rounded=0;fontFamily=Times New Roman;" parent="1" edge="1">
          <mxGeometry width="50" height="50" relative="1" as="geometry">
            <mxPoint x="1310" y="700" as="sourcePoint" />
            <mxPoint x="1470" y="700" as="targetPoint" />
          </mxGeometry>
        </mxCell>
        <mxCell id="ilkxFyWmU_mrPQ2yCtcB-74" value="dispatch latency" style="edgeLabel;html=1;align=center;verticalAlign=middle;resizable=0;points=[];fontFamily=Times New Roman;" parent="ilkxFyWmU_mrPQ2yCtcB-73" vertex="1" connectable="0">
          <mxGeometry x="-0.1162" y="-1" relative="1" as="geometry">
            <mxPoint as="offset" />
          </mxGeometry>
        </mxCell>
        <mxCell id="ilkxFyWmU_mrPQ2yCtcB-76" value="" style="endArrow=none;html=1;rounded=0;fontFamily=Times New Roman;" parent="1" edge="1">
          <mxGeometry width="50" height="50" relative="1" as="geometry">
            <mxPoint x="1480" y="810" as="sourcePoint" />
            <mxPoint x="1480" y="696" as="targetPoint" />
          </mxGeometry>
        </mxCell>
        <mxCell id="ilkxFyWmU_mrPQ2yCtcB-77" value="" style="endArrow=classic;startArrow=classic;html=1;rounded=0;fontFamily=Times New Roman;" parent="1" edge="1">
          <mxGeometry width="50" height="50" relative="1" as="geometry">
            <mxPoint x="1490" y="700" as="sourcePoint" />
            <mxPoint x="1600" y="700" as="targetPoint" />
          </mxGeometry>
        </mxCell>
        <mxCell id="ilkxFyWmU_mrPQ2yCtcB-78" value="real time&lt;div&gt;process&lt;/div&gt;&lt;div&gt;execution&lt;/div&gt;" style="edgeLabel;html=1;align=center;verticalAlign=middle;resizable=0;points=[];fontFamily=Times New Roman;" parent="ilkxFyWmU_mrPQ2yCtcB-77" vertex="1" connectable="0">
          <mxGeometry x="-0.1162" y="-1" relative="1" as="geometry">
            <mxPoint x="11" y="-1" as="offset" />
          </mxGeometry>
        </mxCell>
        <mxCell id="h4m5LInhJ6jFV180rpRs-1" value="Queue01：RR" style="rounded=0;whiteSpace=wrap;html=1;fillColor=#ffe6cc;strokeColor=#d79b00;fontFamily=Times New Roman;" parent="1" vertex="1">
          <mxGeometry x="840" y="420" width="200" height="30" as="geometry" />
        </mxCell>
        <mxCell id="h4m5LInhJ6jFV180rpRs-2" value="Queue02：SJF" style="rounded=0;whiteSpace=wrap;html=1;fillColor=#fff2cc;strokeColor=#d6b656;fontFamily=Times New Roman;" parent="1" vertex="1">
          <mxGeometry x="840" y="460" width="200" height="30" as="geometry" />
        </mxCell>
        <mxCell id="h4m5LInhJ6jFV180rpRs-3" value="Queue03：FIFO" style="rounded=0;whiteSpace=wrap;html=1;fillColor=#dae8fc;strokeColor=#6c8ebf;fontFamily=Times New Roman;" parent="1" vertex="1">
          <mxGeometry x="840" y="500" width="200" height="30" as="geometry" />
        </mxCell>
        <mxCell id="h4m5LInhJ6jFV180rpRs-4" value="" style="endArrow=none;html=1;rounded=0;exitX=0;exitY=1;exitDx=0;exitDy=0;fontFamily=Times New Roman;" parent="1" source="h4m5LInhJ6jFV180rpRs-3" edge="1">
          <mxGeometry width="50" height="50" relative="1" as="geometry">
            <mxPoint x="970" y="560" as="sourcePoint" />
            <mxPoint x="1070" y="530" as="targetPoint" />
          </mxGeometry>
        </mxCell>
        <mxCell id="h4m5LInhJ6jFV180rpRs-5" value="" style="endArrow=none;html=1;rounded=0;fontFamily=Times New Roman;" parent="1" edge="1">
          <mxGeometry width="50" height="50" relative="1" as="geometry">
            <mxPoint x="840" y="530" as="sourcePoint" />
            <mxPoint x="840" y="390" as="targetPoint" />
          </mxGeometry>
        </mxCell>
        <mxCell id="h4m5LInhJ6jFV180rpRs-6" value="Priority" style="text;html=1;align=center;verticalAlign=middle;resizable=0;points=[];autosize=1;strokeColor=none;fillColor=none;fontFamily=Times New Roman;" parent="1" vertex="1">
          <mxGeometry x="767" y="440" width="60" height="30" as="geometry" />
        </mxCell>
        <mxCell id="h4m5LInhJ6jFV180rpRs-7" value="High&lt;span style=&quot;font-size: 0px; text-align: start;&quot;&gt;%3CmxGraphModel%3E%3Croot%3E%3CmxCell%20id%3D%220%22%2F%3E%3CmxCell%20id%3D%221%22%20parent%3D%220%22%2F%3E%3CmxCell%20id%3D%222%22%20value%3D%22Priority%22%20style%3D%22text%3Bhtml%3D1%3Balign%3Dcenter%3BverticalAlign%3Dmiddle%3Bresizable%3D0%3Bpoints%3D%5B%5D%3Bautosize%3D1%3BstrokeColor%3Dnone%3BfillColor%3Dnone%3B%22%20vertex%3D%221%22%20parent%3D%221%22%3E%3CmxGeometry%20x%3D%22767%22%20y%3D%22450%22%20width%3D%2260%22%20height%3D%2230%22%20as%3D%22geometry%22%2F%3E%3C%2FmxCell%3E%3C%2Froot%3E%3C%2FmxGraphModel%3E&lt;/span&gt;" style="text;html=1;align=center;verticalAlign=middle;resizable=0;points=[];autosize=1;strokeColor=none;fillColor=none;fontFamily=Times New Roman;" parent="1" vertex="1">
          <mxGeometry x="795" y="370" width="50" height="30" as="geometry" />
        </mxCell>
        <mxCell id="h4m5LInhJ6jFV180rpRs-8" value="Low" style="text;html=1;align=center;verticalAlign=middle;resizable=0;points=[];autosize=1;strokeColor=none;fillColor=none;fontFamily=Times New Roman;" parent="1" vertex="1">
          <mxGeometry x="790" y="510" width="50" height="30" as="geometry" />
        </mxCell>
        <mxCell id="22ZFTN6R8PeSXuva0Q0--2" value="code" style="rounded=0;whiteSpace=wrap;html=1;fillColor=#fff2cc;strokeColor=#d6b656;fontFamily=Times New Roman;" parent="1" vertex="1">
          <mxGeometry x="1890" y="555" width="50" height="25" as="geometry" />
        </mxCell>
        <mxCell id="22ZFTN6R8PeSXuva0Q0--3" value="data" style="rounded=0;whiteSpace=wrap;html=1;fillColor=#fff2cc;strokeColor=#d6b656;fontFamily=Times New Roman;" parent="1" vertex="1">
          <mxGeometry x="1950" y="555" width="50" height="25" as="geometry" />
        </mxCell>
        <mxCell id="22ZFTN6R8PeSXuva0Q0--6" value="file" style="rounded=0;whiteSpace=wrap;html=1;fillColor=#fff2cc;strokeColor=#d6b656;fontFamily=Times New Roman;" parent="1" vertex="1">
          <mxGeometry x="2010" y="555" width="50" height="25" as="geometry" />
        </mxCell>
        <mxCell id="22ZFTN6R8PeSXuva0Q0--8" value="register" style="rounded=0;whiteSpace=wrap;html=1;fillColor=#fff2cc;strokeColor=#d6b656;fontFamily=Times New Roman;" parent="1" vertex="1">
          <mxGeometry x="1917" y="595" width="50" height="25" as="geometry" />
        </mxCell>
        <mxCell id="22ZFTN6R8PeSXuva0Q0--9" value="stack" style="rounded=0;whiteSpace=wrap;html=1;fillColor=#fff2cc;strokeColor=#d6b656;fontFamily=Times New Roman;" parent="1" vertex="1">
          <mxGeometry x="1980" y="595" width="50" height="25" as="geometry" />
        </mxCell>
        <mxCell id="22ZFTN6R8PeSXuva0Q0--11" value="" style="rounded=0;whiteSpace=wrap;html=1;fontFamily=Times New Roman;" parent="1" vertex="1">
          <mxGeometry x="1880" y="627" width="190" height="113" as="geometry" />
        </mxCell>
        <mxCell id="22ZFTN6R8PeSXuva0Q0--13" value="" style="endArrow=none;dashed=1;html=1;dashPattern=1 3;strokeWidth=2;rounded=0;fontFamily=Times New Roman;" parent="1" edge="1">
          <mxGeometry width="50" height="50" relative="1" as="geometry">
            <mxPoint x="1970" y="730" as="sourcePoint" />
            <mxPoint x="1970" y="640" as="targetPoint" />
          </mxGeometry>
        </mxCell>
        <mxCell id="22ZFTN6R8PeSXuva0Q0--14" value="Threads" style="text;html=1;align=center;verticalAlign=middle;resizable=0;points=[];autosize=1;strokeColor=none;fillColor=none;fontFamily=Times New Roman;" parent="1" vertex="1">
          <mxGeometry x="1967" y="668" width="60" height="30" as="geometry" />
        </mxCell>
        <mxCell id="22ZFTN6R8PeSXuva0Q0--15" value="single process" style="text;html=1;align=center;verticalAlign=middle;resizable=0;points=[];autosize=1;strokeColor=none;fillColor=none;fontFamily=Times New Roman;" parent="1" vertex="1">
          <mxGeometry x="1930" y="517" width="90" height="30" as="geometry" />
        </mxCell>
        <mxCell id="22ZFTN6R8PeSXuva0Q0--16" value="" style="rounded=0;whiteSpace=wrap;html=1;fontFamily=Times New Roman;fillColor=#d5e8d4;strokeColor=#82b366;" parent="1" vertex="1">
          <mxGeometry x="2090" y="587" width="100" height="73" as="geometry" />
        </mxCell>
        <mxCell id="22ZFTN6R8PeSXuva0Q0--17" value="" style="rounded=0;whiteSpace=wrap;html=1;fontFamily=Times New Roman;fillColor=#dae8fc;strokeColor=#6c8ebf;" parent="1" vertex="1">
          <mxGeometry x="2090" y="547" width="190" height="40" as="geometry" />
        </mxCell>
        <mxCell id="22ZFTN6R8PeSXuva0Q0--18" value="code" style="rounded=0;whiteSpace=wrap;html=1;fillColor=#fff2cc;strokeColor=#d6b656;fontFamily=Times New Roman;" parent="1" vertex="1">
          <mxGeometry x="2100" y="555" width="50" height="25" as="geometry" />
        </mxCell>
        <mxCell id="22ZFTN6R8PeSXuva0Q0--19" value="data" style="rounded=0;whiteSpace=wrap;html=1;fillColor=#fff2cc;strokeColor=#d6b656;fontFamily=Times New Roman;" parent="1" vertex="1">
          <mxGeometry x="2160" y="555" width="50" height="25" as="geometry" />
        </mxCell>
        <mxCell id="22ZFTN6R8PeSXuva0Q0--20" value="file" style="rounded=0;whiteSpace=wrap;html=1;fillColor=#fff2cc;strokeColor=#d6b656;fontFamily=Times New Roman;" parent="1" vertex="1">
          <mxGeometry x="2220" y="555" width="50" height="25" as="geometry" />
        </mxCell>
        <mxCell id="22ZFTN6R8PeSXuva0Q0--21" value="register" style="rounded=0;whiteSpace=wrap;html=1;fillColor=#fff2cc;strokeColor=#d6b656;fontFamily=Times New Roman;" parent="1" vertex="1">
          <mxGeometry x="2115" y="594.5" width="50" height="25" as="geometry" />
        </mxCell>
        <mxCell id="22ZFTN6R8PeSXuva0Q0--22" value="stack" style="rounded=0;whiteSpace=wrap;html=1;fillColor=#fff2cc;strokeColor=#d6b656;fontFamily=Times New Roman;" parent="1" vertex="1">
          <mxGeometry x="2115" y="627" width="50" height="25" as="geometry" />
        </mxCell>
        <mxCell id="22ZFTN6R8PeSXuva0Q0--23" value="" style="rounded=0;whiteSpace=wrap;html=1;fontFamily=Times New Roman;" parent="1" vertex="1">
          <mxGeometry x="2090" y="660" width="100" height="113" as="geometry" />
        </mxCell>
        <mxCell id="22ZFTN6R8PeSXuva0Q0--24" value="" style="endArrow=none;dashed=1;html=1;dashPattern=1 3;strokeWidth=2;rounded=0;fontFamily=Times New Roman;" parent="1" edge="1">
          <mxGeometry width="50" height="50" relative="1" as="geometry">
            <mxPoint x="2139.53" y="761.5" as="sourcePoint" />
            <mxPoint x="2139.53" y="671.5" as="targetPoint" />
          </mxGeometry>
        </mxCell>
        <mxCell id="22ZFTN6R8PeSXuva0Q0--25" value="Threads" style="text;html=1;align=center;verticalAlign=middle;resizable=0;points=[];autosize=1;strokeColor=none;fillColor=none;fontFamily=Times New Roman;" parent="1" vertex="1">
          <mxGeometry x="2105" y="698" width="60" height="30" as="geometry" />
        </mxCell>
        <mxCell id="22ZFTN6R8PeSXuva0Q0--26" value="multi process" style="text;html=1;align=center;verticalAlign=middle;resizable=0;points=[];autosize=1;strokeColor=none;fillColor=none;fontFamily=Times New Roman;" parent="1" vertex="1">
          <mxGeometry x="2140" y="517" width="90" height="30" as="geometry" />
        </mxCell>
        <mxCell id="22ZFTN6R8PeSXuva0Q0--27" value="" style="rounded=0;whiteSpace=wrap;html=1;fontFamily=Times New Roman;fillColor=#d5e8d4;strokeColor=#82b366;" parent="1" vertex="1">
          <mxGeometry x="2190" y="587" width="90" height="73" as="geometry" />
        </mxCell>
        <mxCell id="22ZFTN6R8PeSXuva0Q0--28" value="register" style="rounded=0;whiteSpace=wrap;html=1;fillColor=#fff2cc;strokeColor=#d6b656;fontFamily=Times New Roman;" parent="1" vertex="1">
          <mxGeometry x="2210" y="594.5" width="50" height="25" as="geometry" />
        </mxCell>
        <mxCell id="22ZFTN6R8PeSXuva0Q0--29" value="stack" style="rounded=0;whiteSpace=wrap;html=1;fillColor=#fff2cc;strokeColor=#d6b656;fontFamily=Times New Roman;" parent="1" vertex="1">
          <mxGeometry x="2210" y="627" width="50" height="25" as="geometry" />
        </mxCell>
        <mxCell id="22ZFTN6R8PeSXuva0Q0--30" value="" style="rounded=0;whiteSpace=wrap;html=1;fontFamily=Times New Roman;" parent="1" vertex="1">
          <mxGeometry x="2190" y="660" width="90" height="113" as="geometry" />
        </mxCell>
        <mxCell id="22ZFTN6R8PeSXuva0Q0--31" value="" style="endArrow=none;dashed=1;html=1;dashPattern=1 3;strokeWidth=2;rounded=0;fontFamily=Times New Roman;" parent="1" edge="1">
          <mxGeometry width="50" height="50" relative="1" as="geometry">
            <mxPoint x="2239.53" y="761.5" as="sourcePoint" />
            <mxPoint x="2239.53" y="671.5" as="targetPoint" />
          </mxGeometry>
        </mxCell>
        <mxCell id="22ZFTN6R8PeSXuva0Q0--32" value="Threads" style="text;html=1;align=center;verticalAlign=middle;resizable=0;points=[];autosize=1;strokeColor=none;fillColor=none;fontFamily=Times New Roman;" parent="1" vertex="1">
          <mxGeometry x="2205" y="698" width="60" height="30" as="geometry" />
        </mxCell>
        <mxCell id="22ZFTN6R8PeSXuva0Q0--33" value="many to one(多對一模式)" style="text;html=1;align=center;verticalAlign=middle;resizable=0;points=[];autosize=1;strokeColor=none;fillColor=none;fontFamily=Times New Roman;" parent="1" vertex="1">
          <mxGeometry x="2390" y="584" width="150" height="30" as="geometry" />
        </mxCell>
        <mxCell id="22ZFTN6R8PeSXuva0Q0--34" value="one to one(一對一模式)" style="text;html=1;align=center;verticalAlign=middle;resizable=0;points=[];autosize=1;strokeColor=none;fillColor=none;fontFamily=Times New Roman;" parent="1" vertex="1">
          <mxGeometry x="2650" y="580" width="140" height="30" as="geometry" />
        </mxCell>
        <mxCell id="22ZFTN6R8PeSXuva0Q0--35" value="many to many(多對多模式)" style="text;html=1;align=center;verticalAlign=middle;resizable=0;points=[];autosize=1;strokeColor=none;fillColor=none;fontFamily=Times New Roman;" parent="1" vertex="1">
          <mxGeometry x="2910" y="575" width="160" height="30" as="geometry" />
        </mxCell>
        <mxCell id="22ZFTN6R8PeSXuva0Q0--36" value="" style="rounded=0;whiteSpace=wrap;html=1;fontFamily=Times New Roman;" parent="1" vertex="1">
          <mxGeometry x="2415" y="650" width="20" height="60" as="geometry" />
        </mxCell>
        <mxCell id="22ZFTN6R8PeSXuva0Q0--37" value="" style="endArrow=none;dashed=1;html=1;dashPattern=1 3;strokeWidth=2;rounded=0;fontFamily=Times New Roman;" parent="1" edge="1">
          <mxGeometry width="50" height="50" relative="1" as="geometry">
            <mxPoint x="2424.77" y="700" as="sourcePoint" />
            <mxPoint x="2424.77" y="660" as="targetPoint" />
          </mxGeometry>
        </mxCell>
        <mxCell id="22ZFTN6R8PeSXuva0Q0--39" value="" style="rounded=0;whiteSpace=wrap;html=1;fontFamily=Times New Roman;" parent="1" vertex="1">
          <mxGeometry x="2435" y="650" width="20" height="60" as="geometry" />
        </mxCell>
        <mxCell id="22ZFTN6R8PeSXuva0Q0--40" value="" style="endArrow=none;dashed=1;html=1;dashPattern=1 3;strokeWidth=2;rounded=0;fontFamily=Times New Roman;" parent="1" edge="1">
          <mxGeometry width="50" height="50" relative="1" as="geometry">
            <mxPoint x="2444.77" y="700" as="sourcePoint" />
            <mxPoint x="2444.77" y="660" as="targetPoint" />
          </mxGeometry>
        </mxCell>
        <mxCell id="22ZFTN6R8PeSXuva0Q0--50" value="" style="rounded=0;whiteSpace=wrap;html=1;fontFamily=Times New Roman;" parent="1" vertex="1">
          <mxGeometry x="2455" y="650" width="20" height="60" as="geometry" />
        </mxCell>
        <mxCell id="22ZFTN6R8PeSXuva0Q0--51" value="" style="endArrow=none;dashed=1;html=1;dashPattern=1 3;strokeWidth=2;rounded=0;fontFamily=Times New Roman;" parent="1" edge="1">
          <mxGeometry width="50" height="50" relative="1" as="geometry">
            <mxPoint x="2464.77" y="700" as="sourcePoint" />
            <mxPoint x="2464.77" y="660" as="targetPoint" />
          </mxGeometry>
        </mxCell>
        <mxCell id="22ZFTN6R8PeSXuva0Q0--52" value="" style="rounded=0;whiteSpace=wrap;html=1;fontFamily=Times New Roman;" parent="1" vertex="1">
          <mxGeometry x="2475" y="650" width="20" height="60" as="geometry" />
        </mxCell>
        <mxCell id="22ZFTN6R8PeSXuva0Q0--53" value="" style="endArrow=none;dashed=1;html=1;dashPattern=1 3;strokeWidth=2;rounded=0;fontFamily=Times New Roman;" parent="1" edge="1">
          <mxGeometry width="50" height="50" relative="1" as="geometry">
            <mxPoint x="2484.77" y="700" as="sourcePoint" />
            <mxPoint x="2484.77" y="660" as="targetPoint" />
          </mxGeometry>
        </mxCell>
        <mxCell id="22ZFTN6R8PeSXuva0Q0--54" value="" style="rounded=0;whiteSpace=wrap;html=1;fontFamily=Times New Roman;" parent="1" vertex="1">
          <mxGeometry x="2495" y="650" width="20" height="60" as="geometry" />
        </mxCell>
        <mxCell id="22ZFTN6R8PeSXuva0Q0--55" value="" style="endArrow=none;dashed=1;html=1;dashPattern=1 3;strokeWidth=2;rounded=0;fontFamily=Times New Roman;" parent="1" edge="1">
          <mxGeometry width="50" height="50" relative="1" as="geometry">
            <mxPoint x="2504.77" y="700" as="sourcePoint" />
            <mxPoint x="2504.77" y="660" as="targetPoint" />
          </mxGeometry>
        </mxCell>
        <mxCell id="22ZFTN6R8PeSXuva0Q0--56" value="" style="rounded=0;whiteSpace=wrap;html=1;fontFamily=Times New Roman;" parent="1" vertex="1">
          <mxGeometry x="2515" y="650" width="20" height="60" as="geometry" />
        </mxCell>
        <mxCell id="22ZFTN6R8PeSXuva0Q0--57" value="" style="endArrow=none;dashed=1;html=1;dashPattern=1 3;strokeWidth=2;rounded=0;fontFamily=Times New Roman;" parent="1" edge="1">
          <mxGeometry width="50" height="50" relative="1" as="geometry">
            <mxPoint x="2524.77" y="700" as="sourcePoint" />
            <mxPoint x="2524.77" y="660" as="targetPoint" />
          </mxGeometry>
        </mxCell>
        <mxCell id="22ZFTN6R8PeSXuva0Q0--58" value="" style="rounded=0;whiteSpace=wrap;html=1;fontFamily=Times New Roman;" parent="1" vertex="1">
          <mxGeometry x="2415" y="630" width="120" height="20" as="geometry" />
        </mxCell>
        <mxCell id="22ZFTN6R8PeSXuva0Q0--59" value="user mode" style="text;html=1;align=center;verticalAlign=middle;resizable=0;points=[];autosize=1;strokeColor=none;fillColor=none;fontFamily=Times New Roman;" parent="1" vertex="1">
          <mxGeometry x="2335" y="680" width="70" height="30" as="geometry" />
        </mxCell>
        <mxCell id="22ZFTN6R8PeSXuva0Q0--62" value="kernal mode" style="text;html=1;align=center;verticalAlign=middle;resizable=0;points=[];autosize=1;strokeColor=none;fillColor=none;fontFamily=Times New Roman;" parent="1" vertex="1">
          <mxGeometry x="2330" y="728" width="80" height="30" as="geometry" />
        </mxCell>
        <mxCell id="22ZFTN6R8PeSXuva0Q0--64" value="" style="endArrow=none;html=1;rounded=0;fontFamily=Times New Roman;" parent="1" edge="1">
          <mxGeometry width="50" height="50" relative="1" as="geometry">
            <mxPoint x="2330" y="720" as="sourcePoint" />
            <mxPoint x="2560" y="720" as="targetPoint" />
          </mxGeometry>
        </mxCell>
        <mxCell id="22ZFTN6R8PeSXuva0Q0--78" value="" style="rounded=0;whiteSpace=wrap;html=1;fontFamily=Times New Roman;" parent="1" vertex="1">
          <mxGeometry x="2461" y="732" width="20" height="20" as="geometry" />
        </mxCell>
        <mxCell id="22ZFTN6R8PeSXuva0Q0--80" value="" style="rounded=0;whiteSpace=wrap;html=1;fontFamily=Times New Roman;" parent="1" vertex="1">
          <mxGeometry x="2461" y="750" width="20" height="60" as="geometry" />
        </mxCell>
        <mxCell id="22ZFTN6R8PeSXuva0Q0--81" value="" style="endArrow=none;dashed=1;html=1;dashPattern=1 3;strokeWidth=2;rounded=0;fontFamily=Times New Roman;" parent="1" edge="1">
          <mxGeometry width="50" height="50" relative="1" as="geometry">
            <mxPoint x="2470.77" y="800" as="sourcePoint" />
            <mxPoint x="2470.77" y="760" as="targetPoint" />
          </mxGeometry>
        </mxCell>
        <mxCell id="22ZFTN6R8PeSXuva0Q0--82" value="" style="rounded=0;whiteSpace=wrap;html=1;fontFamily=Times New Roman;" parent="1" vertex="1">
          <mxGeometry x="2670" y="650" width="20" height="60" as="geometry" />
        </mxCell>
        <mxCell id="22ZFTN6R8PeSXuva0Q0--83" value="" style="endArrow=none;dashed=1;html=1;dashPattern=1 3;strokeWidth=2;rounded=0;fontFamily=Times New Roman;" parent="1" edge="1">
          <mxGeometry width="50" height="50" relative="1" as="geometry">
            <mxPoint x="2679.77" y="700" as="sourcePoint" />
            <mxPoint x="2679.77" y="660" as="targetPoint" />
          </mxGeometry>
        </mxCell>
        <mxCell id="22ZFTN6R8PeSXuva0Q0--84" value="" style="rounded=0;whiteSpace=wrap;html=1;fontFamily=Times New Roman;" parent="1" vertex="1">
          <mxGeometry x="2690" y="650" width="20" height="60" as="geometry" />
        </mxCell>
        <mxCell id="22ZFTN6R8PeSXuva0Q0--85" value="" style="endArrow=none;dashed=1;html=1;dashPattern=1 3;strokeWidth=2;rounded=0;fontFamily=Times New Roman;" parent="1" edge="1">
          <mxGeometry width="50" height="50" relative="1" as="geometry">
            <mxPoint x="2699.77" y="700" as="sourcePoint" />
            <mxPoint x="2699.77" y="660" as="targetPoint" />
          </mxGeometry>
        </mxCell>
        <mxCell id="22ZFTN6R8PeSXuva0Q0--86" value="" style="rounded=0;whiteSpace=wrap;html=1;fontFamily=Times New Roman;" parent="1" vertex="1">
          <mxGeometry x="2710" y="650" width="20" height="60" as="geometry" />
        </mxCell>
        <mxCell id="22ZFTN6R8PeSXuva0Q0--87" value="" style="endArrow=none;dashed=1;html=1;dashPattern=1 3;strokeWidth=2;rounded=0;fontFamily=Times New Roman;" parent="1" edge="1">
          <mxGeometry width="50" height="50" relative="1" as="geometry">
            <mxPoint x="2719.77" y="700" as="sourcePoint" />
            <mxPoint x="2719.77" y="660" as="targetPoint" />
          </mxGeometry>
        </mxCell>
        <mxCell id="22ZFTN6R8PeSXuva0Q0--88" value="" style="rounded=0;whiteSpace=wrap;html=1;fontFamily=Times New Roman;" parent="1" vertex="1">
          <mxGeometry x="2730" y="650" width="20" height="60" as="geometry" />
        </mxCell>
        <mxCell id="22ZFTN6R8PeSXuva0Q0--89" value="" style="endArrow=none;dashed=1;html=1;dashPattern=1 3;strokeWidth=2;rounded=0;fontFamily=Times New Roman;" parent="1" edge="1">
          <mxGeometry width="50" height="50" relative="1" as="geometry">
            <mxPoint x="2739.77" y="700" as="sourcePoint" />
            <mxPoint x="2739.77" y="660" as="targetPoint" />
          </mxGeometry>
        </mxCell>
        <mxCell id="22ZFTN6R8PeSXuva0Q0--90" value="" style="rounded=0;whiteSpace=wrap;html=1;fontFamily=Times New Roman;" parent="1" vertex="1">
          <mxGeometry x="2750" y="650" width="20" height="60" as="geometry" />
        </mxCell>
        <mxCell id="22ZFTN6R8PeSXuva0Q0--91" value="" style="endArrow=none;dashed=1;html=1;dashPattern=1 3;strokeWidth=2;rounded=0;fontFamily=Times New Roman;" parent="1" edge="1">
          <mxGeometry width="50" height="50" relative="1" as="geometry">
            <mxPoint x="2759.77" y="700" as="sourcePoint" />
            <mxPoint x="2759.77" y="660" as="targetPoint" />
          </mxGeometry>
        </mxCell>
        <mxCell id="22ZFTN6R8PeSXuva0Q0--92" value="" style="rounded=0;whiteSpace=wrap;html=1;fontFamily=Times New Roman;" parent="1" vertex="1">
          <mxGeometry x="2770" y="650" width="20" height="60" as="geometry" />
        </mxCell>
        <mxCell id="22ZFTN6R8PeSXuva0Q0--93" value="" style="endArrow=none;dashed=1;html=1;dashPattern=1 3;strokeWidth=2;rounded=0;fontFamily=Times New Roman;" parent="1" edge="1">
          <mxGeometry width="50" height="50" relative="1" as="geometry">
            <mxPoint x="2779.77" y="700" as="sourcePoint" />
            <mxPoint x="2779.77" y="660" as="targetPoint" />
          </mxGeometry>
        </mxCell>
        <mxCell id="22ZFTN6R8PeSXuva0Q0--94" value="" style="rounded=0;whiteSpace=wrap;html=1;fontFamily=Times New Roman;" parent="1" vertex="1">
          <mxGeometry x="2670" y="630" width="120" height="20" as="geometry" />
        </mxCell>
        <mxCell id="22ZFTN6R8PeSXuva0Q0--95" value="user mode" style="text;html=1;align=center;verticalAlign=middle;resizable=0;points=[];autosize=1;strokeColor=none;fillColor=none;fontFamily=Times New Roman;" parent="1" vertex="1">
          <mxGeometry x="2590" y="680" width="70" height="30" as="geometry" />
        </mxCell>
        <mxCell id="22ZFTN6R8PeSXuva0Q0--96" value="kernal mode" style="text;html=1;align=center;verticalAlign=middle;resizable=0;points=[];autosize=1;strokeColor=none;fillColor=none;fontFamily=Times New Roman;" parent="1" vertex="1">
          <mxGeometry x="2585" y="728" width="80" height="30" as="geometry" />
        </mxCell>
        <mxCell id="22ZFTN6R8PeSXuva0Q0--97" value="" style="endArrow=none;html=1;rounded=0;fontFamily=Times New Roman;" parent="1" edge="1">
          <mxGeometry width="50" height="50" relative="1" as="geometry">
            <mxPoint x="2585" y="720" as="sourcePoint" />
            <mxPoint x="2815" y="720" as="targetPoint" />
          </mxGeometry>
        </mxCell>
        <mxCell id="22ZFTN6R8PeSXuva0Q0--127" value="" style="rounded=0;whiteSpace=wrap;html=1;fontFamily=Times New Roman;" parent="1" vertex="1">
          <mxGeometry x="2670" y="752" width="20" height="60" as="geometry" />
        </mxCell>
        <mxCell id="22ZFTN6R8PeSXuva0Q0--128" value="" style="endArrow=none;dashed=1;html=1;dashPattern=1 3;strokeWidth=2;rounded=0;fontFamily=Times New Roman;" parent="1" edge="1">
          <mxGeometry width="50" height="50" relative="1" as="geometry">
            <mxPoint x="2679.77" y="802" as="sourcePoint" />
            <mxPoint x="2679.77" y="762" as="targetPoint" />
          </mxGeometry>
        </mxCell>
        <mxCell id="22ZFTN6R8PeSXuva0Q0--129" value="" style="rounded=0;whiteSpace=wrap;html=1;fontFamily=Times New Roman;" parent="1" vertex="1">
          <mxGeometry x="2690" y="752" width="20" height="60" as="geometry" />
        </mxCell>
        <mxCell id="22ZFTN6R8PeSXuva0Q0--130" value="" style="endArrow=none;dashed=1;html=1;dashPattern=1 3;strokeWidth=2;rounded=0;fontFamily=Times New Roman;" parent="1" edge="1">
          <mxGeometry width="50" height="50" relative="1" as="geometry">
            <mxPoint x="2699.77" y="802" as="sourcePoint" />
            <mxPoint x="2699.77" y="762" as="targetPoint" />
          </mxGeometry>
        </mxCell>
        <mxCell id="22ZFTN6R8PeSXuva0Q0--131" value="" style="rounded=0;whiteSpace=wrap;html=1;fontFamily=Times New Roman;" parent="1" vertex="1">
          <mxGeometry x="2710" y="752" width="20" height="60" as="geometry" />
        </mxCell>
        <mxCell id="22ZFTN6R8PeSXuva0Q0--132" value="" style="endArrow=none;dashed=1;html=1;dashPattern=1 3;strokeWidth=2;rounded=0;fontFamily=Times New Roman;" parent="1" edge="1">
          <mxGeometry width="50" height="50" relative="1" as="geometry">
            <mxPoint x="2719.77" y="802" as="sourcePoint" />
            <mxPoint x="2719.77" y="762" as="targetPoint" />
          </mxGeometry>
        </mxCell>
        <mxCell id="22ZFTN6R8PeSXuva0Q0--133" value="" style="rounded=0;whiteSpace=wrap;html=1;fontFamily=Times New Roman;" parent="1" vertex="1">
          <mxGeometry x="2730" y="752" width="20" height="60" as="geometry" />
        </mxCell>
        <mxCell id="22ZFTN6R8PeSXuva0Q0--134" value="" style="endArrow=none;dashed=1;html=1;dashPattern=1 3;strokeWidth=2;rounded=0;fontFamily=Times New Roman;" parent="1" edge="1">
          <mxGeometry width="50" height="50" relative="1" as="geometry">
            <mxPoint x="2739.77" y="802" as="sourcePoint" />
            <mxPoint x="2739.77" y="762" as="targetPoint" />
          </mxGeometry>
        </mxCell>
        <mxCell id="22ZFTN6R8PeSXuva0Q0--135" value="" style="rounded=0;whiteSpace=wrap;html=1;fontFamily=Times New Roman;" parent="1" vertex="1">
          <mxGeometry x="2750" y="752" width="20" height="60" as="geometry" />
        </mxCell>
        <mxCell id="22ZFTN6R8PeSXuva0Q0--136" value="" style="endArrow=none;dashed=1;html=1;dashPattern=1 3;strokeWidth=2;rounded=0;fontFamily=Times New Roman;" parent="1" edge="1">
          <mxGeometry width="50" height="50" relative="1" as="geometry">
            <mxPoint x="2759.77" y="802" as="sourcePoint" />
            <mxPoint x="2759.77" y="762" as="targetPoint" />
          </mxGeometry>
        </mxCell>
        <mxCell id="22ZFTN6R8PeSXuva0Q0--137" value="" style="rounded=0;whiteSpace=wrap;html=1;fontFamily=Times New Roman;" parent="1" vertex="1">
          <mxGeometry x="2770" y="752" width="20" height="60" as="geometry" />
        </mxCell>
        <mxCell id="22ZFTN6R8PeSXuva0Q0--138" value="" style="endArrow=none;dashed=1;html=1;dashPattern=1 3;strokeWidth=2;rounded=0;fontFamily=Times New Roman;" parent="1" edge="1">
          <mxGeometry width="50" height="50" relative="1" as="geometry">
            <mxPoint x="2779.77" y="802" as="sourcePoint" />
            <mxPoint x="2779.77" y="762" as="targetPoint" />
          </mxGeometry>
        </mxCell>
        <mxCell id="22ZFTN6R8PeSXuva0Q0--139" value="" style="rounded=0;whiteSpace=wrap;html=1;fontFamily=Times New Roman;" parent="1" vertex="1">
          <mxGeometry x="2670" y="732" width="120" height="20" as="geometry" />
        </mxCell>
        <mxCell id="22ZFTN6R8PeSXuva0Q0--140" value="" style="rounded=0;whiteSpace=wrap;html=1;fontFamily=Times New Roman;" parent="1" vertex="1">
          <mxGeometry x="2930" y="650" width="30" height="60" as="geometry" />
        </mxCell>
        <mxCell id="22ZFTN6R8PeSXuva0Q0--152" value="" style="rounded=0;whiteSpace=wrap;html=1;fontFamily=Times New Roman;" parent="1" vertex="1">
          <mxGeometry x="2930" y="630" width="120" height="20" as="geometry" />
        </mxCell>
        <mxCell id="22ZFTN6R8PeSXuva0Q0--153" value="user mode" style="text;html=1;align=center;verticalAlign=middle;resizable=0;points=[];autosize=1;strokeColor=none;fillColor=none;fontFamily=Times New Roman;" parent="1" vertex="1">
          <mxGeometry x="2850" y="680" width="70" height="30" as="geometry" />
        </mxCell>
        <mxCell id="22ZFTN6R8PeSXuva0Q0--154" value="kernal mode" style="text;html=1;align=center;verticalAlign=middle;resizable=0;points=[];autosize=1;strokeColor=none;fillColor=none;fontFamily=Times New Roman;" parent="1" vertex="1">
          <mxGeometry x="2845" y="728" width="80" height="30" as="geometry" />
        </mxCell>
        <mxCell id="22ZFTN6R8PeSXuva0Q0--155" value="" style="endArrow=none;html=1;rounded=0;" parent="1" edge="1">
          <mxGeometry width="50" height="50" relative="1" as="geometry">
            <mxPoint x="2845" y="720" as="sourcePoint" />
            <mxPoint x="3075" y="720" as="targetPoint" />
          </mxGeometry>
        </mxCell>
        <mxCell id="22ZFTN6R8PeSXuva0Q0--168" value="" style="rounded=0;whiteSpace=wrap;html=1;fontFamily=Times New Roman;" parent="1" vertex="1">
          <mxGeometry x="2930" y="732" width="120" height="20" as="geometry" />
        </mxCell>
        <mxCell id="22ZFTN6R8PeSXuva0Q0--170" value="" style="rounded=0;whiteSpace=wrap;html=1;fontFamily=Times New Roman;" parent="1" vertex="1">
          <mxGeometry x="2960" y="650" width="30" height="60" as="geometry" />
        </mxCell>
        <mxCell id="22ZFTN6R8PeSXuva0Q0--171" value="" style="rounded=0;whiteSpace=wrap;html=1;fontFamily=Times New Roman;" parent="1" vertex="1">
          <mxGeometry x="2990" y="650" width="30" height="60" as="geometry" />
        </mxCell>
        <mxCell id="22ZFTN6R8PeSXuva0Q0--172" value="" style="rounded=0;whiteSpace=wrap;html=1;fontFamily=Times New Roman;" parent="1" vertex="1">
          <mxGeometry x="3020" y="650" width="30" height="60" as="geometry" />
        </mxCell>
        <mxCell id="22ZFTN6R8PeSXuva0Q0--173" value="" style="endArrow=none;dashed=1;html=1;dashPattern=1 3;strokeWidth=2;rounded=0;fontFamily=Times New Roman;" parent="1" edge="1">
          <mxGeometry width="50" height="50" relative="1" as="geometry">
            <mxPoint x="3034.77" y="698" as="sourcePoint" />
            <mxPoint x="3034.77" y="658" as="targetPoint" />
          </mxGeometry>
        </mxCell>
        <mxCell id="22ZFTN6R8PeSXuva0Q0--174" value="" style="endArrow=none;dashed=1;html=1;dashPattern=1 3;strokeWidth=2;rounded=0;fontFamily=Times New Roman;" parent="1" edge="1">
          <mxGeometry width="50" height="50" relative="1" as="geometry">
            <mxPoint x="3004.77" y="698" as="sourcePoint" />
            <mxPoint x="3004.77" y="658" as="targetPoint" />
          </mxGeometry>
        </mxCell>
        <mxCell id="22ZFTN6R8PeSXuva0Q0--175" value="" style="endArrow=none;dashed=1;html=1;dashPattern=1 3;strokeWidth=2;rounded=0;fontFamily=Times New Roman;" parent="1" edge="1">
          <mxGeometry width="50" height="50" relative="1" as="geometry">
            <mxPoint x="2974.77" y="698" as="sourcePoint" />
            <mxPoint x="2974.77" y="658" as="targetPoint" />
          </mxGeometry>
        </mxCell>
        <mxCell id="22ZFTN6R8PeSXuva0Q0--177" value="" style="endArrow=none;dashed=1;html=1;dashPattern=1 3;strokeWidth=2;rounded=0;fontFamily=Times New Roman;" parent="1" edge="1">
          <mxGeometry width="50" height="50" relative="1" as="geometry">
            <mxPoint x="2944.77" y="700" as="sourcePoint" />
            <mxPoint x="2944.77" y="660" as="targetPoint" />
          </mxGeometry>
        </mxCell>
        <mxCell id="22ZFTN6R8PeSXuva0Q0--178" value="" style="rounded=0;whiteSpace=wrap;html=1;fontFamily=Times New Roman;" parent="1" vertex="1">
          <mxGeometry x="2930" y="752" width="40" height="60" as="geometry" />
        </mxCell>
        <mxCell id="22ZFTN6R8PeSXuva0Q0--179" value="" style="endArrow=none;dashed=1;html=1;dashPattern=1 3;strokeWidth=2;rounded=0;fontFamily=Times New Roman;" parent="1" edge="1">
          <mxGeometry width="50" height="50" relative="1" as="geometry">
            <mxPoint x="2949.77" y="800" as="sourcePoint" />
            <mxPoint x="2949.77" y="760" as="targetPoint" />
          </mxGeometry>
        </mxCell>
        <mxCell id="22ZFTN6R8PeSXuva0Q0--180" value="" style="rounded=0;whiteSpace=wrap;html=1;fontFamily=Times New Roman;" parent="1" vertex="1">
          <mxGeometry x="2970" y="752" width="40" height="60" as="geometry" />
        </mxCell>
        <mxCell id="22ZFTN6R8PeSXuva0Q0--181" value="" style="endArrow=none;dashed=1;html=1;dashPattern=1 3;strokeWidth=2;rounded=0;fontFamily=Times New Roman;" parent="1" edge="1">
          <mxGeometry width="50" height="50" relative="1" as="geometry">
            <mxPoint x="2989.77" y="800" as="sourcePoint" />
            <mxPoint x="2989.77" y="760" as="targetPoint" />
          </mxGeometry>
        </mxCell>
        <mxCell id="22ZFTN6R8PeSXuva0Q0--182" value="" style="rounded=0;whiteSpace=wrap;html=1;fontFamily=Times New Roman;" parent="1" vertex="1">
          <mxGeometry x="3010" y="752" width="40" height="60" as="geometry" />
        </mxCell>
        <mxCell id="22ZFTN6R8PeSXuva0Q0--183" value="" style="endArrow=none;dashed=1;html=1;dashPattern=1 3;strokeWidth=2;rounded=0;fontFamily=Times New Roman;" parent="1" edge="1">
          <mxGeometry width="50" height="50" relative="1" as="geometry">
            <mxPoint x="3029.77" y="800" as="sourcePoint" />
            <mxPoint x="3029.77" y="760" as="targetPoint" />
          </mxGeometry>
        </mxCell>
        <mxCell id="NAErLDu9EUsSF60Birvs-5" style="rounded=0;orthogonalLoop=1;jettySize=auto;html=1;" parent="1" source="NAErLDu9EUsSF60Birvs-1" target="NAErLDu9EUsSF60Birvs-4" edge="1">
          <mxGeometry relative="1" as="geometry" />
        </mxCell>
        <mxCell id="NAErLDu9EUsSF60Birvs-1" value="Resource01" style="rounded=0;whiteSpace=wrap;html=1;" parent="1" vertex="1">
          <mxGeometry x="880" y="1010" width="80" height="30" as="geometry" />
        </mxCell>
        <mxCell id="NAErLDu9EUsSF60Birvs-2" value="Resource02" style="rounded=0;whiteSpace=wrap;html=1;" parent="1" vertex="1">
          <mxGeometry x="880" y="1130" width="80" height="30" as="geometry" />
        </mxCell>
        <mxCell id="NAErLDu9EUsSF60Birvs-3" value="Process01" style="ellipse;whiteSpace=wrap;html=1;" parent="1" vertex="1">
          <mxGeometry x="759.5" y="1060" width="75" height="50" as="geometry" />
        </mxCell>
        <mxCell id="NAErLDu9EUsSF60Birvs-4" value="Process02" style="ellipse;whiteSpace=wrap;html=1;" parent="1" vertex="1">
          <mxGeometry x="1010" y="1060" width="75" height="50" as="geometry" />
        </mxCell>
        <mxCell id="NAErLDu9EUsSF60Birvs-6" style="rounded=0;orthogonalLoop=1;jettySize=auto;html=1;exitX=-0.037;exitY=0.6;exitDx=0;exitDy=0;exitPerimeter=0;entryX=0.863;entryY=0.8;entryDx=0;entryDy=0;entryPerimeter=0;" parent="1" source="NAErLDu9EUsSF60Birvs-2" target="NAErLDu9EUsSF60Birvs-3" edge="1">
          <mxGeometry relative="1" as="geometry">
            <mxPoint x="962" y="1050" as="sourcePoint" />
            <mxPoint x="880" y="1080" as="targetPoint" />
          </mxGeometry>
        </mxCell>
        <mxCell id="NAErLDu9EUsSF60Birvs-7" value="持有" style="text;html=1;align=center;verticalAlign=middle;resizable=0;points=[];autosize=1;strokeColor=none;fillColor=none;" parent="1" vertex="1">
          <mxGeometry x="810" y="1120" width="50" height="30" as="geometry" />
        </mxCell>
        <mxCell id="NAErLDu9EUsSF60Birvs-8" value="持有" style="text;html=1;align=center;verticalAlign=middle;resizable=0;points=[];autosize=1;strokeColor=none;fillColor=none;" parent="1" vertex="1">
          <mxGeometry x="970" y="1030" width="50" height="30" as="geometry" />
        </mxCell>
        <mxCell id="NAErLDu9EUsSF60Birvs-10" style="rounded=0;orthogonalLoop=1;jettySize=auto;html=1;exitX=0.911;exitY=0.272;exitDx=0;exitDy=0;exitPerimeter=0;entryX=0.208;entryY=1.093;entryDx=0;entryDy=0;entryPerimeter=0;" parent="1" source="NAErLDu9EUsSF60Birvs-3" target="NAErLDu9EUsSF60Birvs-1" edge="1">
          <mxGeometry relative="1" as="geometry">
            <mxPoint x="887" y="1158" as="sourcePoint" />
            <mxPoint x="834" y="1110" as="targetPoint" />
          </mxGeometry>
        </mxCell>
        <mxCell id="NAErLDu9EUsSF60Birvs-11" style="rounded=0;orthogonalLoop=1;jettySize=auto;html=1;exitX=1.018;exitY=0.613;exitDx=0;exitDy=0;exitPerimeter=0;entryX=0.109;entryY=0.744;entryDx=0;entryDy=0;entryPerimeter=0;" parent="1" source="NAErLDu9EUsSF60Birvs-2" target="NAErLDu9EUsSF60Birvs-4" edge="1">
          <mxGeometry relative="1" as="geometry">
            <mxPoint x="958" y="1147.5" as="sourcePoint" />
            <mxPoint x="1010" y="1098.5" as="targetPoint" />
          </mxGeometry>
        </mxCell>
        <mxCell id="NAErLDu9EUsSF60Birvs-12" value="需要&lt;span style=&quot;font-family: monospace; font-size: 0px; text-align: start;&quot;&gt;%3CmxGraphModel%3E%3Croot%3E%3CmxCell%20id%3D%220%22%2F%3E%3CmxCell%20id%3D%221%22%20parent%3D%220%22%2F%3E%3CmxCell%20id%3D%222%22%20value%3D%22%E6%8C%81%E6%9C%89%22%20style%3D%22text%3Bhtml%3D1%3Balign%3Dcenter%3BverticalAlign%3Dmiddle%3Bresizable%3D0%3Bpoints%3D%5B%5D%3Bautosize%3D1%3BstrokeColor%3Dnone%3BfillColor%3Dnone%3B%22%20vertex%3D%221%22%20parent%3D%221%22%3E%3CmxGeometry%20x%3D%22810%22%20y%3D%221120%22%20width%3D%2250%22%20height%3D%2230%22%20as%3D%22geometry%22%2F%3E%3C%2FmxCell%3E%3C%2Froot%3E%3C%2FmxGraphModel%3E&lt;/span&gt;" style="text;html=1;align=center;verticalAlign=middle;resizable=0;points=[];autosize=1;strokeColor=none;fillColor=none;" parent="1" vertex="1">
          <mxGeometry x="820" y="1030" width="50" height="30" as="geometry" />
        </mxCell>
        <mxCell id="NAErLDu9EUsSF60Birvs-13" value="需要&lt;span style=&quot;font-family: monospace; font-size: 0px; text-align: start;&quot;&gt;%3CmxGraphModel%3E%3Croot%3E%3CmxCell%20id%3D%220%22%2F%3E%3CmxCell%20id%3D%221%22%20parent%3D%220%22%2F%3E%3CmxCell%20id%3D%222%22%20value%3D%22%E6%8C%81%E6%9C%89%22%20style%3D%22text%3Bhtml%3D1%3Balign%3Dcenter%3BverticalAlign%3Dmiddle%3Bresizable%3D0%3Bpoints%3D%5B%5D%3Bautosize%3D1%3BstrokeColor%3Dnone%3BfillColor%3Dnone%3B%22%20vertex%3D%221%22%20parent%3D%221%22%3E%3CmxGeometry%20x%3D%22810%22%20y%3D%221120%22%20width%3D%2250%22%20height%3D%2230%22%20as%3D%22geometry%22%2F%3E%3C%2FmxCell%3E%3C%2Froot%3E%3C%2FmxGraphModel%3E&lt;/span&gt;" style="text;html=1;align=center;verticalAlign=middle;resizable=0;points=[];autosize=1;strokeColor=none;fillColor=none;" parent="1" vertex="1">
          <mxGeometry x="980" y="1120" width="50" height="30" as="geometry" />
        </mxCell>
        <mxCell id="NAErLDu9EUsSF60Birvs-19" style="edgeStyle=orthogonalEdgeStyle;rounded=0;orthogonalLoop=1;jettySize=auto;html=1;entryX=0;entryY=0.5;entryDx=0;entryDy=0;" parent="1" source="NAErLDu9EUsSF60Birvs-14" target="NAErLDu9EUsSF60Birvs-15" edge="1">
          <mxGeometry relative="1" as="geometry" />
        </mxCell>
        <mxCell id="NAErLDu9EUsSF60Birvs-14" value="Process01" style="ellipse;whiteSpace=wrap;html=1;" parent="1" vertex="1">
          <mxGeometry x="1220" y="1050" width="70" height="40" as="geometry" />
        </mxCell>
        <mxCell id="NAErLDu9EUsSF60Birvs-20" style="edgeStyle=orthogonalEdgeStyle;rounded=0;orthogonalLoop=1;jettySize=auto;html=1;entryX=0;entryY=0.5;entryDx=0;entryDy=0;" parent="1" source="NAErLDu9EUsSF60Birvs-15" target="NAErLDu9EUsSF60Birvs-16" edge="1">
          <mxGeometry relative="1" as="geometry" />
        </mxCell>
        <mxCell id="NAErLDu9EUsSF60Birvs-15" value="Process02" style="ellipse;whiteSpace=wrap;html=1;" parent="1" vertex="1">
          <mxGeometry x="1330" y="1050" width="70" height="40" as="geometry" />
        </mxCell>
        <mxCell id="NAErLDu9EUsSF60Birvs-21" style="edgeStyle=orthogonalEdgeStyle;rounded=0;orthogonalLoop=1;jettySize=auto;html=1;entryX=0;entryY=0.5;entryDx=0;entryDy=0;" parent="1" source="NAErLDu9EUsSF60Birvs-16" target="NAErLDu9EUsSF60Birvs-17" edge="1">
          <mxGeometry relative="1" as="geometry" />
        </mxCell>
        <mxCell id="NAErLDu9EUsSF60Birvs-16" value="Process03" style="ellipse;whiteSpace=wrap;html=1;" parent="1" vertex="1">
          <mxGeometry x="1440" y="1050" width="70" height="40" as="geometry" />
        </mxCell>
        <mxCell id="NAErLDu9EUsSF60Birvs-22" style="edgeStyle=orthogonalEdgeStyle;rounded=0;orthogonalLoop=1;jettySize=auto;html=1;" parent="1" source="NAErLDu9EUsSF60Birvs-17" target="NAErLDu9EUsSF60Birvs-18" edge="1">
          <mxGeometry relative="1" as="geometry" />
        </mxCell>
        <mxCell id="NAErLDu9EUsSF60Birvs-17" value="Process04" style="ellipse;whiteSpace=wrap;html=1;" parent="1" vertex="1">
          <mxGeometry x="1550" y="1050" width="70" height="40" as="geometry" />
        </mxCell>
        <mxCell id="NAErLDu9EUsSF60Birvs-18" value="Process_n" style="ellipse;whiteSpace=wrap;html=1;" parent="1" vertex="1">
          <mxGeometry x="1660" y="1050" width="70" height="40" as="geometry" />
        </mxCell>
        <mxCell id="NAErLDu9EUsSF60Birvs-23" style="edgeStyle=orthogonalEdgeStyle;rounded=0;orthogonalLoop=1;jettySize=auto;html=1;entryX=0.466;entryY=1.02;entryDx=0;entryDy=0;entryPerimeter=0;" parent="1" source="NAErLDu9EUsSF60Birvs-18" target="NAErLDu9EUsSF60Birvs-14" edge="1">
          <mxGeometry relative="1" as="geometry">
            <Array as="points">
              <mxPoint x="1695" y="1140" />
              <mxPoint x="1253" y="1140" />
            </Array>
          </mxGeometry>
        </mxCell>
        <mxCell id="r5_QPQPG7vpH5ulobvpo-2" value="unsafe" style="rounded=0;whiteSpace=wrap;html=1;verticalAlign=top;fillColor=#dae8fc;strokeColor=#6c8ebf;" parent="1" vertex="1">
          <mxGeometry x="1500" y="360" width="350" height="60" as="geometry" />
        </mxCell>
        <mxCell id="r5_QPQPG7vpH5ulobvpo-1" value="dead lock" style="rounded=0;whiteSpace=wrap;html=1;" parent="1" vertex="1">
          <mxGeometry x="1470" y="375" width="80" height="20" as="geometry" />
        </mxCell>
        <mxCell id="r5_QPQPG7vpH5ulobvpo-3" value="safe" style="rounded=0;whiteSpace=wrap;html=1;verticalAlign=top;fillColor=#bac8d3;strokeColor=#23445d;" parent="1" vertex="1">
          <mxGeometry x="1500" y="420" width="350" height="60" as="geometry" />
        </mxCell>
        <mxCell id="r5_QPQPG7vpH5ulobvpo-4" value="不一定會有死結&lt;div&gt;(只要是unsafe就不予配置，縱使系統還不會dead lock)&lt;/div&gt;" style="text;html=1;align=center;verticalAlign=middle;resizable=0;points=[];autosize=1;strokeColor=none;fillColor=none;" parent="1" vertex="1">
          <mxGeometry x="1540" y="380" width="310" height="40" as="geometry" />
        </mxCell>
        <mxCell id="r5_QPQPG7vpH5ulobvpo-5" value="一定不會有死結" style="text;html=1;align=center;verticalAlign=middle;resizable=0;points=[];autosize=1;strokeColor=none;fillColor=none;fontColor=#FF0000;" parent="1" vertex="1">
          <mxGeometry x="1620" y="445" width="110" height="30" as="geometry" />
        </mxCell>
        <mxCell id="r5_QPQPG7vpH5ulobvpo-6" value="有兩個processA、B，共享變數count&#xa;count值目前為5，若A+1，B-1，則會有以下順序" style="text;whiteSpace=wrap;" parent="1" vertex="1">
          <mxGeometry x="2311" y="280" width="365" height="40" as="geometry" />
        </mxCell>
        <mxCell id="r5_QPQPG7vpH5ulobvpo-7" value="count" style="rounded=0;whiteSpace=wrap;html=1;" parent="1" vertex="1">
          <mxGeometry x="2390" y="330" width="59" height="100" as="geometry" />
        </mxCell>
        <mxCell id="r5_QPQPG7vpH5ulobvpo-8" value="A" style="rounded=0;whiteSpace=wrap;html=1;" parent="1" vertex="1">
          <mxGeometry x="2311" y="370" width="19" height="20" as="geometry" />
        </mxCell>
        <mxCell id="r5_QPQPG7vpH5ulobvpo-9" value="B" style="rounded=0;whiteSpace=wrap;html=1;" parent="1" vertex="1">
          <mxGeometry x="2495" y="370" width="19" height="20" as="geometry" />
        </mxCell>
        <mxCell id="r5_QPQPG7vpH5ulobvpo-10" value="" style="endArrow=classic;html=1;rounded=0;entryX=1;entryY=0;entryDx=0;entryDy=0;exitX=0;exitY=0.053;exitDx=0;exitDy=0;exitPerimeter=0;" parent="1" source="r5_QPQPG7vpH5ulobvpo-7" target="r5_QPQPG7vpH5ulobvpo-8" edge="1">
          <mxGeometry width="50" height="50" relative="1" as="geometry">
            <mxPoint x="2380" y="340" as="sourcePoint" />
            <mxPoint x="2330" y="360" as="targetPoint" />
          </mxGeometry>
        </mxCell>
        <mxCell id="r5_QPQPG7vpH5ulobvpo-11" value="" style="endArrow=classic;html=1;rounded=0;entryX=0.5;entryY=0;entryDx=0;entryDy=0;exitX=1.033;exitY=0.077;exitDx=0;exitDy=0;exitPerimeter=0;" parent="1" source="r5_QPQPG7vpH5ulobvpo-7" target="r5_QPQPG7vpH5ulobvpo-9" edge="1">
          <mxGeometry width="50" height="50" relative="1" as="geometry">
            <mxPoint x="2400" y="345" as="sourcePoint" />
            <mxPoint x="2340" y="380" as="targetPoint" />
          </mxGeometry>
        </mxCell>
        <mxCell id="r5_QPQPG7vpH5ulobvpo-12" value="" style="endArrow=classic;html=1;rounded=0;entryX=-0.008;entryY=0.934;entryDx=0;entryDy=0;exitX=1;exitY=1;exitDx=0;exitDy=0;entryPerimeter=0;" parent="1" source="r5_QPQPG7vpH5ulobvpo-8" target="r5_QPQPG7vpH5ulobvpo-7" edge="1">
          <mxGeometry width="50" height="50" relative="1" as="geometry">
            <mxPoint x="2410" y="355" as="sourcePoint" />
            <mxPoint x="2350" y="390" as="targetPoint" />
          </mxGeometry>
        </mxCell>
        <mxCell id="r5_QPQPG7vpH5ulobvpo-13" value="" style="endArrow=classic;html=1;rounded=0;entryX=0.985;entryY=0.92;entryDx=0;entryDy=0;exitX=0;exitY=1;exitDx=0;exitDy=0;entryPerimeter=0;" parent="1" source="r5_QPQPG7vpH5ulobvpo-9" target="r5_QPQPG7vpH5ulobvpo-7" edge="1">
          <mxGeometry width="50" height="50" relative="1" as="geometry">
            <mxPoint x="2420" y="365" as="sourcePoint" />
            <mxPoint x="2360" y="400" as="targetPoint" />
          </mxGeometry>
        </mxCell>
        <mxCell id="r5_QPQPG7vpH5ulobvpo-14" value="T1" style="text;html=1;align=center;verticalAlign=middle;resizable=0;points=[];autosize=1;strokeColor=none;fillColor=none;" parent="1" vertex="1">
          <mxGeometry x="2325" y="330" width="40" height="30" as="geometry" />
        </mxCell>
        <mxCell id="r5_QPQPG7vpH5ulobvpo-15" value="T2" style="text;html=1;align=center;verticalAlign=middle;resizable=0;points=[];autosize=1;strokeColor=none;fillColor=none;" parent="1" vertex="1">
          <mxGeometry x="2461" y="330" width="40" height="30" as="geometry" />
        </mxCell>
        <mxCell id="r5_QPQPG7vpH5ulobvpo-16" value="T3" style="text;html=1;align=center;verticalAlign=middle;resizable=0;points=[];autosize=1;strokeColor=none;fillColor=none;" parent="1" vertex="1">
          <mxGeometry x="2325" y="400" width="40" height="30" as="geometry" />
        </mxCell>
        <mxCell id="r5_QPQPG7vpH5ulobvpo-17" value="T4" style="text;html=1;align=center;verticalAlign=middle;resizable=0;points=[];autosize=1;strokeColor=none;fillColor=none;" parent="1" vertex="1">
          <mxGeometry x="2461" y="400" width="40" height="30" as="geometry" />
        </mxCell>
        <mxCell id="r5_QPQPG7vpH5ulobvpo-18" value="所使用之資料結構(假設目前有n個process與m種類型的資源)&lt;div&gt;Requesti [1...m]&lt;/div&gt;" style="text;html=1;align=left;verticalAlign=middle;resizable=0;points=[];autosize=1;strokeColor=none;fillColor=none;" parent="1" vertex="1">
          <mxGeometry x="1860" y="913" width="340" height="40" as="geometry" />
        </mxCell>
        <mxCell id="4zrVuivBFEW3VMbgFLRq-1" value="Process01" style="text;html=1;align=center;verticalAlign=middle;whiteSpace=wrap;rounded=0;" parent="1" vertex="1">
          <mxGeometry x="2720" y="340" width="60" height="30" as="geometry" />
        </mxCell>
        <mxCell id="4zrVuivBFEW3VMbgFLRq-2" value="Process02" style="text;html=1;align=center;verticalAlign=middle;whiteSpace=wrap;rounded=0;" parent="1" vertex="1">
          <mxGeometry x="2855" y="340" width="60" height="30" as="geometry" />
        </mxCell>
        <mxCell id="4zrVuivBFEW3VMbgFLRq-3" value="count+=1" style="text;html=1;align=center;verticalAlign=middle;whiteSpace=wrap;rounded=0;" parent="1" vertex="1">
          <mxGeometry x="2720" y="400" width="60" height="30" as="geometry" />
        </mxCell>
        <mxCell id="4zrVuivBFEW3VMbgFLRq-4" value="count-=1" style="text;html=1;align=center;verticalAlign=middle;whiteSpace=wrap;rounded=0;" parent="1" vertex="1">
          <mxGeometry x="2855" y="395" width="60" height="30" as="geometry" />
        </mxCell>
        <mxCell id="4zrVuivBFEW3VMbgFLRq-5" value="disable interrupt" style="text;html=1;align=center;verticalAlign=middle;whiteSpace=wrap;rounded=0;fontColor=#FF0000;" parent="1" vertex="1">
          <mxGeometry x="2700" y="375" width="90" height="30" as="geometry" />
        </mxCell>
        <mxCell id="4zrVuivBFEW3VMbgFLRq-6" value="disable interrupt" style="text;html=1;align=center;verticalAlign=middle;whiteSpace=wrap;rounded=0;fontColor=#FF0000;" parent="1" vertex="1">
          <mxGeometry x="2845" y="420" width="90" height="30" as="geometry" />
        </mxCell>
        <mxCell id="4zrVuivBFEW3VMbgFLRq-7" value="enable interrupt" style="text;html=1;align=center;verticalAlign=middle;whiteSpace=wrap;rounded=0;fontColor=#FF0000;" parent="1" vertex="1">
          <mxGeometry x="2700" y="420" width="90" height="30" as="geometry" />
        </mxCell>
        <mxCell id="4zrVuivBFEW3VMbgFLRq-8" value="enable interrupt" style="text;html=1;align=center;verticalAlign=middle;whiteSpace=wrap;rounded=0;fontColor=#FF0000;" parent="1" vertex="1">
          <mxGeometry x="2840" y="375" width="90" height="30" as="geometry" />
        </mxCell>
        <mxCell id="4zrVuivBFEW3VMbgFLRq-10" value="Process01" style="text;html=1;align=center;verticalAlign=middle;whiteSpace=wrap;rounded=0;" parent="1" vertex="1">
          <mxGeometry x="3020" y="340" width="60" height="30" as="geometry" />
        </mxCell>
        <mxCell id="4zrVuivBFEW3VMbgFLRq-11" value="Process02" style="text;html=1;align=center;verticalAlign=middle;whiteSpace=wrap;rounded=0;" parent="1" vertex="1">
          <mxGeometry x="3180" y="340" width="60" height="30" as="geometry" />
        </mxCell>
        <mxCell id="4zrVuivBFEW3VMbgFLRq-12" value="count+=1" style="text;html=1;align=center;verticalAlign=middle;whiteSpace=wrap;rounded=0;fillColor=#f8cecc;strokeColor=#b85450;" parent="1" vertex="1">
          <mxGeometry x="3020" y="400" width="60" height="30" as="geometry" />
        </mxCell>
        <mxCell id="4zrVuivBFEW3VMbgFLRq-13" value="count-=1" style="text;html=1;align=center;verticalAlign=middle;whiteSpace=wrap;rounded=0;fillColor=#f8cecc;strokeColor=#b85450;" parent="1" vertex="1">
          <mxGeometry x="3180" y="400" width="60" height="30" as="geometry" />
        </mxCell>
        <mxCell id="4zrVuivBFEW3VMbgFLRq-14" value="" style="text;html=1;align=center;verticalAlign=middle;whiteSpace=wrap;rounded=0;fillColor=#d5e8d4;strokeColor=#82b366;" parent="1" vertex="1">
          <mxGeometry x="3020" y="365" width="60" height="30" as="geometry" />
        </mxCell>
        <mxCell id="4zrVuivBFEW3VMbgFLRq-15" value="" style="text;html=1;align=center;verticalAlign=middle;whiteSpace=wrap;rounded=0;fillColor=#d5e8d4;strokeColor=#82b366;" parent="1" vertex="1">
          <mxGeometry x="3180" y="365" width="60" height="30" as="geometry" />
        </mxCell>
        <mxCell id="4zrVuivBFEW3VMbgFLRq-16" value="" style="text;html=1;align=center;verticalAlign=middle;whiteSpace=wrap;rounded=0;fillColor=#d5e8d4;strokeColor=#82b366;" parent="1" vertex="1">
          <mxGeometry x="3020" y="435" width="60" height="30" as="geometry" />
        </mxCell>
        <mxCell id="4zrVuivBFEW3VMbgFLRq-17" value="" style="text;html=1;align=center;verticalAlign=middle;whiteSpace=wrap;rounded=0;fillColor=#d5e8d4;strokeColor=#82b366;" parent="1" vertex="1">
          <mxGeometry x="3180" y="435" width="60" height="30" as="geometry" />
        </mxCell>
        <mxCell id="4zrVuivBFEW3VMbgFLRq-18" value="critical section" style="text;whiteSpace=wrap;" parent="1" vertex="1">
          <mxGeometry x="3090" y="400" width="110" height="40" as="geometry" />
        </mxCell>
        <mxCell id="4zrVuivBFEW3VMbgFLRq-19" value="remainder section：非critical section之指令集合" style="text;whiteSpace=wrap;" parent="1" vertex="1">
          <mxGeometry x="3010" y="365" width="270" height="40" as="geometry" />
        </mxCell>
        <mxCell id="4zrVuivBFEW3VMbgFLRq-30" value="Process01" style="text;html=1;align=center;verticalAlign=middle;whiteSpace=wrap;rounded=0;" parent="1" vertex="1">
          <mxGeometry x="3310" y="340" width="60" height="30" as="geometry" />
        </mxCell>
        <mxCell id="4zrVuivBFEW3VMbgFLRq-31" value="Process02" style="text;html=1;align=center;verticalAlign=middle;whiteSpace=wrap;rounded=0;" parent="1" vertex="1">
          <mxGeometry x="3390" y="340" width="60" height="30" as="geometry" />
        </mxCell>
        <mxCell id="4zrVuivBFEW3VMbgFLRq-32" value="count+=1" style="text;html=1;align=center;verticalAlign=middle;whiteSpace=wrap;rounded=0;fillColor=#f8cecc;strokeColor=#b85450;" parent="1" vertex="1">
          <mxGeometry x="3310" y="400" width="60" height="30" as="geometry" />
        </mxCell>
        <mxCell id="4zrVuivBFEW3VMbgFLRq-33" value="count-=1" style="text;html=1;align=center;verticalAlign=middle;whiteSpace=wrap;rounded=0;fillColor=#f8cecc;strokeColor=#b85450;" parent="1" vertex="1">
          <mxGeometry x="3390" y="400" width="60" height="30" as="geometry" />
        </mxCell>
        <mxCell id="4zrVuivBFEW3VMbgFLRq-34" value="" style="text;html=1;align=center;verticalAlign=middle;whiteSpace=wrap;rounded=0;fillColor=#d5e8d4;strokeColor=#82b366;" parent="1" vertex="1">
          <mxGeometry x="3310" y="365" width="60" height="30" as="geometry" />
        </mxCell>
        <mxCell id="4zrVuivBFEW3VMbgFLRq-35" value="" style="text;html=1;align=center;verticalAlign=middle;whiteSpace=wrap;rounded=0;fillColor=#d5e8d4;strokeColor=#82b366;" parent="1" vertex="1">
          <mxGeometry x="3390" y="365" width="60" height="30" as="geometry" />
        </mxCell>
        <mxCell id="4zrVuivBFEW3VMbgFLRq-36" value="" style="text;html=1;align=center;verticalAlign=middle;whiteSpace=wrap;rounded=0;fillColor=#d5e8d4;strokeColor=#82b366;" parent="1" vertex="1">
          <mxGeometry x="3310" y="435" width="60" height="30" as="geometry" />
        </mxCell>
        <mxCell id="4zrVuivBFEW3VMbgFLRq-37" value="" style="text;html=1;align=center;verticalAlign=middle;whiteSpace=wrap;rounded=0;fillColor=#d5e8d4;strokeColor=#82b366;" parent="1" vertex="1">
          <mxGeometry x="3390" y="435" width="60" height="30" as="geometry" />
        </mxCell>
        <mxCell id="4zrVuivBFEW3VMbgFLRq-40" value="" style="endArrow=classic;html=1;rounded=0;entryX=0.767;entryY=-0.089;entryDx=0;entryDy=0;entryPerimeter=0;exitX=0.75;exitY=0;exitDx=0;exitDy=0;" parent="1" source="4zrVuivBFEW3VMbgFLRq-34" target="4zrVuivBFEW3VMbgFLRq-32" edge="1">
          <mxGeometry width="50" height="50" relative="1" as="geometry">
            <mxPoint x="3270" y="480" as="sourcePoint" />
            <mxPoint x="3320" y="430" as="targetPoint" />
          </mxGeometry>
        </mxCell>
        <mxCell id="4zrVuivBFEW3VMbgFLRq-41" value="01" style="edgeLabel;html=1;align=center;verticalAlign=middle;resizable=0;points=[];" parent="4zrVuivBFEW3VMbgFLRq-40" vertex="1" connectable="0">
          <mxGeometry x="0.0637" y="-1" relative="1" as="geometry">
            <mxPoint y="-2" as="offset" />
          </mxGeometry>
        </mxCell>
        <mxCell id="4zrVuivBFEW3VMbgFLRq-42" value="" style="endArrow=classic;html=1;rounded=0;entryX=0.767;entryY=-0.089;entryDx=0;entryDy=0;entryPerimeter=0;exitX=0.75;exitY=0;exitDx=0;exitDy=0;" parent="1" edge="1">
          <mxGeometry width="50" height="50" relative="1" as="geometry">
            <mxPoint x="3430" y="363" as="sourcePoint" />
            <mxPoint x="3431" y="395" as="targetPoint" />
          </mxGeometry>
        </mxCell>
        <mxCell id="4zrVuivBFEW3VMbgFLRq-46" value="02" style="edgeLabel;html=1;align=center;verticalAlign=middle;resizable=0;points=[];" parent="4zrVuivBFEW3VMbgFLRq-42" vertex="1" connectable="0">
          <mxGeometry x="-0.0249" y="1" relative="1" as="geometry">
            <mxPoint as="offset" />
          </mxGeometry>
        </mxCell>
        <mxCell id="4zrVuivBFEW3VMbgFLRq-47" value="因為process01進去了&lt;br&gt;busy waiting" style="text;html=1;align=center;verticalAlign=middle;whiteSpace=wrap;rounded=0;fontColor=#FF0000;" parent="1" vertex="1">
          <mxGeometry x="3450" y="365" width="120" height="30" as="geometry" />
        </mxCell>
        <mxCell id="4zrVuivBFEW3VMbgFLRq-48" value="" style="endArrow=classic;html=1;rounded=0;entryX=0.767;entryY=-0.089;entryDx=0;entryDy=0;entryPerimeter=0;exitX=0.75;exitY=0;exitDx=0;exitDy=0;" parent="1" edge="1">
          <mxGeometry width="50" height="50" relative="1" as="geometry">
            <mxPoint x="3350" y="430" as="sourcePoint" />
            <mxPoint x="3351" y="462" as="targetPoint" />
          </mxGeometry>
        </mxCell>
        <mxCell id="4zrVuivBFEW3VMbgFLRq-52" value="03" style="edgeLabel;html=1;align=center;verticalAlign=middle;resizable=0;points=[];" parent="4zrVuivBFEW3VMbgFLRq-48" vertex="1" connectable="0">
          <mxGeometry x="-0.1773" y="-1" relative="1" as="geometry">
            <mxPoint as="offset" />
          </mxGeometry>
        </mxCell>
        <mxCell id="4zrVuivBFEW3VMbgFLRq-53" value="" style="endArrow=classic;html=1;rounded=0;entryX=0.767;entryY=-0.089;entryDx=0;entryDy=0;entryPerimeter=0;exitX=0.75;exitY=0;exitDx=0;exitDy=0;" parent="1" edge="1">
          <mxGeometry width="50" height="50" relative="1" as="geometry">
            <mxPoint x="3390" y="388" as="sourcePoint" />
            <mxPoint x="3391" y="420" as="targetPoint" />
          </mxGeometry>
        </mxCell>
        <mxCell id="4zrVuivBFEW3VMbgFLRq-55" value="04" style="edgeLabel;html=1;align=center;verticalAlign=middle;resizable=0;points=[];" parent="4zrVuivBFEW3VMbgFLRq-53" vertex="1" connectable="0">
          <mxGeometry x="-0.2276" relative="1" as="geometry">
            <mxPoint as="offset" />
          </mxGeometry>
        </mxCell>
        <mxCell id="RWDBVJnFx9APnkcbTvSb-1" value="hardware" style="rounded=0;whiteSpace=wrap;html=1;fontFamily=Times New Roman;" parent="1" vertex="1">
          <mxGeometry x="140" y="1390" width="290" height="30" as="geometry" />
        </mxCell>
        <mxCell id="RWDBVJnFx9APnkcbTvSb-2" value="process management&lt;div&gt;memory management&lt;/div&gt;&lt;div&gt;communication&lt;/div&gt;&lt;div&gt;IO&lt;/div&gt;&lt;div&gt;protection&lt;/div&gt;" style="rounded=0;whiteSpace=wrap;html=1;fontFamily=Times New Roman;" parent="1" vertex="1">
          <mxGeometry x="140" y="1300" width="290" height="90" as="geometry" />
        </mxCell>
        <mxCell id="RWDBVJnFx9APnkcbTvSb-3" value="kernal&lt;div&gt;OS重要服務元件集合&lt;/div&gt;" style="text;html=1;align=left;verticalAlign=middle;resizable=0;points=[];autosize=1;strokeColor=none;fillColor=none;fontFamily=Times New Roman;" parent="1" vertex="1">
          <mxGeometry x="440" y="1340" width="130" height="40" as="geometry" />
        </mxCell>
        <mxCell id="RWDBVJnFx9APnkcbTvSb-4" value="command interpreter" style="rounded=0;whiteSpace=wrap;html=1;fontFamily=Times New Roman;" parent="1" vertex="1">
          <mxGeometry x="140" y="1270" width="150" height="30" as="geometry" />
        </mxCell>
        <mxCell id="RWDBVJnFx9APnkcbTvSb-5" value="system call" style="rounded=0;whiteSpace=wrap;html=1;fontFamily=Times New Roman;" parent="1" vertex="1">
          <mxGeometry x="290" y="1270" width="140" height="30" as="geometry" />
        </mxCell>
        <mxCell id="RWDBVJnFx9APnkcbTvSb-6" value="OS的user interface" style="text;html=1;align=left;verticalAlign=middle;resizable=0;points=[];autosize=1;strokeColor=none;fillColor=none;fontFamily=Times New Roman;" parent="1" vertex="1">
          <mxGeometry x="440" y="1270" width="120" height="30" as="geometry" />
        </mxCell>
        <mxCell id="RWDBVJnFx9APnkcbTvSb-8" value="" style="endArrow=classic;startArrow=classic;html=1;rounded=0;fontFamily=Times New Roman;" parent="1" edge="1">
          <mxGeometry width="50" height="50" relative="1" as="geometry">
            <mxPoint x="130" y="1390" as="sourcePoint" />
            <mxPoint x="130" y="1270" as="targetPoint" />
          </mxGeometry>
        </mxCell>
        <mxCell id="RWDBVJnFx9APnkcbTvSb-9" value="OS" style="text;html=1;align=left;verticalAlign=middle;resizable=0;points=[];autosize=1;strokeColor=none;fillColor=none;fontFamily=Times New Roman;" parent="1" vertex="1">
          <mxGeometry x="101" y="1320" width="40" height="30" as="geometry" />
        </mxCell>
        <mxCell id="RWDBVJnFx9APnkcbTvSb-13" style="edgeStyle=orthogonalEdgeStyle;rounded=0;orthogonalLoop=1;jettySize=auto;html=1;entryX=0.5;entryY=0;entryDx=0;entryDy=0;fontFamily=Times New Roman;" parent="1" source="RWDBVJnFx9APnkcbTvSb-11" target="RWDBVJnFx9APnkcbTvSb-4" edge="1">
          <mxGeometry relative="1" as="geometry" />
        </mxCell>
        <mxCell id="RWDBVJnFx9APnkcbTvSb-11" value="user" style="rounded=1;whiteSpace=wrap;html=1;fontFamily=Times New Roman;" parent="1" vertex="1">
          <mxGeometry x="175" y="1180" width="80" height="31" as="geometry" />
        </mxCell>
        <mxCell id="RWDBVJnFx9APnkcbTvSb-15" style="edgeStyle=orthogonalEdgeStyle;rounded=0;orthogonalLoop=1;jettySize=auto;html=1;fontFamily=Times New Roman;" parent="1" source="RWDBVJnFx9APnkcbTvSb-12" target="RWDBVJnFx9APnkcbTvSb-5" edge="1">
          <mxGeometry relative="1" as="geometry" />
        </mxCell>
        <mxCell id="RWDBVJnFx9APnkcbTvSb-12" value="user programs" style="rounded=1;whiteSpace=wrap;html=1;fontFamily=Times New Roman;" parent="1" vertex="1">
          <mxGeometry x="311" y="1180" width="99" height="29" as="geometry" />
        </mxCell>
        <mxCell id="RWDBVJnFx9APnkcbTvSb-16" value="命令、結果" style="text;html=1;align=center;verticalAlign=middle;resizable=0;points=[];autosize=1;strokeColor=none;fillColor=none;fontFamily=Times New Roman;" parent="1" vertex="1">
          <mxGeometry x="173" y="1228" width="80" height="30" as="geometry" />
        </mxCell>
        <mxCell id="RWDBVJnFx9APnkcbTvSb-17" value="服務請求" style="text;html=1;align=center;verticalAlign=middle;resizable=0;points=[];autosize=1;strokeColor=none;fillColor=none;fontFamily=Times New Roman;" parent="1" vertex="1">
          <mxGeometry x="324" y="1220" width="70" height="30" as="geometry" />
        </mxCell>
        <mxCell id="RWDBVJnFx9APnkcbTvSb-19" value="p01" style="rounded=1;whiteSpace=wrap;html=1;fontFamily=Times New Roman;" parent="1" vertex="1">
          <mxGeometry x="730" y="1280" width="39" height="29" as="geometry" />
        </mxCell>
        <mxCell id="RWDBVJnFx9APnkcbTvSb-20" value="p02" style="rounded=1;whiteSpace=wrap;html=1;fontFamily=Times New Roman;" parent="1" vertex="1">
          <mxGeometry x="781" y="1280" width="39" height="29" as="geometry" />
        </mxCell>
        <mxCell id="RWDBVJnFx9APnkcbTvSb-21" value="p0&lt;span style=&quot;font-size: 0px; text-align: start; text-wrap: nowrap;&quot;&gt;%3CmxGraphModel%3E%3Croot%3E%3CmxCell%20id%3D%220%22%2F%3E%3CmxCell%20id%3D%221%22%20parent%3D%220%22%2F%3E%3CmxCell%20id%3D%222%22%20value%3D%22p02%22%20style%3D%22rounded%3D1%3BwhiteSpace%3Dwrap%3Bhtml%3D1%3BfontFamily%3DTimes%20New%20Roman%3B%22%20vertex%3D%221%22%20parent%3D%221%22%3E%3CmxGeometry%20x%3D%22751%22%20y%3D%221280%22%20width%3D%2239%22%20height%3D%2229%22%20as%3D%22geometry%22%2F%3E%3C%2FmxCell%3E%3C%2Froot%3E%3C%2FmxGraphModel%3E&lt;/span&gt;3" style="rounded=1;whiteSpace=wrap;html=1;fontFamily=Times New Roman;" parent="1" vertex="1">
          <mxGeometry x="831" y="1280" width="39" height="29" as="geometry" />
        </mxCell>
        <mxCell id="RWDBVJnFx9APnkcbTvSb-22" value="p04" style="rounded=1;whiteSpace=wrap;html=1;fontFamily=Times New Roman;" parent="1" vertex="1">
          <mxGeometry x="880" y="1280" width="39" height="29" as="geometry" />
        </mxCell>
        <mxCell id="RWDBVJnFx9APnkcbTvSb-23" value="p05&lt;span style=&quot;font-size: 0px; text-align: start; text-wrap: nowrap;&quot;&gt;%3CmxGraphModel%3E%3Croot%3E%3CmxCell%20id%3D%220%22%2F%3E%3CmxCell%20id%3D%221%22%20parent%3D%220%22%2F%3E%3CmxCell%20id%3D%222%22%20value%3D%22p02%22%20style%3D%22rounded%3D1%3BwhiteSpace%3Dwrap%3Bhtml%3D1%3BfontFamily%3DTimes%20New%20Roman%3B%22%20vertex%3D%221%22%20parent%3D%221%22%3E%3CmxGeometry%20x%3D%22751%22%20y%3D%221280%22%20width%3D%2239%22%20height%3D%2229%22%20as%3D%22geometry%22%2F%3E%3C%2FmxCell%3E%3C%2Froot%3E%3C%2FmxGraphModel%3E5&lt;/span&gt;" style="rounded=1;whiteSpace=wrap;html=1;fontFamily=Times New Roman;" parent="1" vertex="1">
          <mxGeometry x="931" y="1280" width="39" height="29" as="geometry" />
        </mxCell>
        <mxCell id="RWDBVJnFx9APnkcbTvSb-24" value="" style="rounded=0;whiteSpace=wrap;html=1;fontFamily=Times New Roman;" parent="1" vertex="1">
          <mxGeometry x="730.5" y="1309" width="240" height="151" as="geometry" />
        </mxCell>
        <mxCell id="RWDBVJnFx9APnkcbTvSb-25" value="" style="endArrow=classic;startArrow=classic;html=1;rounded=0;fontFamily=Times New Roman;" parent="1" edge="1">
          <mxGeometry width="50" height="50" relative="1" as="geometry">
            <mxPoint x="750" y="1340" as="sourcePoint" />
            <mxPoint x="750" y="1310" as="targetPoint" />
          </mxGeometry>
        </mxCell>
        <mxCell id="RWDBVJnFx9APnkcbTvSb-26" value="" style="endArrow=classic;startArrow=classic;html=1;rounded=0;fontFamily=Times New Roman;" parent="1" edge="1">
          <mxGeometry width="50" height="50" relative="1" as="geometry">
            <mxPoint x="800.27" y="1370" as="sourcePoint" />
            <mxPoint x="800.27" y="1340" as="targetPoint" />
          </mxGeometry>
        </mxCell>
        <mxCell id="RWDBVJnFx9APnkcbTvSb-27" value="" style="endArrow=classic;startArrow=classic;html=1;rounded=0;fontFamily=Times New Roman;" parent="1" edge="1">
          <mxGeometry width="50" height="50" relative="1" as="geometry">
            <mxPoint x="950" y="1430" as="sourcePoint" />
            <mxPoint x="950" y="1400" as="targetPoint" />
          </mxGeometry>
        </mxCell>
        <mxCell id="RWDBVJnFx9APnkcbTvSb-28" value="" style="endArrow=classic;startArrow=classic;html=1;rounded=0;fontFamily=Times New Roman;" parent="1" edge="1">
          <mxGeometry width="50" height="50" relative="1" as="geometry">
            <mxPoint x="845" y="1400" as="sourcePoint" />
            <mxPoint x="845" y="1370" as="targetPoint" />
          </mxGeometry>
        </mxCell>
        <mxCell id="RWDBVJnFx9APnkcbTvSb-29" value="" style="endArrow=classic;startArrow=classic;html=1;rounded=0;fontFamily=Times New Roman;" parent="1" edge="1">
          <mxGeometry width="50" height="50" relative="1" as="geometry">
            <mxPoint x="900" y="1460" as="sourcePoint" />
            <mxPoint x="900" y="1430" as="targetPoint" />
          </mxGeometry>
        </mxCell>
        <mxCell id="RWDBVJnFx9APnkcbTvSb-30" value="concurrent&lt;div&gt;以單位時間來看，一個時間點只會處裡一個process&lt;/div&gt;" style="text;html=1;align=center;verticalAlign=middle;resizable=0;points=[];autosize=1;strokeColor=none;fillColor=none;fontFamily=Times New Roman;" parent="1" vertex="1">
          <mxGeometry x="705.5" y="1470" width="290" height="40" as="geometry" />
        </mxCell>
        <mxCell id="RWDBVJnFx9APnkcbTvSb-31" value="p01" style="rounded=1;whiteSpace=wrap;html=1;fontFamily=Times New Roman;" parent="1" vertex="1">
          <mxGeometry x="990" y="1280" width="39" height="29" as="geometry" />
        </mxCell>
        <mxCell id="RWDBVJnFx9APnkcbTvSb-32" value="p02" style="rounded=1;whiteSpace=wrap;html=1;fontFamily=Times New Roman;" parent="1" vertex="1">
          <mxGeometry x="1041" y="1280" width="39" height="29" as="geometry" />
        </mxCell>
        <mxCell id="RWDBVJnFx9APnkcbTvSb-33" value="p0&lt;span style=&quot;font-size: 0px; text-align: start; text-wrap: nowrap;&quot;&gt;%3CmxGraphModel%3E%3Croot%3E%3CmxCell%20id%3D%220%22%2F%3E%3CmxCell%20id%3D%221%22%20parent%3D%220%22%2F%3E%3CmxCell%20id%3D%222%22%20value%3D%22p02%22%20style%3D%22rounded%3D1%3BwhiteSpace%3Dwrap%3Bhtml%3D1%3BfontFamily%3DTimes%20New%20Roman%3B%22%20vertex%3D%221%22%20parent%3D%221%22%3E%3CmxGeometry%20x%3D%22751%22%20y%3D%221280%22%20width%3D%2239%22%20height%3D%2229%22%20as%3D%22geometry%22%2F%3E%3C%2FmxCell%3E%3C%2Froot%3E%3C%2FmxGraphModel%3E&lt;/span&gt;3" style="rounded=1;whiteSpace=wrap;html=1;fontFamily=Times New Roman;" parent="1" vertex="1">
          <mxGeometry x="1091" y="1280" width="39" height="29" as="geometry" />
        </mxCell>
        <mxCell id="RWDBVJnFx9APnkcbTvSb-34" value="p04" style="rounded=1;whiteSpace=wrap;html=1;fontFamily=Times New Roman;" parent="1" vertex="1">
          <mxGeometry x="1140" y="1280" width="39" height="29" as="geometry" />
        </mxCell>
        <mxCell id="RWDBVJnFx9APnkcbTvSb-35" value="p05&lt;span style=&quot;font-size: 0px; text-align: start; text-wrap: nowrap;&quot;&gt;%3CmxGraphModel%3E%3Croot%3E%3CmxCell%20id%3D%220%22%2F%3E%3CmxCell%20id%3D%221%22%20parent%3D%220%22%2F%3E%3CmxCell%20id%3D%222%22%20value%3D%22p02%22%20style%3D%22rounded%3D1%3BwhiteSpace%3Dwrap%3Bhtml%3D1%3BfontFamily%3DTimes%20New%20Roman%3B%22%20vertex%3D%221%22%20parent%3D%221%22%3E%3CmxGeometry%20x%3D%22751%22%20y%3D%221280%22%20width%3D%2239%22%20height%3D%2229%22%20as%3D%22geometry%22%2F%3E%3C%2FmxCell%3E%3C%2Froot%3E%3C%2FmxGraphModel%3E5&lt;/span&gt;" style="rounded=1;whiteSpace=wrap;html=1;fontFamily=Times New Roman;" parent="1" vertex="1">
          <mxGeometry x="1191" y="1280" width="39" height="29" as="geometry" />
        </mxCell>
        <mxCell id="RWDBVJnFx9APnkcbTvSb-36" value="" style="rounded=0;whiteSpace=wrap;html=1;fontFamily=Times New Roman;" parent="1" vertex="1">
          <mxGeometry x="990" y="1309" width="240" height="151" as="geometry" />
        </mxCell>
        <mxCell id="RWDBVJnFx9APnkcbTvSb-37" value="" style="endArrow=classic;startArrow=classic;html=1;rounded=0;fontFamily=Times New Roman;" parent="1" edge="1">
          <mxGeometry width="50" height="50" relative="1" as="geometry">
            <mxPoint x="1010" y="1460" as="sourcePoint" />
            <mxPoint x="1010" y="1310" as="targetPoint" />
          </mxGeometry>
        </mxCell>
        <mxCell id="RWDBVJnFx9APnkcbTvSb-42" value="parallel&lt;div&gt;多個process同時執行&lt;/div&gt;" style="text;html=1;align=center;verticalAlign=middle;resizable=0;points=[];autosize=1;strokeColor=none;fillColor=none;fontFamily=Times New Roman;" parent="1" vertex="1">
          <mxGeometry x="1049" y="1470" width="130" height="40" as="geometry" />
        </mxCell>
        <mxCell id="RWDBVJnFx9APnkcbTvSb-43" value="" style="endArrow=classic;startArrow=classic;html=1;rounded=0;fontFamily=Times New Roman;" parent="1" edge="1">
          <mxGeometry width="50" height="50" relative="1" as="geometry">
            <mxPoint x="1060.27" y="1459" as="sourcePoint" />
            <mxPoint x="1060.27" y="1309" as="targetPoint" />
          </mxGeometry>
        </mxCell>
        <mxCell id="RWDBVJnFx9APnkcbTvSb-44" value="" style="endArrow=classic;startArrow=classic;html=1;rounded=0;fontFamily=Times New Roman;" parent="1" edge="1">
          <mxGeometry width="50" height="50" relative="1" as="geometry">
            <mxPoint x="1110.27" y="1460" as="sourcePoint" />
            <mxPoint x="1110.27" y="1310" as="targetPoint" />
          </mxGeometry>
        </mxCell>
        <mxCell id="RWDBVJnFx9APnkcbTvSb-45" value="" style="endArrow=classic;startArrow=classic;html=1;rounded=0;fontFamily=Times New Roman;" parent="1" edge="1">
          <mxGeometry width="50" height="50" relative="1" as="geometry">
            <mxPoint x="1159.27" y="1460" as="sourcePoint" />
            <mxPoint x="1159.27" y="1310" as="targetPoint" />
          </mxGeometry>
        </mxCell>
        <mxCell id="RWDBVJnFx9APnkcbTvSb-46" value="" style="endArrow=classic;startArrow=classic;html=1;rounded=0;fontFamily=Times New Roman;" parent="1" edge="1">
          <mxGeometry width="50" height="50" relative="1" as="geometry">
            <mxPoint x="1210.27" y="1459" as="sourcePoint" />
            <mxPoint x="1210.27" y="1309" as="targetPoint" />
          </mxGeometry>
        </mxCell>
        <mxCell id="RWDBVJnFx9APnkcbTvSb-50" style="edgeStyle=orthogonalEdgeStyle;rounded=0;orthogonalLoop=1;jettySize=auto;html=1;entryX=0.5;entryY=1;entryDx=0;entryDy=0;exitX=0.5;exitY=1;exitDx=0;exitDy=0;fontFamily=Times New Roman;" parent="1" source="RWDBVJnFx9APnkcbTvSb-48" target="RWDBVJnFx9APnkcbTvSb-49" edge="1">
          <mxGeometry relative="1" as="geometry" />
        </mxCell>
        <mxCell id="RWDBVJnFx9APnkcbTvSb-48" value="&lt;span style=&quot;text-wrap: nowrap;&quot;&gt;CPU register&lt;/span&gt;&lt;div style=&quot;text-wrap: nowrap;&quot;&gt;cache ALU&lt;/div&gt;" style="rounded=0;whiteSpace=wrap;html=1;fontFamily=Times New Roman;" parent="1" vertex="1">
          <mxGeometry x="1410" y="1353.5" width="90" height="55.5" as="geometry" />
        </mxCell>
        <mxCell id="RWDBVJnFx9APnkcbTvSb-49" value="&lt;span style=&quot;text-wrap: nowrap;&quot;&gt;CPU register&lt;/span&gt;&lt;div style=&quot;text-wrap: nowrap;&quot;&gt;cache ALU&lt;/div&gt;" style="rounded=0;whiteSpace=wrap;html=1;fontFamily=Times New Roman;" parent="1" vertex="1">
          <mxGeometry x="1510" y="1353.5" width="90" height="55.5" as="geometry" />
        </mxCell>
        <mxCell id="RWDBVJnFx9APnkcbTvSb-51" value="bus" style="text;html=1;align=center;verticalAlign=middle;resizable=0;points=[];autosize=1;strokeColor=none;fillColor=none;fontFamily=Times New Roman;" parent="1" vertex="1">
          <mxGeometry x="1490" y="1409" width="40" height="30" as="geometry" />
        </mxCell>
        <mxCell id="RWDBVJnFx9APnkcbTvSb-54" value="memory" style="rounded=0;whiteSpace=wrap;html=1;fontFamily=Times New Roman;" parent="1" vertex="1">
          <mxGeometry x="1410" y="1439" width="60" height="20" as="geometry" />
        </mxCell>
        <mxCell id="RWDBVJnFx9APnkcbTvSb-57" value="Motherboard" style="text;html=1;align=center;verticalAlign=middle;resizable=0;points=[];autosize=1;strokeColor=none;fillColor=none;fontFamily=Times New Roman;" parent="1" vertex="1">
          <mxGeometry x="1460" y="1309" width="90" height="30" as="geometry" />
        </mxCell>
        <mxCell id="RWDBVJnFx9APnkcbTvSb-58" value="Multiprocessor System" style="text;html=1;align=center;verticalAlign=middle;resizable=0;points=[];autosize=1;strokeColor=none;fillColor=none;fontFamily=Times New Roman;" parent="1" vertex="1">
          <mxGeometry x="1445" y="1469" width="130" height="30" as="geometry" />
        </mxCell>
        <mxCell id="RWDBVJnFx9APnkcbTvSb-59" value="CPU chip" style="text;html=1;align=center;verticalAlign=middle;resizable=0;points=[];autosize=1;strokeColor=none;fillColor=none;fontFamily=Times New Roman;" parent="1" vertex="1">
          <mxGeometry x="1700" y="1320" width="70" height="30" as="geometry" />
        </mxCell>
        <mxCell id="RWDBVJnFx9APnkcbTvSb-60" value="&lt;span style=&quot;text-wrap: nowrap;&quot;&gt;Core01&lt;/span&gt;&lt;div&gt;&lt;span style=&quot;text-wrap: nowrap; background-color: transparent; color: light-dark(rgb(0, 0, 0), rgb(255, 255, 255));&quot;&gt;register&amp;nbsp;&lt;/span&gt;&lt;div&gt;&lt;span style=&quot;text-wrap: nowrap;&quot;&gt;cache ALU&lt;/span&gt;&lt;/div&gt;&lt;/div&gt;" style="rounded=0;whiteSpace=wrap;html=1;fontFamily=Times New Roman;" parent="1" vertex="1">
          <mxGeometry x="1640" y="1357.5" width="90" height="55.5" as="geometry" />
        </mxCell>
        <mxCell id="RWDBVJnFx9APnkcbTvSb-62" value="&lt;span style=&quot;text-wrap: nowrap;&quot;&gt;Core02&lt;/span&gt;&lt;div&gt;&lt;span style=&quot;text-wrap: nowrap; background-color: transparent; color: light-dark(rgb(0, 0, 0), rgb(255, 255, 255));&quot;&gt;register&amp;nbsp;&lt;/span&gt;&lt;div&gt;&lt;span style=&quot;text-wrap: nowrap;&quot;&gt;cache ALU&lt;/span&gt;&lt;/div&gt;&lt;/div&gt;" style="rounded=0;whiteSpace=wrap;html=1;fontFamily=Times New Roman;" parent="1" vertex="1">
          <mxGeometry x="1740" y="1357.5" width="90" height="55.5" as="geometry" />
        </mxCell>
        <mxCell id="RWDBVJnFx9APnkcbTvSb-63" style="edgeStyle=orthogonalEdgeStyle;rounded=0;orthogonalLoop=1;jettySize=auto;html=1;entryX=0.598;entryY=1.008;entryDx=0;entryDy=0;entryPerimeter=0;exitX=0.5;exitY=1;exitDx=0;exitDy=0;fontFamily=Times New Roman;" parent="1" source="RWDBVJnFx9APnkcbTvSb-60" target="RWDBVJnFx9APnkcbTvSb-62" edge="1">
          <mxGeometry relative="1" as="geometry" />
        </mxCell>
        <mxCell id="RWDBVJnFx9APnkcbTvSb-64" value="bus" style="edgeLabel;html=1;align=center;verticalAlign=middle;resizable=0;points=[];fontFamily=Times New Roman;" parent="RWDBVJnFx9APnkcbTvSb-63" vertex="1" connectable="0">
          <mxGeometry x="0.0022" y="1" relative="1" as="geometry">
            <mxPoint as="offset" />
          </mxGeometry>
        </mxCell>
        <mxCell id="RWDBVJnFx9APnkcbTvSb-68" value="MultiCore CPU" style="text;html=1;align=center;verticalAlign=middle;resizable=0;points=[];autosize=1;strokeColor=none;fillColor=none;fontFamily=Times New Roman;" parent="1" vertex="1">
          <mxGeometry x="1685" y="1470" width="100" height="30" as="geometry" />
        </mxCell>
        <mxCell id="RWDBVJnFx9APnkcbTvSb-69" value="- power saving&lt;div&gt;- 速度快&lt;/div&gt;&lt;div&gt;&lt;br&gt;&lt;/div&gt;" style="text;html=1;align=left;verticalAlign=middle;resizable=0;points=[];autosize=1;strokeColor=none;fillColor=none;fontFamily=Times New Roman;" parent="1" vertex="1">
          <mxGeometry x="1850" y="1380" width="90" height="60" as="geometry" />
        </mxCell>
        <mxCell id="xBMnDibMdl3tSWkjuB08-1" value="對OS而言，沒有差異" style="text;html=1;align=center;verticalAlign=middle;resizable=0;points=[];autosize=1;strokeColor=none;fillColor=none;" parent="1" vertex="1">
          <mxGeometry x="1560" y="1510" width="140" height="30" as="geometry" />
        </mxCell>
        <mxCell id="mSIeOa4f1mtL7Ge1Exie-3" style="edgeStyle=orthogonalEdgeStyle;rounded=0;orthogonalLoop=1;jettySize=auto;html=1;entryX=0;entryY=0.5;entryDx=0;entryDy=0;exitX=0.5;exitY=0;exitDx=0;exitDy=0;fontFamily=Times New Roman;" parent="1" source="mSIeOa4f1mtL7Ge1Exie-1" target="mSIeOa4f1mtL7Ge1Exie-2" edge="1">
          <mxGeometry relative="1" as="geometry" />
        </mxCell>
        <mxCell id="mSIeOa4f1mtL7Ge1Exie-7" value="01.發出 I/O 請求" style="edgeLabel;html=1;align=center;verticalAlign=middle;resizable=0;points=[];fontFamily=Times New Roman;" parent="mSIeOa4f1mtL7Ge1Exie-3" vertex="1" connectable="0">
          <mxGeometry x="-0.5615" y="1" relative="1" as="geometry">
            <mxPoint x="1" y="11" as="offset" />
          </mxGeometry>
        </mxCell>
        <mxCell id="mSIeOa4f1mtL7Ge1Exie-5" style="edgeStyle=orthogonalEdgeStyle;rounded=0;orthogonalLoop=1;jettySize=auto;html=1;fontFamily=Times New Roman;" parent="1" source="mSIeOa4f1mtL7Ge1Exie-1" target="mSIeOa4f1mtL7Ge1Exie-4" edge="1">
          <mxGeometry relative="1" as="geometry" />
        </mxCell>
        <mxCell id="mSIeOa4f1mtL7Ge1Exie-8" value="02.Process&amp;nbsp;&lt;div&gt;被 Blocked&lt;/div&gt;" style="edgeLabel;html=1;align=center;verticalAlign=middle;resizable=0;points=[];fontFamily=Times New Roman;" parent="mSIeOa4f1mtL7Ge1Exie-5" vertex="1" connectable="0">
          <mxGeometry x="0.1186" relative="1" as="geometry">
            <mxPoint x="25" y="-2" as="offset" />
          </mxGeometry>
        </mxCell>
        <mxCell id="mSIeOa4f1mtL7Ge1Exie-1" value="&lt;span style=&quot;text-wrap: nowrap;&quot;&gt;ProcessA&lt;/span&gt;&lt;div&gt;&lt;span style=&quot;text-wrap: nowrap;&quot;&gt;(&lt;font style=&quot;color: rgb(255, 0, 0);&quot;&gt;running&lt;/font&gt;)&lt;/span&gt;&lt;/div&gt;" style="rounded=0;whiteSpace=wrap;html=1;fontFamily=Times New Roman;" parent="1" vertex="1">
          <mxGeometry x="2097" y="1129" width="60" height="30" as="geometry" />
        </mxCell>
        <mxCell id="mSIeOa4f1mtL7Ge1Exie-16" style="edgeStyle=orthogonalEdgeStyle;rounded=0;orthogonalLoop=1;jettySize=auto;html=1;entryX=0;entryY=0.5;entryDx=0;entryDy=0;fontFamily=Times New Roman;" parent="1" source="mSIeOa4f1mtL7Ge1Exie-2" target="mSIeOa4f1mtL7Ge1Exie-13" edge="1">
          <mxGeometry relative="1" as="geometry">
            <Array as="points">
              <mxPoint x="2309" y="1090" />
              <mxPoint x="2309" y="1159" />
            </Array>
          </mxGeometry>
        </mxCell>
        <mxCell id="mSIeOa4f1mtL7Ge1Exie-18" value="04.CPU設定&lt;div&gt;IO命令&lt;/div&gt;" style="edgeLabel;html=1;align=center;verticalAlign=middle;resizable=0;points=[];fontFamily=Times New Roman;labelBackgroundColor=none;" parent="mSIeOa4f1mtL7Ge1Exie-16" vertex="1" connectable="0">
          <mxGeometry x="0.0465" y="3" relative="1" as="geometry">
            <mxPoint x="-22" y="-40" as="offset" />
          </mxGeometry>
        </mxCell>
        <mxCell id="mSIeOa4f1mtL7Ge1Exie-2" value="&lt;span style=&quot;text-wrap: nowrap;&quot;&gt;CPU&lt;/span&gt;" style="rounded=0;whiteSpace=wrap;html=1;fontFamily=Times New Roman;" parent="1" vertex="1">
          <mxGeometry x="2200" y="1080" width="48.65" height="30" as="geometry" />
        </mxCell>
        <mxCell id="mSIeOa4f1mtL7Ge1Exie-26" style="edgeStyle=orthogonalEdgeStyle;rounded=0;orthogonalLoop=1;jettySize=auto;html=1;entryX=0.25;entryY=1;entryDx=0;entryDy=0;exitX=0.25;exitY=0;exitDx=0;exitDy=0;strokeColor=#FF0000;" parent="1" source="mSIeOa4f1mtL7Ge1Exie-4" target="mSIeOa4f1mtL7Ge1Exie-1" edge="1">
          <mxGeometry relative="1" as="geometry" />
        </mxCell>
        <mxCell id="mSIeOa4f1mtL7Ge1Exie-4" value="&lt;span style=&quot;text-wrap: nowrap;&quot;&gt;ProcessA&lt;/span&gt;&lt;div&gt;&lt;span style=&quot;text-wrap: nowrap;&quot;&gt;(&lt;font style=&quot;color: rgb(255, 0, 0);&quot;&gt;block&lt;/font&gt;)&lt;/span&gt;&lt;/div&gt;" style="rounded=0;whiteSpace=wrap;html=1;fontFamily=Times New Roman;" parent="1" vertex="1">
          <mxGeometry x="2097" y="1218" width="60" height="30" as="geometry" />
        </mxCell>
        <mxCell id="mSIeOa4f1mtL7Ge1Exie-10" style="edgeStyle=orthogonalEdgeStyle;rounded=0;orthogonalLoop=1;jettySize=auto;html=1;entryX=0.5;entryY=1;entryDx=0;entryDy=0;fontFamily=Times New Roman;" parent="1" source="mSIeOa4f1mtL7Ge1Exie-6" target="mSIeOa4f1mtL7Ge1Exie-2" edge="1">
          <mxGeometry relative="1" as="geometry" />
        </mxCell>
        <mxCell id="mSIeOa4f1mtL7Ge1Exie-11" value="03. 接管，system call" style="edgeLabel;html=1;align=center;verticalAlign=middle;resizable=0;points=[];fontFamily=Times New Roman;" parent="mSIeOa4f1mtL7Ge1Exie-10" vertex="1" connectable="0">
          <mxGeometry x="-0.1902" y="1" relative="1" as="geometry">
            <mxPoint x="-1" y="-3" as="offset" />
          </mxGeometry>
        </mxCell>
        <mxCell id="mSIeOa4f1mtL7Ge1Exie-6" value="&lt;span style=&quot;text-wrap: nowrap;&quot;&gt;OS&lt;/span&gt;" style="rounded=0;whiteSpace=wrap;html=1;fontFamily=Times New Roman;" parent="1" vertex="1">
          <mxGeometry x="2200" y="1139" width="48.65" height="30" as="geometry" />
        </mxCell>
        <mxCell id="mSIeOa4f1mtL7Ge1Exie-19" style="edgeStyle=orthogonalEdgeStyle;rounded=0;orthogonalLoop=1;jettySize=auto;html=1;entryX=1;entryY=0.5;entryDx=0;entryDy=0;exitX=1;exitY=0.75;exitDx=0;exitDy=0;fontFamily=Times New Roman;" parent="1" source="mSIeOa4f1mtL7Ge1Exie-13" target="mSIeOa4f1mtL7Ge1Exie-15" edge="1">
          <mxGeometry relative="1" as="geometry" />
        </mxCell>
        <mxCell id="mSIeOa4f1mtL7Ge1Exie-20" value="控制" style="edgeLabel;html=1;align=center;verticalAlign=middle;resizable=0;points=[];fontFamily=Times New Roman;" parent="mSIeOa4f1mtL7Ge1Exie-19" vertex="1" connectable="0">
          <mxGeometry x="-0.0915" relative="1" as="geometry">
            <mxPoint as="offset" />
          </mxGeometry>
        </mxCell>
        <mxCell id="mSIeOa4f1mtL7Ge1Exie-13" value="&lt;span style=&quot;text-wrap: nowrap;&quot;&gt;disk controller&lt;/span&gt;" style="rounded=0;whiteSpace=wrap;html=1;fontFamily=Times New Roman;" parent="1" vertex="1">
          <mxGeometry x="2370" y="1148" width="80" height="21" as="geometry" />
        </mxCell>
        <mxCell id="mSIeOa4f1mtL7Ge1Exie-14" value="buffer&lt;div&gt;register&lt;/div&gt;" style="rounded=0;whiteSpace=wrap;html=1;fontFamily=Times New Roman;" parent="1" vertex="1">
          <mxGeometry x="2369" y="1180" width="81" height="59" as="geometry" />
        </mxCell>
        <mxCell id="mSIeOa4f1mtL7Ge1Exie-15" value="機械硬碟" style="rounded=0;whiteSpace=wrap;html=1;fontFamily=Times New Roman;" parent="1" vertex="1">
          <mxGeometry x="2370" y="1080" width="81" height="59" as="geometry" />
        </mxCell>
        <mxCell id="mSIeOa4f1mtL7Ge1Exie-21" style="edgeStyle=orthogonalEdgeStyle;rounded=0;orthogonalLoop=1;jettySize=auto;html=1;entryX=1;entryY=0.639;entryDx=0;entryDy=0;entryPerimeter=0;exitX=1;exitY=0.25;exitDx=0;exitDy=0;fontFamily=Times New Roman;" parent="1" source="mSIeOa4f1mtL7Ge1Exie-15" target="mSIeOa4f1mtL7Ge1Exie-14" edge="1">
          <mxGeometry relative="1" as="geometry">
            <Array as="points">
              <mxPoint x="2490" y="1095" />
              <mxPoint x="2490" y="1218" />
            </Array>
          </mxGeometry>
        </mxCell>
        <mxCell id="mSIeOa4f1mtL7Ge1Exie-22" value="05.Controller 負責&lt;div&gt;裝置的實際操作&lt;/div&gt;" style="text;html=1;align=center;verticalAlign=middle;resizable=0;points=[];autosize=1;strokeColor=none;fillColor=none;fontFamily=Times New Roman;" parent="1" vertex="1">
          <mxGeometry x="2454" y="1171" width="110" height="40" as="geometry" />
        </mxCell>
        <mxCell id="mSIeOa4f1mtL7Ge1Exie-23" value="" style="endArrow=classic;html=1;rounded=0;strokeColor=#FF0000;exitX=1;exitY=0.5;exitDx=0;exitDy=0;fontFamily=Times New Roman;startArrow=classic;startFill=1;" parent="1" source="mSIeOa4f1mtL7Ge1Exie-2" edge="1">
          <mxGeometry width="50" height="50" relative="1" as="geometry">
            <mxPoint x="2270" y="1100" as="sourcePoint" />
            <mxPoint x="2370" y="1160" as="targetPoint" />
          </mxGeometry>
        </mxCell>
        <mxCell id="mSIeOa4f1mtL7Ge1Exie-24" value="&lt;font style=&quot;color: rgb(255, 0, 0);&quot;&gt;06.不斷polling&lt;/font&gt;" style="edgeLabel;html=1;align=center;verticalAlign=middle;resizable=0;points=[];fontFamily=Times New Roman;" parent="mSIeOa4f1mtL7Ge1Exie-23" vertex="1" connectable="0">
          <mxGeometry x="-0.2719" y="1" relative="1" as="geometry">
            <mxPoint x="18" y="12" as="offset" />
          </mxGeometry>
        </mxCell>
        <mxCell id="mSIeOa4f1mtL7Ge1Exie-25" value="disk" style="text;html=1;align=center;verticalAlign=middle;resizable=0;points=[];autosize=1;strokeColor=none;fillColor=none;fontFamily=Times New Roman;" parent="1" vertex="1">
          <mxGeometry x="2389.5" y="1044" width="40" height="30" as="geometry" />
        </mxCell>
        <mxCell id="mSIeOa4f1mtL7Ge1Exie-27" value="&lt;font style=&quot;color: rgb(255, 0, 0);&quot;&gt;07.I/O 完成後&lt;/font&gt;&lt;div&gt;&lt;font style=&quot;color: rgb(255, 0, 0);&quot;&gt;ProcessA 被喚醒&lt;/font&gt;&lt;/div&gt;" style="edgeLabel;html=1;align=center;verticalAlign=middle;resizable=0;points=[];fontFamily=Times New Roman;" parent="1" vertex="1" connectable="0">
          <mxGeometry x="2066.9975193283594" y="1189.9970438396526" as="geometry" />
        </mxCell>
        <mxCell id="mSIeOa4f1mtL7Ge1Exie-32" style="edgeStyle=orthogonalEdgeStyle;rounded=0;orthogonalLoop=1;jettySize=auto;html=1;entryX=0;entryY=0.5;entryDx=0;entryDy=0;exitX=0.5;exitY=0;exitDx=0;exitDy=0;fontFamily=Times New Roman;" parent="1" source="mSIeOa4f1mtL7Ge1Exie-36" target="mSIeOa4f1mtL7Ge1Exie-37" edge="1">
          <mxGeometry relative="1" as="geometry" />
        </mxCell>
        <mxCell id="mSIeOa4f1mtL7Ge1Exie-33" value="01.發出 I/O 請求" style="edgeLabel;html=1;align=center;verticalAlign=middle;resizable=0;points=[];fontFamily=Times New Roman;" parent="mSIeOa4f1mtL7Ge1Exie-32" vertex="1" connectable="0">
          <mxGeometry x="-0.5615" y="1" relative="1" as="geometry">
            <mxPoint x="1" y="11" as="offset" />
          </mxGeometry>
        </mxCell>
        <mxCell id="mSIeOa4f1mtL7Ge1Exie-34" style="edgeStyle=orthogonalEdgeStyle;rounded=0;orthogonalLoop=1;jettySize=auto;html=1;fontFamily=Times New Roman;" parent="1" source="mSIeOa4f1mtL7Ge1Exie-36" target="mSIeOa4f1mtL7Ge1Exie-39" edge="1">
          <mxGeometry relative="1" as="geometry" />
        </mxCell>
        <mxCell id="mSIeOa4f1mtL7Ge1Exie-35" value="02.Process&amp;nbsp;&lt;div&gt;被 Blocked&lt;/div&gt;" style="edgeLabel;html=1;align=center;verticalAlign=middle;resizable=0;points=[];fontFamily=Times New Roman;" parent="mSIeOa4f1mtL7Ge1Exie-34" vertex="1" connectable="0">
          <mxGeometry x="0.1186" relative="1" as="geometry">
            <mxPoint x="35" y="-1" as="offset" />
          </mxGeometry>
        </mxCell>
        <mxCell id="mSIeOa4f1mtL7Ge1Exie-36" value="&lt;span style=&quot;text-wrap: nowrap;&quot;&gt;ProcessA&lt;/span&gt;&lt;div&gt;&lt;span style=&quot;text-wrap: nowrap;&quot;&gt;(&lt;font style=&quot;color: rgb(255, 0, 0);&quot;&gt;running&lt;/font&gt;)&lt;/span&gt;&lt;/div&gt;" style="rounded=0;whiteSpace=wrap;html=1;fontFamily=Times New Roman;" parent="1" vertex="1">
          <mxGeometry x="2100" y="1432" width="60" height="30" as="geometry" />
        </mxCell>
        <mxCell id="mSIeOa4f1mtL7Ge1Exie-61" style="edgeStyle=orthogonalEdgeStyle;rounded=0;orthogonalLoop=1;jettySize=auto;html=1;entryX=1;entryY=0.5;entryDx=0;entryDy=0;exitX=0.5;exitY=0;exitDx=0;exitDy=0;fontFamily=Times New Roman;" parent="1" source="mSIeOa4f1mtL7Ge1Exie-37" target="mSIeOa4f1mtL7Ge1Exie-60" edge="1">
          <mxGeometry relative="1" as="geometry">
            <Array as="points">
              <mxPoint x="2230" y="1383" />
              <mxPoint x="2230" y="1359" />
            </Array>
          </mxGeometry>
        </mxCell>
        <mxCell id="mSIeOa4f1mtL7Ge1Exie-62" value="06執行I/O時，CPU可以&lt;div&gt;執行別的process&lt;/div&gt;" style="edgeLabel;html=1;align=center;verticalAlign=middle;resizable=0;points=[];labelBackgroundColor=none;fontFamily=Times New Roman;" parent="mSIeOa4f1mtL7Ge1Exie-61" vertex="1" connectable="0">
          <mxGeometry x="0.2603" y="-2" relative="1" as="geometry">
            <mxPoint x="23" y="2" as="offset" />
          </mxGeometry>
        </mxCell>
        <mxCell id="mSIeOa4f1mtL7Ge1Exie-37" value="&lt;span style=&quot;text-wrap: nowrap;&quot;&gt;CPU&lt;/span&gt;" style="rounded=0;whiteSpace=wrap;html=1;fontFamily=Times New Roman;" parent="1" vertex="1">
          <mxGeometry x="2203" y="1383" width="48.65" height="30" as="geometry" />
        </mxCell>
        <mxCell id="mSIeOa4f1mtL7Ge1Exie-38" style="edgeStyle=orthogonalEdgeStyle;rounded=0;orthogonalLoop=1;jettySize=auto;html=1;entryX=0.25;entryY=1;entryDx=0;entryDy=0;exitX=0.25;exitY=0;exitDx=0;exitDy=0;strokeColor=#FF0000;fontFamily=Times New Roman;" parent="1" source="mSIeOa4f1mtL7Ge1Exie-39" target="mSIeOa4f1mtL7Ge1Exie-36" edge="1">
          <mxGeometry relative="1" as="geometry" />
        </mxCell>
        <mxCell id="mSIeOa4f1mtL7Ge1Exie-39" value="&lt;span style=&quot;text-wrap: nowrap;&quot;&gt;ProcessA&lt;/span&gt;&lt;div&gt;&lt;span style=&quot;text-wrap: nowrap;&quot;&gt;(&lt;font style=&quot;color: rgb(255, 0, 0);&quot;&gt;block&lt;/font&gt;)&lt;/span&gt;&lt;/div&gt;" style="rounded=0;whiteSpace=wrap;html=1;fontFamily=Times New Roman;" parent="1" vertex="1">
          <mxGeometry x="2100" y="1521" width="60" height="30" as="geometry" />
        </mxCell>
        <mxCell id="mSIeOa4f1mtL7Ge1Exie-40" style="edgeStyle=orthogonalEdgeStyle;rounded=0;orthogonalLoop=1;jettySize=auto;html=1;entryX=0.5;entryY=1;entryDx=0;entryDy=0;fontFamily=Times New Roman;" parent="1" source="mSIeOa4f1mtL7Ge1Exie-42" target="mSIeOa4f1mtL7Ge1Exie-37" edge="1">
          <mxGeometry relative="1" as="geometry" />
        </mxCell>
        <mxCell id="mSIeOa4f1mtL7Ge1Exie-41" value="03. 接管，system call" style="edgeLabel;html=1;align=center;verticalAlign=middle;resizable=0;points=[];fontFamily=Times New Roman;" parent="mSIeOa4f1mtL7Ge1Exie-40" vertex="1" connectable="0">
          <mxGeometry x="-0.1902" y="1" relative="1" as="geometry">
            <mxPoint x="-1" y="-3" as="offset" />
          </mxGeometry>
        </mxCell>
        <mxCell id="mSIeOa4f1mtL7Ge1Exie-51" style="edgeStyle=orthogonalEdgeStyle;rounded=0;orthogonalLoop=1;jettySize=auto;html=1;entryX=0;entryY=0.25;entryDx=0;entryDy=0;exitX=1;exitY=0.75;exitDx=0;exitDy=0;fontFamily=Times New Roman;" parent="1" source="mSIeOa4f1mtL7Ge1Exie-42" target="mSIeOa4f1mtL7Ge1Exie-47" edge="1">
          <mxGeometry relative="1" as="geometry">
            <Array as="points">
              <mxPoint x="2252" y="1463" />
              <mxPoint x="2311" y="1463" />
            </Array>
          </mxGeometry>
        </mxCell>
        <mxCell id="mSIeOa4f1mtL7Ge1Exie-69" style="edgeStyle=orthogonalEdgeStyle;rounded=0;orthogonalLoop=1;jettySize=auto;html=1;entryX=0.5;entryY=0;entryDx=0;entryDy=0;fontFamily=Times New Roman;" parent="1" source="mSIeOa4f1mtL7Ge1Exie-42" target="mSIeOa4f1mtL7Ge1Exie-68" edge="1">
          <mxGeometry relative="1" as="geometry" />
        </mxCell>
        <mxCell id="mSIeOa4f1mtL7Ge1Exie-70" value="09.查詢ISR&lt;div&gt;(interrupt service routine)&lt;/div&gt;" style="edgeLabel;html=1;align=center;verticalAlign=middle;resizable=0;points=[];fontFamily=Times New Roman;" parent="mSIeOa4f1mtL7Ge1Exie-69" vertex="1" connectable="0">
          <mxGeometry x="-0.0761" y="1" relative="1" as="geometry">
            <mxPoint y="32" as="offset" />
          </mxGeometry>
        </mxCell>
        <mxCell id="mSIeOa4f1mtL7Ge1Exie-42" value="&lt;span style=&quot;text-wrap: nowrap;&quot;&gt;OS&lt;/span&gt;" style="rounded=0;whiteSpace=wrap;html=1;fontFamily=Times New Roman;" parent="1" vertex="1">
          <mxGeometry x="2203" y="1442" width="48.65" height="30" as="geometry" />
        </mxCell>
        <mxCell id="mSIeOa4f1mtL7Ge1Exie-43" value="&lt;font style=&quot;color: rgb(255, 0, 0);&quot;&gt;11.&lt;/font&gt;&lt;span style=&quot;color: light-dark(rgb(255, 0, 0), rgb(255, 0, 0)); background-color: light-dark(#ffffff, var(--ge-dark-color, #121212));&quot;&gt;ProcessA 被喚醒&lt;/span&gt;" style="edgeLabel;html=1;align=center;verticalAlign=middle;resizable=0;points=[];fontFamily=Times New Roman;" parent="1" vertex="1" connectable="0">
          <mxGeometry x="2069.9975193283594" y="1493.9970438396526" as="geometry">
            <mxPoint y="-2" as="offset" />
          </mxGeometry>
        </mxCell>
        <mxCell id="mSIeOa4f1mtL7Ge1Exie-45" value="polling I/O" style="text;html=1;align=center;verticalAlign=middle;resizable=0;points=[];autosize=1;strokeColor=none;fillColor=none;fontFamily=Times New Roman;" parent="1" vertex="1">
          <mxGeometry x="2228.65" y="1250" width="80" height="30" as="geometry" />
        </mxCell>
        <mxCell id="mSIeOa4f1mtL7Ge1Exie-47" value="&lt;span style=&quot;text-wrap: nowrap;&quot;&gt;disk controller&lt;/span&gt;" style="rounded=0;whiteSpace=wrap;html=1;fontFamily=Times New Roman;" parent="1" vertex="1">
          <mxGeometry x="2371" y="1458" width="80" height="21" as="geometry" />
        </mxCell>
        <mxCell id="mSIeOa4f1mtL7Ge1Exie-48" value="buffer&lt;div&gt;register&lt;/div&gt;" style="rounded=0;whiteSpace=wrap;html=1;fontFamily=Times New Roman;" parent="1" vertex="1">
          <mxGeometry x="2370" y="1490" width="81" height="59" as="geometry" />
        </mxCell>
        <mxCell id="mSIeOa4f1mtL7Ge1Exie-49" value="機械硬碟" style="rounded=0;whiteSpace=wrap;html=1;fontFamily=Times New Roman;" parent="1" vertex="1">
          <mxGeometry x="2371" y="1390" width="81" height="59" as="geometry" />
        </mxCell>
        <mxCell id="mSIeOa4f1mtL7Ge1Exie-50" value="disk" style="text;html=1;align=center;verticalAlign=middle;resizable=0;points=[];autosize=1;strokeColor=none;fillColor=none;fontFamily=Times New Roman;" parent="1" vertex="1">
          <mxGeometry x="2390.5" y="1354" width="40" height="30" as="geometry" />
        </mxCell>
        <mxCell id="mSIeOa4f1mtL7Ge1Exie-52" value="04.CPU設定&lt;span style=&quot;background-color: transparent; color: light-dark(rgb(0, 0, 0), rgb(255, 255, 255));&quot;&gt;IO命令&lt;/span&gt;" style="edgeLabel;html=1;align=center;verticalAlign=middle;resizable=0;points=[];fontFamily=Times New Roman;labelBackgroundColor=none;" parent="1" vertex="1" connectable="0">
          <mxGeometry x="2308.65" y="1457.0038095238097" as="geometry" />
        </mxCell>
        <mxCell id="mSIeOa4f1mtL7Ge1Exie-56" value="05.Controller 負責&lt;div&gt;裝置的實際操作&lt;/div&gt;" style="text;html=1;align=center;verticalAlign=middle;resizable=0;points=[];autosize=1;strokeColor=none;fillColor=none;fontFamily=Times New Roman;" parent="1" vertex="1">
          <mxGeometry x="2460" y="1474" width="110" height="40" as="geometry" />
        </mxCell>
        <mxCell id="mSIeOa4f1mtL7Ge1Exie-57" style="edgeStyle=orthogonalEdgeStyle;rounded=0;orthogonalLoop=1;jettySize=auto;html=1;entryX=1.002;entryY=0.407;entryDx=0;entryDy=0;entryPerimeter=0;exitX=1;exitY=0.5;exitDx=0;exitDy=0;fontFamily=Times New Roman;" parent="1" source="mSIeOa4f1mtL7Ge1Exie-47" target="mSIeOa4f1mtL7Ge1Exie-49" edge="1">
          <mxGeometry relative="1" as="geometry" />
        </mxCell>
        <mxCell id="mSIeOa4f1mtL7Ge1Exie-58" value="控制" style="text;html=1;align=center;verticalAlign=middle;resizable=0;points=[];autosize=1;strokeColor=none;fillColor=none;fontFamily=Times New Roman;" parent="1" vertex="1">
          <mxGeometry x="2446" y="1428" width="50" height="30" as="geometry" />
        </mxCell>
        <mxCell id="mSIeOa4f1mtL7Ge1Exie-59" style="edgeStyle=orthogonalEdgeStyle;rounded=0;orthogonalLoop=1;jettySize=auto;html=1;exitX=0.987;exitY=0.578;exitDx=0;exitDy=0;entryX=0.999;entryY=0.554;entryDx=0;entryDy=0;entryPerimeter=0;exitPerimeter=0;fontFamily=Times New Roman;" parent="1" source="mSIeOa4f1mtL7Ge1Exie-49" target="mSIeOa4f1mtL7Ge1Exie-48" edge="1">
          <mxGeometry relative="1" as="geometry">
            <Array as="points">
              <mxPoint x="2490" y="1424" />
              <mxPoint x="2490" y="1523" />
              <mxPoint x="2480" y="1523" />
            </Array>
          </mxGeometry>
        </mxCell>
        <mxCell id="mSIeOa4f1mtL7Ge1Exie-60" value="&lt;span style=&quot;text-wrap: nowrap;&quot;&gt;ProcessB&lt;/span&gt;" style="rounded=0;whiteSpace=wrap;html=1;fontFamily=Times New Roman;" parent="1" vertex="1">
          <mxGeometry x="2090" y="1344" width="48.65" height="30" as="geometry" />
        </mxCell>
        <mxCell id="mSIeOa4f1mtL7Ge1Exie-63" style="edgeStyle=orthogonalEdgeStyle;rounded=0;orthogonalLoop=1;jettySize=auto;html=1;entryX=0.937;entryY=0.863;entryDx=0;entryDy=0;entryPerimeter=0;strokeColor=#FF0000;fontFamily=Times New Roman;" parent="1" source="mSIeOa4f1mtL7Ge1Exie-47" target="mSIeOa4f1mtL7Ge1Exie-42" edge="1">
          <mxGeometry relative="1" as="geometry" />
        </mxCell>
        <mxCell id="mSIeOa4f1mtL7Ge1Exie-65" value="&lt;font style=&quot;color: rgb(255, 0, 0);&quot;&gt;07.IO完成&lt;/font&gt;&lt;div&gt;&lt;font style=&quot;color: rgb(255, 0, 0);&quot;&gt;發送IO complete命令給OS&lt;/font&gt;&lt;/div&gt;" style="edgeLabel;html=1;align=center;verticalAlign=middle;resizable=0;points=[];fontFamily=Times New Roman;labelBackgroundColor=none;" parent="1" vertex="1" connectable="0">
          <mxGeometry x="2308.65" y="1484.0038095238097" as="geometry" />
        </mxCell>
        <mxCell id="mSIeOa4f1mtL7Ge1Exie-66" style="edgeStyle=orthogonalEdgeStyle;rounded=0;orthogonalLoop=1;jettySize=auto;html=1;entryX=0.577;entryY=0.019;entryDx=0;entryDy=0;entryPerimeter=0;strokeColor=#FF0000;fontFamily=Times New Roman;" parent="1" source="mSIeOa4f1mtL7Ge1Exie-37" target="mSIeOa4f1mtL7Ge1Exie-60" edge="1">
          <mxGeometry relative="1" as="geometry">
            <Array as="points">
              <mxPoint x="2300" y="1398" />
              <mxPoint x="2300" y="1324" />
              <mxPoint x="2118" y="1324" />
            </Array>
          </mxGeometry>
        </mxCell>
        <mxCell id="mSIeOa4f1mtL7Ge1Exie-67" value="&lt;font style=&quot;color: rgb(255, 0, 0);&quot;&gt;08.收到&lt;span style=&quot;background-color: rgb(251, 251, 251);&quot;&gt;IO complete後，將目前的process暫停(改為ready state)&lt;/span&gt;&lt;/font&gt;" style="edgeLabel;html=1;align=center;verticalAlign=middle;resizable=0;points=[];fontFamily=Times New Roman;" parent="mSIeOa4f1mtL7Ge1Exie-66" vertex="1" connectable="0">
          <mxGeometry x="0.1814" y="-1" relative="1" as="geometry">
            <mxPoint x="-12" y="-11" as="offset" />
          </mxGeometry>
        </mxCell>
        <mxCell id="mSIeOa4f1mtL7Ge1Exie-68" value="&lt;span style=&quot;text-wrap: nowrap;&quot;&gt;interrupt vector&lt;/span&gt;" style="rounded=0;whiteSpace=wrap;html=1;fontFamily=Times New Roman;" parent="1" vertex="1">
          <mxGeometry x="2182.33" y="1594" width="90" height="30" as="geometry" />
        </mxCell>
        <mxCell id="mSIeOa4f1mtL7Ge1Exie-71" style="edgeStyle=orthogonalEdgeStyle;rounded=0;orthogonalLoop=1;jettySize=auto;html=1;entryX=0.429;entryY=0.929;entryDx=0;entryDy=0;entryPerimeter=0;fontFamily=Times New Roman;" parent="1" source="mSIeOa4f1mtL7Ge1Exie-68" target="mSIeOa4f1mtL7Ge1Exie-39" edge="1">
          <mxGeometry relative="1" as="geometry" />
        </mxCell>
        <mxCell id="mSIeOa4f1mtL7Ge1Exie-72" value="10.找回process繼續做" style="edgeLabel;html=1;align=center;verticalAlign=middle;resizable=0;points=[];fontFamily=Times New Roman;" parent="mSIeOa4f1mtL7Ge1Exie-71" vertex="1" connectable="0">
          <mxGeometry x="-0.1362" y="-2" relative="1" as="geometry">
            <mxPoint x="-17" y="-13" as="offset" />
          </mxGeometry>
        </mxCell>
        <mxCell id="mSIeOa4f1mtL7Ge1Exie-73" value="Interrupt I/O" style="text;html=1;align=center;verticalAlign=middle;resizable=0;points=[];autosize=1;strokeColor=none;fillColor=none;fontFamily=Times New Roman;" parent="1" vertex="1">
          <mxGeometry x="2255" y="1630" width="80" height="30" as="geometry" />
        </mxCell>
        <mxCell id="mSIeOa4f1mtL7Ge1Exie-74" value="&lt;b&gt;&lt;font style=&quot;font-size: 14px;&quot;&gt;CPU 設定 DMA controller 的資訊包含&lt;/font&gt;&lt;/b&gt;&lt;div&gt;&lt;div&gt;1. 傳輸模式：讀或寫（read/write mode）&amp;nbsp;&amp;nbsp;&lt;/div&gt;&lt;div&gt;2. I/O 裝置的來源/目的位址&lt;/div&gt;&lt;div&gt;3. 記憶體的來源/目的位址（address register）&lt;/div&gt;&lt;div&gt;4. 傳輸的資料量（count of bytes）&lt;/div&gt;&lt;/div&gt;" style="text;html=1;align=left;verticalAlign=middle;resizable=0;points=[];autosize=1;strokeColor=none;fillColor=none;" parent="1" vertex="1">
          <mxGeometry x="3075" y="1211" width="270" height="90" as="geometry" />
        </mxCell>
        <mxCell id="mSIeOa4f1mtL7Ge1Exie-93" style="edgeStyle=orthogonalEdgeStyle;rounded=0;orthogonalLoop=1;jettySize=auto;html=1;entryX=0;entryY=0.5;entryDx=0;entryDy=0;" parent="1" source="mSIeOa4f1mtL7Ge1Exie-75" target="mSIeOa4f1mtL7Ge1Exie-77" edge="1">
          <mxGeometry relative="1" as="geometry">
            <Array as="points">
              <mxPoint x="2990" y="1320" />
              <mxPoint x="3310" y="1320" />
              <mxPoint x="3310" y="1375" />
            </Array>
          </mxGeometry>
        </mxCell>
        <mxCell id="mSIeOa4f1mtL7Ge1Exie-96" value="05.DMA Controller 將資料寫入 memory buffer（X），同時 遞減 C" style="edgeLabel;html=1;align=center;verticalAlign=middle;resizable=0;points=[];" parent="mSIeOa4f1mtL7Ge1Exie-93" vertex="1" connectable="0">
          <mxGeometry x="-0.2222" y="-1" relative="1" as="geometry">
            <mxPoint x="18" y="-9" as="offset" />
          </mxGeometry>
        </mxCell>
        <mxCell id="mSIeOa4f1mtL7Ge1Exie-97" style="edgeStyle=orthogonalEdgeStyle;rounded=0;orthogonalLoop=1;jettySize=auto;html=1;" parent="1" edge="1">
          <mxGeometry relative="1" as="geometry">
            <mxPoint x="3030.5" y="1380" as="sourcePoint" />
            <mxPoint x="3210" y="1379.4883720930234" as="targetPoint" />
          </mxGeometry>
        </mxCell>
        <mxCell id="mSIeOa4f1mtL7Ge1Exie-98" value="&lt;font style=&quot;color: rgb(255, 0, 0);&quot;&gt;06.當 C = 0（傳輸完成） →&amp;nbsp;&lt;/font&gt;&lt;div&gt;&lt;font style=&quot;color: rgb(255, 0, 0);&quot;&gt;DMA Controller&amp;nbsp;&lt;/font&gt;&lt;div&gt;&lt;font style=&quot;color: rgb(255, 0, 0);&quot;&gt;發出 中斷（interrupt）通知 CPU&lt;/font&gt;&lt;/div&gt;&lt;/div&gt;" style="edgeLabel;html=1;align=center;verticalAlign=middle;resizable=0;points=[];labelBackgroundColor=none;" parent="mSIeOa4f1mtL7Ge1Exie-97" vertex="1" connectable="0">
          <mxGeometry x="-0.2864" y="2" relative="1" as="geometry">
            <mxPoint x="24" y="-3" as="offset" />
          </mxGeometry>
        </mxCell>
        <mxCell id="mSIeOa4f1mtL7Ge1Exie-75" value="DMA&amp;nbsp;&lt;div&gt;controller&lt;/div&gt;" style="rounded=0;whiteSpace=wrap;html=1;fontFamily=Times New Roman;fillColor=#d5e8d4;strokeColor=#82b366;" parent="1" vertex="1">
          <mxGeometry x="2949.5" y="1350" width="81" height="50" as="geometry" />
        </mxCell>
        <mxCell id="mSIeOa4f1mtL7Ge1Exie-76" value="CPU&lt;span style=&quot;font-family: monospace; font-size: 0px; text-align: start; text-wrap: nowrap;&quot;&gt;%3CmxGraphModel%3E%3Croot%3E%3CmxCell%20id%3D%220%22%2F%3E%3CmxCell%20id%3D%221%22%20parent%3D%220%22%2F%3E%3CmxCell%20id%3D%222%22%20value%3D%22DMA%26amp%3Bnbsp%3B%26lt%3Bdiv%26gt%3Bcontroller%26lt%3B%2Fdiv%26gt%3B%22%20style%3D%22rounded%3D0%3BwhiteSpace%3Dwrap%3Bhtml%3D1%3BfontFamily%3DTimes%20New%20Roman%3B%22%20vertex%3D%221%22%20parent%3D%221%22%3E%3CmxGeometry%20x%3D%222969%22%20y%3D%221390%22%20width%3D%2281%22%20height%3D%2250%22%20as%3D%22geometry%22%2F%3E%3C%2FmxCell%3E%3C%2Froot%3E%3C%2FmxGraphModel%3E&lt;/span&gt;" style="rounded=0;whiteSpace=wrap;html=1;fontFamily=Times New Roman;fillColor=#d5e8d4;strokeColor=#82b366;" parent="1" vertex="1">
          <mxGeometry x="3210" y="1349.5" width="81" height="50" as="geometry" />
        </mxCell>
        <mxCell id="mSIeOa4f1mtL7Ge1Exie-77" value="memory buffer" style="rounded=0;whiteSpace=wrap;html=1;fontFamily=Times New Roman;fillColor=#d5e8d4;strokeColor=#82b366;" parent="1" vertex="1">
          <mxGeometry x="3339" y="1350" width="81" height="50" as="geometry" />
        </mxCell>
        <mxCell id="mSIeOa4f1mtL7Ge1Exie-79" value="bus" style="rounded=0;whiteSpace=wrap;html=1;fontFamily=Times New Roman;fillColor=#fff2cc;strokeColor=#d6b656;" parent="1" vertex="1">
          <mxGeometry x="2949.5" y="1458" width="470.5" height="28" as="geometry" />
        </mxCell>
        <mxCell id="mSIeOa4f1mtL7Ge1Exie-82" style="edgeStyle=orthogonalEdgeStyle;rounded=0;orthogonalLoop=1;jettySize=auto;html=1;entryX=0;entryY=0.5;entryDx=0;entryDy=0;" parent="1" source="mSIeOa4f1mtL7Ge1Exie-80" target="mSIeOa4f1mtL7Ge1Exie-81" edge="1">
          <mxGeometry relative="1" as="geometry" />
        </mxCell>
        <mxCell id="mSIeOa4f1mtL7Ge1Exie-80" value="OS" style="rounded=0;whiteSpace=wrap;html=1;fontFamily=Times New Roman;" parent="1" vertex="1">
          <mxGeometry x="2949.5" y="1540" width="50.5" height="40" as="geometry" />
        </mxCell>
        <mxCell id="mSIeOa4f1mtL7Ge1Exie-81" value="device&lt;div&gt;driver&lt;/div&gt;" style="rounded=0;whiteSpace=wrap;html=1;fontFamily=Times New Roman;" parent="1" vertex="1">
          <mxGeometry x="3114" y="1535" width="81" height="50" as="geometry" />
        </mxCell>
        <mxCell id="mSIeOa4f1mtL7Ge1Exie-83" value="&lt;div&gt;01.OS通知Device Driver&lt;/div&gt;&lt;div&gt;→ 要從 disk 傳送資料到 memory 的某個位址X&lt;/div&gt;" style="text;html=1;align=center;verticalAlign=middle;resizable=0;points=[];autosize=1;strokeColor=none;fillColor=none;" parent="1" vertex="1">
          <mxGeometry x="2905" y="1580" width="270" height="40" as="geometry" />
        </mxCell>
        <mxCell id="mSIeOa4f1mtL7Ge1Exie-89" style="edgeStyle=orthogonalEdgeStyle;rounded=0;orthogonalLoop=1;jettySize=auto;html=1;entryX=0.5;entryY=1;entryDx=0;entryDy=0;" parent="1" source="mSIeOa4f1mtL7Ge1Exie-84" target="mSIeOa4f1mtL7Ge1Exie-75" edge="1">
          <mxGeometry relative="1" as="geometry">
            <mxPoint x="3371" y="1530" as="sourcePoint" />
            <Array as="points">
              <mxPoint x="3330" y="1440" />
              <mxPoint x="2990" y="1440" />
            </Array>
          </mxGeometry>
        </mxCell>
        <mxCell id="mSIeOa4f1mtL7Ge1Exie-84" value="disk controller" style="rounded=0;whiteSpace=wrap;html=1;fontFamily=Times New Roman;fillColor=#dae8fc;strokeColor=#6c8ebf;" parent="1" vertex="1">
          <mxGeometry x="3330" y="1534" width="81" height="50" as="geometry" />
        </mxCell>
        <mxCell id="mSIeOa4f1mtL7Ge1Exie-85" style="edgeStyle=orthogonalEdgeStyle;rounded=0;orthogonalLoop=1;jettySize=auto;html=1;entryX=0;entryY=0.5;entryDx=0;entryDy=0;entryPerimeter=0;" parent="1" source="mSIeOa4f1mtL7Ge1Exie-81" target="mSIeOa4f1mtL7Ge1Exie-84" edge="1">
          <mxGeometry relative="1" as="geometry" />
        </mxCell>
        <mxCell id="mSIeOa4f1mtL7Ge1Exie-86" value="&lt;div&gt;02.Device Driver 通知 Disk Controller&lt;/div&gt;&lt;div&gt;→ 需要傳送 C bytes 資料到 address X&lt;/div&gt;" style="text;html=1;align=center;verticalAlign=middle;resizable=0;points=[];autosize=1;strokeColor=none;fillColor=none;" parent="1" vertex="1">
          <mxGeometry x="3175" y="1580" width="230" height="40" as="geometry" />
        </mxCell>
        <mxCell id="mSIeOa4f1mtL7Ge1Exie-87" style="edgeStyle=orthogonalEdgeStyle;rounded=0;orthogonalLoop=1;jettySize=auto;html=1;entryX=0.894;entryY=0.913;entryDx=0;entryDy=0;entryPerimeter=0;" parent="1" source="mSIeOa4f1mtL7Ge1Exie-84" target="mSIeOa4f1mtL7Ge1Exie-79" edge="1">
          <mxGeometry relative="1" as="geometry" />
        </mxCell>
        <mxCell id="mSIeOa4f1mtL7Ge1Exie-88" value="&lt;div&gt;03.啟動DMA傳輸&lt;/div&gt;" style="text;html=1;align=center;verticalAlign=middle;resizable=0;points=[];autosize=1;strokeColor=none;fillColor=none;" parent="1" vertex="1">
          <mxGeometry x="3365" y="1500" width="110" height="30" as="geometry" />
        </mxCell>
        <mxCell id="mSIeOa4f1mtL7Ge1Exie-90" value="04.Disk Controller 將每筆資料交給 DMA Controller" style="text;html=1;align=center;verticalAlign=middle;resizable=0;points=[];autosize=1;strokeColor=none;fillColor=none;" parent="1" vertex="1">
          <mxGeometry x="3020" y="1419" width="290" height="30" as="geometry" />
        </mxCell>
        <mxCell id="mSIeOa4f1mtL7Ge1Exie-92" value="memory" style="text;html=1;align=center;verticalAlign=middle;resizable=0;points=[];autosize=1;strokeColor=none;fillColor=none;" parent="1" vertex="1">
          <mxGeometry x="3350" y="1327.5" width="70" height="30" as="geometry" />
        </mxCell>
        <mxCell id="mSIeOa4f1mtL7Ge1Exie-99" value="requesting process" style="rounded=0;whiteSpace=wrap;html=1;fontFamily=Times New Roman;" parent="1" vertex="1">
          <mxGeometry x="3670" y="1330" width="220" height="50" as="geometry" />
        </mxCell>
        <mxCell id="mSIeOa4f1mtL7Ge1Exie-100" value="device driver" style="rounded=0;whiteSpace=wrap;html=1;fontFamily=Times New Roman;" parent="1" vertex="1">
          <mxGeometry x="3670" y="1380" width="220" height="40" as="geometry" />
        </mxCell>
        <mxCell id="mSIeOa4f1mtL7Ge1Exie-101" value="" style="endArrow=classic;startArrow=classic;html=1;rounded=0;entryX=1.005;entryY=0.825;entryDx=0;entryDy=0;entryPerimeter=0;exitX=0.003;exitY=0.835;exitDx=0;exitDy=0;exitPerimeter=0;fontFamily=Times New Roman;strokeColor=#FF0000;" parent="1" source="mSIeOa4f1mtL7Ge1Exie-99" target="mSIeOa4f1mtL7Ge1Exie-99" edge="1">
          <mxGeometry width="50" height="50" relative="1" as="geometry">
            <mxPoint x="3610" y="1430" as="sourcePoint" />
            <mxPoint x="3660" y="1380" as="targetPoint" />
          </mxGeometry>
        </mxCell>
        <mxCell id="mSIeOa4f1mtL7Ge1Exie-102" value="&lt;font style=&quot;color: rgb(255, 0, 0);&quot;&gt;waiting&lt;/font&gt;" style="text;html=1;align=center;verticalAlign=middle;resizable=0;points=[];autosize=1;strokeColor=none;fillColor=none;fontFamily=Times New Roman;" parent="1" vertex="1">
          <mxGeometry x="3750" y="1353" width="60" height="30" as="geometry" />
        </mxCell>
        <mxCell id="mSIeOa4f1mtL7Ge1Exie-103" value="Synchoronous I/O = blocking I/O" style="edgeLabel;html=1;align=center;verticalAlign=middle;resizable=0;points=[];fontFamily=Times New Roman;" parent="1" vertex="1" connectable="0">
          <mxGeometry x="3769.996666666667" y="1320" as="geometry" />
        </mxCell>
        <mxCell id="mSIeOa4f1mtL7Ge1Exie-104" value="hardware (data transfer)" style="rounded=0;whiteSpace=wrap;html=1;fontFamily=Times New Roman;" parent="1" vertex="1">
          <mxGeometry x="3670" y="1460" width="220" height="26" as="geometry" />
        </mxCell>
        <mxCell id="mSIeOa4f1mtL7Ge1Exie-105" value="interrupt handler" style="rounded=0;whiteSpace=wrap;html=1;fontFamily=Times New Roman;fillColor=#f8cecc;strokeColor=#b85450;" parent="1" vertex="1">
          <mxGeometry x="3670" y="1420" width="220" height="40" as="geometry" />
        </mxCell>
        <mxCell id="mSIeOa4f1mtL7Ge1Exie-109" value="time" style="edgeLabel;html=1;align=center;verticalAlign=middle;resizable=0;points=[];fontFamily=Times New Roman;" parent="1" vertex="1" connectable="0">
          <mxGeometry x="3779.996666666667" y="1510" as="geometry" />
        </mxCell>
        <mxCell id="mSIeOa4f1mtL7Ge1Exie-110" value="" style="endArrow=classic;html=1;rounded=0;fontFamily=Times New Roman;" parent="1" edge="1">
          <mxGeometry width="50" height="50" relative="1" as="geometry">
            <mxPoint x="3670" y="1500" as="sourcePoint" />
            <mxPoint x="3890" y="1500" as="targetPoint" />
          </mxGeometry>
        </mxCell>
        <mxCell id="mSIeOa4f1mtL7Ge1Exie-116" value="" style="endArrow=none;dashed=1;html=1;dashPattern=1 3;strokeWidth=2;rounded=0;fontFamily=Times New Roman;" parent="1" edge="1">
          <mxGeometry width="50" height="50" relative="1" as="geometry">
            <mxPoint x="3660" y="1380" as="sourcePoint" />
            <mxPoint x="3660" y="1330" as="targetPoint" />
          </mxGeometry>
        </mxCell>
        <mxCell id="mSIeOa4f1mtL7Ge1Exie-117" value="user process" style="edgeLabel;html=1;align=center;verticalAlign=middle;resizable=0;points=[];fontFamily=Times New Roman;" parent="1" vertex="1" connectable="0">
          <mxGeometry x="3619.996666666667" y="1353" as="geometry" />
        </mxCell>
        <mxCell id="mSIeOa4f1mtL7Ge1Exie-118" value="" style="endArrow=none;dashed=1;html=1;dashPattern=1 3;strokeWidth=2;rounded=0;fontFamily=Times New Roman;" parent="1" edge="1">
          <mxGeometry width="50" height="50" relative="1" as="geometry">
            <mxPoint x="3660" y="1460" as="sourcePoint" />
            <mxPoint x="3660" y="1394.5" as="targetPoint" />
          </mxGeometry>
        </mxCell>
        <mxCell id="mSIeOa4f1mtL7Ge1Exie-119" value="kernel" style="edgeLabel;html=1;align=center;verticalAlign=middle;resizable=0;points=[];fontFamily=Times New Roman;" parent="1" vertex="1" connectable="0">
          <mxGeometry x="3629.996666666667" y="1428" as="geometry" />
        </mxCell>
        <mxCell id="mSIeOa4f1mtL7Ge1Exie-121" value="requesting process" style="rounded=0;whiteSpace=wrap;html=1;fontFamily=Times New Roman;" parent="1" vertex="1">
          <mxGeometry x="4000" y="1330" width="220" height="50" as="geometry" />
        </mxCell>
        <mxCell id="mSIeOa4f1mtL7Ge1Exie-123" value="device driver" style="rounded=0;whiteSpace=wrap;html=1;fontFamily=Times New Roman;" parent="1" vertex="1">
          <mxGeometry x="4000" y="1380" width="220" height="40" as="geometry" />
        </mxCell>
        <mxCell id="mSIeOa4f1mtL7Ge1Exie-124" value="" style="endArrow=classic;startArrow=classic;html=1;rounded=0;entryX=1.005;entryY=0.825;entryDx=0;entryDy=0;entryPerimeter=0;exitX=0.003;exitY=0.835;exitDx=0;exitDy=0;exitPerimeter=0;fontFamily=Times New Roman;strokeColor=#FF0000;" parent="1" source="mSIeOa4f1mtL7Ge1Exie-121" target="mSIeOa4f1mtL7Ge1Exie-121" edge="1">
          <mxGeometry width="50" height="50" relative="1" as="geometry">
            <mxPoint x="3940" y="1430" as="sourcePoint" />
            <mxPoint x="3990" y="1380" as="targetPoint" />
          </mxGeometry>
        </mxCell>
        <mxCell id="mSIeOa4f1mtL7Ge1Exie-125" value="&lt;font style=&quot;color: rgb(255, 0, 0);&quot;&gt;waiting&lt;/font&gt;" style="text;html=1;align=center;verticalAlign=middle;resizable=0;points=[];autosize=1;strokeColor=none;fillColor=none;fontFamily=Times New Roman;" parent="1" vertex="1">
          <mxGeometry x="4080" y="1353" width="60" height="30" as="geometry" />
        </mxCell>
        <mxCell id="mSIeOa4f1mtL7Ge1Exie-126" value="Asynchoronous I/O = non-blocking I/O" style="edgeLabel;html=1;align=center;verticalAlign=middle;resizable=0;points=[];fontFamily=Times New Roman;" parent="1" vertex="1" connectable="0">
          <mxGeometry x="4099.996666666667" y="1320" as="geometry" />
        </mxCell>
        <mxCell id="mSIeOa4f1mtL7Ge1Exie-127" value="hardware (data transfer)" style="rounded=0;whiteSpace=wrap;html=1;fontFamily=Times New Roman;" parent="1" vertex="1">
          <mxGeometry x="4000" y="1460" width="220" height="26" as="geometry" />
        </mxCell>
        <mxCell id="mSIeOa4f1mtL7Ge1Exie-129" value="interrupt handler" style="rounded=0;whiteSpace=wrap;html=1;fontFamily=Times New Roman;fillColor=#f8cecc;strokeColor=#b85450;" parent="1" vertex="1">
          <mxGeometry x="4000" y="1420" width="220" height="40" as="geometry" />
        </mxCell>
        <mxCell id="mSIeOa4f1mtL7Ge1Exie-130" value="time" style="edgeLabel;html=1;align=center;verticalAlign=middle;resizable=0;points=[];fontFamily=Times New Roman;" parent="1" vertex="1" connectable="0">
          <mxGeometry x="4109.996666666667" y="1510" as="geometry" />
        </mxCell>
        <mxCell id="mSIeOa4f1mtL7Ge1Exie-131" value="" style="endArrow=classic;html=1;rounded=0;fontFamily=Times New Roman;" parent="1" edge="1">
          <mxGeometry width="50" height="50" relative="1" as="geometry">
            <mxPoint x="4000" y="1500" as="sourcePoint" />
            <mxPoint x="4220" y="1500" as="targetPoint" />
          </mxGeometry>
        </mxCell>
        <mxCell id="mSIeOa4f1mtL7Ge1Exie-134" value="" style="endArrow=none;dashed=1;html=1;dashPattern=1 3;strokeWidth=2;rounded=0;fontFamily=Times New Roman;" parent="1" edge="1">
          <mxGeometry width="50" height="50" relative="1" as="geometry">
            <mxPoint x="3990" y="1380" as="sourcePoint" />
            <mxPoint x="3990" y="1330" as="targetPoint" />
          </mxGeometry>
        </mxCell>
        <mxCell id="mSIeOa4f1mtL7Ge1Exie-135" value="user process" style="edgeLabel;html=1;align=center;verticalAlign=middle;resizable=0;points=[];fontFamily=Times New Roman;" parent="1" vertex="1" connectable="0">
          <mxGeometry x="3949.996666666667" y="1355" as="geometry" />
        </mxCell>
        <mxCell id="mSIeOa4f1mtL7Ge1Exie-136" value="" style="endArrow=none;dashed=1;html=1;dashPattern=1 3;strokeWidth=2;rounded=0;fontFamily=Times New Roman;" parent="1" edge="1">
          <mxGeometry width="50" height="50" relative="1" as="geometry">
            <mxPoint x="3990" y="1460" as="sourcePoint" />
            <mxPoint x="3990" y="1394.5" as="targetPoint" />
          </mxGeometry>
        </mxCell>
        <mxCell id="mSIeOa4f1mtL7Ge1Exie-137" value="kernel" style="edgeLabel;html=1;align=center;verticalAlign=middle;resizable=0;points=[];fontFamily=Times New Roman;" parent="1" vertex="1" connectable="0">
          <mxGeometry x="3969.996666666667" y="1428" as="geometry" />
        </mxCell>
        <mxCell id="XK1UEKYqplXlc19tVnF5-11" style="edgeStyle=orthogonalEdgeStyle;rounded=0;orthogonalLoop=1;jettySize=auto;html=1;" edge="1" parent="1" source="XK1UEKYqplXlc19tVnF5-1" target="XK1UEKYqplXlc19tVnF5-2">
          <mxGeometry relative="1" as="geometry" />
        </mxCell>
        <mxCell id="XK1UEKYqplXlc19tVnF5-1" value="user process執行" style="rounded=1;whiteSpace=wrap;html=1;" vertex="1" parent="1">
          <mxGeometry x="370" y="1624.5" width="130" height="40" as="geometry" />
        </mxCell>
        <mxCell id="XK1UEKYqplXlc19tVnF5-12" style="rounded=0;orthogonalLoop=1;jettySize=auto;html=1;entryX=0.023;entryY=0.153;entryDx=0;entryDy=0;entryPerimeter=0;" edge="1" parent="1" source="XK1UEKYqplXlc19tVnF5-2" target="XK1UEKYqplXlc19tVnF5-3">
          <mxGeometry relative="1" as="geometry" />
        </mxCell>
        <mxCell id="XK1UEKYqplXlc19tVnF5-2" value="發出system call呼叫" style="rounded=1;whiteSpace=wrap;html=1;" vertex="1" parent="1">
          <mxGeometry x="550" y="1625.5" width="130" height="40" as="geometry" />
        </mxCell>
        <mxCell id="XK1UEKYqplXlc19tVnF5-8" style="edgeStyle=orthogonalEdgeStyle;rounded=0;orthogonalLoop=1;jettySize=auto;html=1;" edge="1" parent="1" source="XK1UEKYqplXlc19tVnF5-3" target="XK1UEKYqplXlc19tVnF5-7">
          <mxGeometry relative="1" as="geometry" />
        </mxCell>
        <mxCell id="XK1UEKYqplXlc19tVnF5-9" value="執行" style="edgeLabel;html=1;align=center;verticalAlign=middle;resizable=0;points=[];" vertex="1" connectable="0" parent="XK1UEKYqplXlc19tVnF5-8">
          <mxGeometry x="-0.1931" y="-1" relative="1" as="geometry">
            <mxPoint as="offset" />
          </mxGeometry>
        </mxCell>
        <mxCell id="XK1UEKYqplXlc19tVnF5-3" value="kernel執行" style="rounded=1;whiteSpace=wrap;html=1;" vertex="1" parent="1">
          <mxGeometry x="701" y="1710" width="130" height="40" as="geometry" />
        </mxCell>
        <mxCell id="XK1UEKYqplXlc19tVnF5-4" value="" style="endArrow=none;dashed=1;html=1;dashPattern=1 3;strokeWidth=2;rounded=0;" edge="1" parent="1">
          <mxGeometry width="50" height="50" relative="1" as="geometry">
            <mxPoint x="270" y="1680" as="sourcePoint" />
            <mxPoint x="1010" y="1680" as="targetPoint" />
          </mxGeometry>
        </mxCell>
        <mxCell id="XK1UEKYqplXlc19tVnF5-5" value="user mode" style="text;html=1;align=center;verticalAlign=middle;resizable=0;points=[];autosize=1;strokeColor=none;fillColor=none;" vertex="1" parent="1">
          <mxGeometry x="265" y="1650" width="80" height="30" as="geometry" />
        </mxCell>
        <mxCell id="XK1UEKYqplXlc19tVnF5-6" value="kernel mode" style="text;html=1;align=center;verticalAlign=middle;resizable=0;points=[];autosize=1;strokeColor=none;fillColor=none;" vertex="1" parent="1">
          <mxGeometry x="260" y="1680" width="90" height="30" as="geometry" />
        </mxCell>
        <mxCell id="XK1UEKYqplXlc19tVnF5-7" value="system call&lt;div&gt;(I/O指令)&lt;/div&gt;" style="rounded=1;whiteSpace=wrap;html=1;" vertex="1" parent="1">
          <mxGeometry x="890" y="1710" width="130" height="40" as="geometry" />
        </mxCell>
        <mxCell id="XK1UEKYqplXlc19tVnF5-10" value="user process執行" style="rounded=1;whiteSpace=wrap;html=1;" vertex="1" parent="1">
          <mxGeometry x="1029" y="1624" width="130" height="40" as="geometry" />
        </mxCell>
        <mxCell id="XK1UEKYqplXlc19tVnF5-14" value="&lt;span style=&quot;background-color: rgb(255, 213, 0);&quot;&gt;change mode&lt;/span&gt;" style="text;html=1;align=center;verticalAlign=middle;resizable=0;points=[];autosize=1;strokeColor=none;fillColor=none;" vertex="1" parent="1">
          <mxGeometry x="610" y="1680" width="100" height="30" as="geometry" />
        </mxCell>
        <mxCell id="XK1UEKYqplXlc19tVnF5-15" style="rounded=0;orthogonalLoop=1;jettySize=auto;html=1;entryX=0;entryY=0.75;entryDx=0;entryDy=0;exitX=0.615;exitY=0;exitDx=0;exitDy=0;exitPerimeter=0;" edge="1" parent="1" source="XK1UEKYqplXlc19tVnF5-7" target="XK1UEKYqplXlc19tVnF5-10">
          <mxGeometry relative="1" as="geometry">
            <mxPoint x="650" y="1676" as="sourcePoint" />
            <mxPoint x="714" y="1726" as="targetPoint" />
          </mxGeometry>
        </mxCell>
        <mxCell id="XK1UEKYqplXlc19tVnF5-16" value="&lt;span style=&quot;background-color: rgb(255, 213, 0);&quot;&gt;change mode&lt;/span&gt;" style="text;html=1;align=center;verticalAlign=middle;resizable=0;points=[];autosize=1;strokeColor=none;fillColor=none;" vertex="1" parent="1">
          <mxGeometry x="941" y="1680" width="100" height="30" as="geometry" />
        </mxCell>
        <mxCell id="XK1UEKYqplXlc19tVnF5-17" value="&lt;span&gt;&lt;font style=&quot;color: rgb(255, 0, 0);&quot;&gt;chap&lt;/font&gt;&lt;/span&gt;" style="text;html=1;align=center;verticalAlign=middle;resizable=0;points=[];autosize=1;strokeColor=none;fillColor=none;" vertex="1" parent="1">
          <mxGeometry x="675" y="1650" width="50" height="30" as="geometry" />
        </mxCell>
        <mxCell id="XK1UEKYqplXlc19tVnF5-23" style="edgeStyle=orthogonalEdgeStyle;rounded=0;orthogonalLoop=1;jettySize=auto;html=1;entryX=0.5;entryY=0;entryDx=0;entryDy=0;" edge="1" parent="1" source="XK1UEKYqplXlc19tVnF5-18" target="XK1UEKYqplXlc19tVnF5-19">
          <mxGeometry relative="1" as="geometry" />
        </mxCell>
        <mxCell id="XK1UEKYqplXlc19tVnF5-18" value="process" style="rounded=1;whiteSpace=wrap;html=1;fillColor=#d5e8d4;strokeColor=#82b366;" vertex="1" parent="1">
          <mxGeometry x="355" y="1870" width="75" height="40" as="geometry" />
        </mxCell>
        <mxCell id="XK1UEKYqplXlc19tVnF5-24" style="edgeStyle=orthogonalEdgeStyle;rounded=0;orthogonalLoop=1;jettySize=auto;html=1;entryX=0;entryY=0.5;entryDx=0;entryDy=0;" edge="1" parent="1" source="XK1UEKYqplXlc19tVnF5-19" target="XK1UEKYqplXlc19tVnF5-21">
          <mxGeometry relative="1" as="geometry" />
        </mxCell>
        <mxCell id="XK1UEKYqplXlc19tVnF5-27" value="memory&lt;div&gt;address&lt;/div&gt;" style="edgeLabel;html=1;align=center;verticalAlign=middle;resizable=0;points=[];" vertex="1" connectable="0" parent="XK1UEKYqplXlc19tVnF5-24">
          <mxGeometry x="-0.2059" y="2" relative="1" as="geometry">
            <mxPoint x="2" y="2" as="offset" />
          </mxGeometry>
        </mxCell>
        <mxCell id="XK1UEKYqplXlc19tVnF5-19" value="cpu" style="rounded=1;whiteSpace=wrap;html=1;fillColor=#dae8fc;strokeColor=#6c8ebf;" vertex="1" parent="1">
          <mxGeometry x="355" y="1935" width="75" height="30" as="geometry" />
        </mxCell>
        <mxCell id="XK1UEKYqplXlc19tVnF5-29" style="edgeStyle=orthogonalEdgeStyle;rounded=0;orthogonalLoop=1;jettySize=auto;html=1;entryX=0.5;entryY=0;entryDx=0;entryDy=0;" edge="1" parent="1" source="XK1UEKYqplXlc19tVnF5-21" target="XK1UEKYqplXlc19tVnF5-28">
          <mxGeometry relative="1" as="geometry" />
        </mxCell>
        <mxCell id="XK1UEKYqplXlc19tVnF5-30" value="no" style="edgeLabel;html=1;align=center;verticalAlign=middle;resizable=0;points=[];" vertex="1" connectable="0" parent="XK1UEKYqplXlc19tVnF5-29">
          <mxGeometry x="-0.1287" relative="1" as="geometry">
            <mxPoint as="offset" />
          </mxGeometry>
        </mxCell>
        <mxCell id="XK1UEKYqplXlc19tVnF5-32" style="edgeStyle=orthogonalEdgeStyle;rounded=0;orthogonalLoop=1;jettySize=auto;html=1;entryX=0;entryY=0.5;entryDx=0;entryDy=0;" edge="1" parent="1" source="XK1UEKYqplXlc19tVnF5-21" target="XK1UEKYqplXlc19tVnF5-31">
          <mxGeometry relative="1" as="geometry" />
        </mxCell>
        <mxCell id="XK1UEKYqplXlc19tVnF5-21" value="&amp;gt;=Base" style="rhombus;whiteSpace=wrap;html=1;fillColor=#fff2cc;strokeColor=#d6b656;" vertex="1" parent="1">
          <mxGeometry x="500" y="1910" width="80" height="80" as="geometry" />
        </mxCell>
        <mxCell id="XK1UEKYqplXlc19tVnF5-28" value="illegal memory access" style="rounded=1;whiteSpace=wrap;html=1;fillColor=#d5e8d4;strokeColor=#82b366;" vertex="1" parent="1">
          <mxGeometry x="497.5" y="2030" width="85" height="30" as="geometry" />
        </mxCell>
        <mxCell id="XK1UEKYqplXlc19tVnF5-33" style="edgeStyle=orthogonalEdgeStyle;rounded=0;orthogonalLoop=1;jettySize=auto;html=1;entryX=1;entryY=0.5;entryDx=0;entryDy=0;" edge="1" parent="1" source="XK1UEKYqplXlc19tVnF5-31" target="XK1UEKYqplXlc19tVnF5-28">
          <mxGeometry relative="1" as="geometry">
            <Array as="points">
              <mxPoint x="690" y="2045" />
            </Array>
          </mxGeometry>
        </mxCell>
        <mxCell id="XK1UEKYqplXlc19tVnF5-34" value="no" style="edgeLabel;html=1;align=center;verticalAlign=middle;resizable=0;points=[];" vertex="1" connectable="0" parent="XK1UEKYqplXlc19tVnF5-33">
          <mxGeometry x="0.2229" y="-1" relative="1" as="geometry">
            <mxPoint as="offset" />
          </mxGeometry>
        </mxCell>
        <mxCell id="XK1UEKYqplXlc19tVnF5-49" style="edgeStyle=orthogonalEdgeStyle;rounded=0;orthogonalLoop=1;jettySize=auto;html=1;" edge="1" parent="1" source="XK1UEKYqplXlc19tVnF5-31" target="XK1UEKYqplXlc19tVnF5-36">
          <mxGeometry relative="1" as="geometry" />
        </mxCell>
        <mxCell id="XK1UEKYqplXlc19tVnF5-31" value="&amp;lt;limit" style="rhombus;whiteSpace=wrap;html=1;fillColor=#fff2cc;strokeColor=#d6b656;" vertex="1" parent="1">
          <mxGeometry x="650" y="1910" width="80" height="80" as="geometry" />
        </mxCell>
        <mxCell id="XK1UEKYqplXlc19tVnF5-36" value="process" style="rounded=0;whiteSpace=wrap;html=1;fillColor=#fff2cc;strokeColor=#d6b656;" vertex="1" parent="1">
          <mxGeometry x="810" y="1924" width="120" height="50" as="geometry" />
        </mxCell>
        <mxCell id="XK1UEKYqplXlc19tVnF5-38" value="" style="rounded=0;whiteSpace=wrap;html=1;fillColor=#f5f5f5;fontColor=#333333;strokeColor=#666666;" vertex="1" parent="1">
          <mxGeometry x="810" y="1874" width="120" height="50" as="geometry" />
        </mxCell>
        <mxCell id="XK1UEKYqplXlc19tVnF5-39" value="" style="rounded=0;whiteSpace=wrap;html=1;fillColor=#f5f5f5;fontColor=#333333;strokeColor=#666666;" vertex="1" parent="1">
          <mxGeometry x="810" y="1974" width="120" height="50" as="geometry" />
        </mxCell>
        <mxCell id="XK1UEKYqplXlc19tVnF5-40" value="memory" style="text;html=1;align=center;verticalAlign=middle;resizable=0;points=[];autosize=1;strokeColor=none;fillColor=none;" vertex="1" parent="1">
          <mxGeometry x="830" y="1849" width="70" height="30" as="geometry" />
        </mxCell>
        <mxCell id="XK1UEKYqplXlc19tVnF5-41" value="0000" style="text;html=1;align=center;verticalAlign=middle;resizable=0;points=[];autosize=1;strokeColor=none;fillColor=none;" vertex="1" parent="1">
          <mxGeometry x="760" y="2010" width="50" height="30" as="geometry" />
        </mxCell>
        <mxCell id="XK1UEKYqplXlc19tVnF5-42" value="9999" style="text;html=1;align=center;verticalAlign=middle;resizable=0;points=[];autosize=1;strokeColor=none;fillColor=none;" vertex="1" parent="1">
          <mxGeometry x="760" y="1875" width="50" height="30" as="geometry" />
        </mxCell>
        <mxCell id="XK1UEKYqplXlc19tVnF5-43" value="&lt;span style=&quot;text-wrap: wrap; color: rgba(0, 0, 0, 0.8); font-family: Roboto, Helvetica, sans-serif; font-size: 18px; text-align: left; background-color: rgb(255, 255, 255);&quot;&gt;←&lt;/span&gt;Base=1000" style="text;html=1;align=center;verticalAlign=middle;resizable=0;points=[];autosize=1;strokeColor=none;fillColor=none;" vertex="1" parent="1">
          <mxGeometry x="925" y="1954" width="100" height="40" as="geometry" />
        </mxCell>
        <mxCell id="XK1UEKYqplXlc19tVnF5-45" value="Limit=500" style="text;html=1;align=center;verticalAlign=middle;resizable=0;points=[];autosize=1;strokeColor=none;fillColor=none;" vertex="1" parent="1">
          <mxGeometry x="925" y="1939" width="80" height="30" as="geometry" />
        </mxCell>
        <mxCell id="XK1UEKYqplXlc19tVnF5-47" value="1499" style="text;html=1;align=center;verticalAlign=middle;resizable=0;points=[];autosize=1;strokeColor=none;fillColor=none;" vertex="1" parent="1">
          <mxGeometry x="925.5" y="1909" width="50" height="30" as="geometry" />
        </mxCell>
        <mxCell id="XK1UEKYqplXlc19tVnF5-51" value="&lt;span style=&quot;text-wrap: wrap;&quot;&gt;legal memory access&lt;/span&gt;" style="text;html=1;align=center;verticalAlign=middle;resizable=0;points=[];autosize=1;strokeColor=none;fillColor=none;" vertex="1" parent="1">
          <mxGeometry x="696" y="1924" width="140" height="30" as="geometry" />
        </mxCell>
        <mxCell id="XK1UEKYqplXlc19tVnF5-52" value="MMU(momory management unit)負責(硬件)" style="text;align=center;verticalAlign=middle;resizable=0;points=[];autosize=1;strokeColor=none;fillColor=none;" vertex="1" parent="1">
          <mxGeometry x="482" y="1866" width="260" height="30" as="geometry" />
        </mxCell>
      </root>
    </mxGraphModel>
  </diagram>
</mxfile>
